<svg width="148" height="79" viewBox="0 0 148 79" fill="none" xmlns="http://www.w3.org/2000/svg">
<g clip-path="url(#clip0_260_140)">
<path d="M16.199 37.4023H11.3724V24.1877C11.3724 23.8232 11.3776 23.3755 11.388 22.8444C11.3984 22.3029 11.414 21.751 11.4349 21.1886C11.4557 20.6159 11.4765 20.1004 11.4974 19.6422C11.3828 19.7776 11.1485 20.0119 10.7944 20.3451C10.4508 20.668 10.128 20.9595 9.826 21.2199L7.20182 23.3286L4.87441 20.4232L12.2315 14.5657H16.199V37.4023Z" fill="#FF8000"/>
<path d="M33.7233 26.0297C33.7233 27.8176 33.5819 29.4135 33.299 30.8176C33.0263 32.2216 32.5819 33.4135 31.9657 34.3933C31.3596 35.3731 30.5617 36.1206 29.5718 36.6358C28.5819 37.1509 27.3798 37.4085 25.9657 37.4085C24.1879 37.4085 22.7283 36.959 21.5869 36.06C20.4455 35.1509 19.602 33.8479 19.0566 32.1509C18.5111 30.4438 18.2384 28.4034 18.2384 26.0297C18.2384 23.6357 18.4859 21.5903 18.9808 19.8933C19.4859 18.1862 20.3041 16.8782 21.4354 15.9691C22.5667 15.06 24.0768 14.6054 25.9657 14.6054C27.7334 14.6054 29.1879 15.06 30.3293 15.9691C31.4808 16.8681 32.3344 18.1711 32.8899 19.8782C33.4455 21.5751 33.7233 23.6256 33.7233 26.0297ZM22.8899 26.0297C22.8899 27.7166 22.9808 29.1257 23.1627 30.257C23.3546 31.3782 23.6728 32.2216 24.1172 32.7873C24.5616 33.3529 25.1778 33.6358 25.9657 33.6358C26.7435 33.6358 27.3546 33.358 27.799 32.8024C28.2536 32.2368 28.5768 31.3933 28.7687 30.2721C28.9606 29.1408 29.0566 27.7267 29.0566 26.0297C29.0566 24.3428 28.9606 22.9337 28.7687 21.8024C28.5768 20.6711 28.2536 19.8226 27.799 19.257C27.3546 18.6812 26.7435 18.3933 25.9657 18.3933C25.1778 18.3933 24.5616 18.6812 24.1172 19.257C23.6728 19.8226 23.3546 20.6711 23.1627 21.8024C22.9808 22.9337 22.8899 24.3428 22.8899 26.0297ZM50.8603 26.0297C50.8603 27.8176 50.7189 29.4135 50.436 30.8176C50.1633 32.2216 49.7189 33.4135 49.1027 34.3933C48.4966 35.3731 47.6987 36.1206 46.7088 36.6358C45.7189 37.1509 44.5168 37.4085 43.1027 37.4085C41.3249 37.4085 39.8653 36.959 38.7239 36.06C37.5825 35.1509 36.739 33.8479 36.1936 32.1509C35.6481 30.4438 35.3754 28.4034 35.3754 26.0297C35.3754 23.6357 35.6229 21.5903 36.1178 19.8933C36.6229 18.1862 37.4411 16.8782 38.5724 15.9691C39.7037 15.06 41.2138 14.6054 43.1027 14.6054C44.8704 14.6054 46.3249 15.06 47.4663 15.9691C48.6179 16.8681 49.4714 18.1711 50.0269 19.8782C50.5825 21.5751 50.8603 23.6256 50.8603 26.0297ZM40.0269 26.0297C40.0269 27.7166 40.1178 29.1257 40.2997 30.257C40.4916 31.3782 40.8098 32.2216 41.2542 32.7873C41.6986 33.3529 42.3148 33.6358 43.1027 33.6358C43.8805 33.6358 44.4916 33.358 44.936 32.8024C45.3906 32.2368 45.7138 31.3933 45.9057 30.2721C46.0976 29.1408 46.1936 27.7267 46.1936 26.0297C46.1936 24.3428 46.0976 22.9337 45.9057 21.8024C45.7138 20.6711 45.3906 19.8226 44.936 19.257C44.4916 18.6812 43.8805 18.3933 43.1027 18.3933C42.3148 18.3933 41.6986 18.6812 41.2542 19.257C40.8098 19.8226 40.4916 20.6711 40.2997 21.8024C40.1178 22.9337 40.0269 24.3428 40.0269 26.0297ZM67.9973 26.0297C67.9973 27.8176 67.8559 29.4135 67.573 30.8176C67.3003 32.2216 66.8559 33.4135 66.2397 34.3933C65.6336 35.3731 64.8357 36.1206 63.8458 36.6358C62.8559 37.1509 61.6538 37.4085 60.2397 37.4085C58.4619 37.4085 57.0023 36.959 55.8609 36.06C54.7195 35.1509 53.876 33.8479 53.3306 32.1509C52.7851 30.4438 52.5124 28.4034 52.5124 26.0297C52.5124 23.6357 52.7599 21.5903 53.2548 19.8933C53.7599 18.1862 54.5781 16.8782 55.7094 15.9691C56.8407 15.06 58.3508 14.6054 60.2397 14.6054C62.0074 14.6054 63.4619 15.06 64.6033 15.9691C65.7549 16.8681 66.6084 18.1711 67.1639 19.8782C67.7195 21.5751 67.9973 23.6256 67.9973 26.0297ZM57.1639 26.0297C57.1639 27.7166 57.2548 29.1257 57.4367 30.257C57.6286 31.3782 57.9468 32.2216 58.3912 32.7873C58.8356 33.3529 59.4518 33.6358 60.2397 33.6358C61.0175 33.6358 61.6286 33.358 62.073 32.8024C62.5276 32.2368 62.8508 31.3933 63.0427 30.2721C63.2346 29.1408 63.3306 27.7267 63.3306 26.0297C63.3306 24.3428 63.2346 22.9337 63.0427 21.8024C62.8508 20.6711 62.5276 19.8226 62.073 19.257C61.6286 18.6812 61.0175 18.3933 60.2397 18.3933C59.4518 18.3933 58.8356 18.6812 58.3912 19.257C57.9468 19.8226 57.6286 20.6711 57.4367 21.8024C57.2548 22.9337 57.1639 24.3428 57.1639 26.0297ZM85.1343 26.0297C85.1343 27.8176 84.9929 29.4135 84.71 30.8176C84.4373 32.2216 83.9929 33.4135 83.3767 34.3933C82.7706 35.3731 81.9727 36.1206 80.9828 36.6358C79.9929 37.1509 78.7908 37.4085 77.3767 37.4085C75.5989 37.4085 74.1393 36.959 72.9979 36.06C71.8565 35.1509 71.013 33.8479 70.4676 32.1509C69.9221 30.4438 69.6494 28.4034 69.6494 26.0297C69.6494 23.6357 69.8969 21.5903 70.3918 19.8933C70.8969 18.1862 71.7151 16.8782 72.8464 15.9691C73.9777 15.06 75.4878 14.6054 77.3767 14.6054C79.1444 14.6054 80.5989 15.06 81.7403 15.9691C82.8919 16.8681 83.7454 18.1711 84.3009 19.8782C84.8565 21.5751 85.1343 23.6256 85.1343 26.0297ZM74.3009 26.0297C74.3009 27.7166 74.3918 29.1257 74.5737 30.257C74.7656 31.3782 75.0838 32.2216 75.5282 32.7873C75.9726 33.3529 76.5888 33.6358 77.3767 33.6358C78.1545 33.6358 78.7656 33.358 79.21 32.8024C79.6646 32.2368 79.9878 31.3933 80.1797 30.2721C80.3716 29.1408 80.4676 27.7267 80.4676 26.0297C80.4676 24.3428 80.3716 22.9337 80.1797 21.8024C79.9878 20.6711 79.6646 19.8226 79.21 19.257C78.7656 18.6812 78.1545 18.3933 77.3767 18.3933C76.5888 18.3933 75.9726 18.6812 75.5282 19.257C75.0838 19.8226 74.7656 20.6711 74.5737 21.8024C74.3918 22.9337 74.3009 24.3428 74.3009 26.0297Z" fill="white"/>
<path d="M110.855 15.8633H93.8207C92.8799 15.8633 92.1172 16.6385 92.1172 17.5947V30.2921C92.1172 31.2484 92.8799 32.0236 93.8207 32.0236H110.855C111.796 32.0236 112.559 31.2484 112.559 30.2921V17.5947C112.559 16.6385 111.796 15.8633 110.855 15.8633Z" fill="#FF8000" stroke="white" stroke-width="2.13267" stroke-linejoin="round"/>
<path d="M96.6641 36.6407H108.021M102.342 32.0234V36.6407" stroke="white" stroke-width="2.13267" stroke-linecap="round" stroke-linejoin="round"/>
<path d="M98.4357 21.2969L95.8125 24.1269L98.4357 26.5432" stroke="white" stroke-width="1.34358" stroke-linecap="round"/>
<path d="M106.244 21.2969L108.867 24.1269L106.244 26.5432" stroke="white" stroke-width="1.34358" stroke-linecap="round"/>
<path d="M103.891 19.0586L100.82 28.7836" stroke="white" stroke-width="1.34358" stroke-linecap="round"/>
<g clip-path="url(#clip1_260_140)">
<path d="M107.63 10.8734L106.221 13.1022C106.016 13.4264 106.042 13.8477 106.301 14.366C106.559 14.8844 107.004 15.4282 107.634 15.9974C108.265 16.5666 109.002 17.0857 109.847 17.5548C110.692 18.0239 111.523 18.3756 112.339 18.6097C113.156 18.8439 113.852 18.9337 114.429 18.879C115.006 18.8244 115.377 18.6242 115.544 18.2784L116.691 15.904L111.778 14.9011C111.652 14.8758 111.526 14.8281 111.4 14.758C111.274 14.6879 111.167 14.6062 111.079 14.5129L107.63 10.8734ZM105.08 6.37031C105.018 6.48199 105.03 6.5869 105.115 6.68506L111.849 13.778C111.866 13.7936 111.889 13.8095 111.918 13.8257C111.947 13.8419 111.973 13.8529 111.995 13.8589L117.577 14.9951C117.694 15.2761 117.716 15.6425 117.643 16.0943C117.57 16.5461 117.412 17.0253 117.169 17.5319C116.766 17.5369 116.466 17.7166 116.269 18.071C116.083 18.4061 116.08 18.744 116.259 19.0849L114.085 22.0041C114.038 22.0667 114.024 22.1381 114.042 22.2185C114.056 22.2962 114.1 22.3553 114.173 22.3957L115.571 23.1721C115.644 23.2126 115.717 23.2182 115.79 23.1891C115.869 23.1626 115.922 23.1127 115.95 23.0393L117.278 19.6511C117.662 19.6229 117.947 19.4413 118.133 19.1063C118.33 18.7518 118.322 18.3947 118.109 18.035C118.614 17.0002 118.821 16.0669 118.73 15.2351L121.576 15.8243C121.704 15.8447 121.799 15.7991 121.861 15.6875C121.923 15.5758 121.912 15.4709 121.826 15.3727L115.092 8.27977C115.076 8.26413 115.053 8.24822 115.024 8.23205C114.994 8.21587 114.969 8.20482 114.947 8.19889L105.366 6.23349C105.237 6.21302 105.142 6.25863 105.08 6.37031Z" fill="white"/>
</g>
<mask id="path-9-outside-1_260_140" maskUnits="userSpaceOnUse" x="4.14844" y="42.9961" width="19" height="22" fill="black">
<rect fill="white" x="4.14844" y="42.9961" width="19" height="22"/>
<path d="M19.0938 61.6215C17.7192 62.8795 15.9614 63.5084 13.8204 63.5084C11.1713 63.5084 9.08857 62.6587 7.57237 60.9592C6.05618 59.2514 5.29808 56.9105 5.29808 53.9364C5.29808 50.7207 6.16031 48.2423 7.88478 46.5012C9.38431 44.985 11.2921 44.2269 13.608 44.2269C16.707 44.2269 18.973 45.2433 20.4059 47.276C21.1973 48.4173 21.6222 49.5628 21.6805 50.7124H17.8317C17.5818 49.8294 17.261 49.1629 16.8695 48.713C16.1697 47.9133 15.1325 47.5134 13.758 47.5134C12.3584 47.5134 11.2546 48.0799 10.4465 49.2129C9.6384 50.3375 9.23436 51.9329 9.23436 53.9989C9.23436 56.0649 9.65922 57.6144 10.509 58.6474C11.367 59.6721 12.4542 60.1845 13.7704 60.1845C15.12 60.1845 16.1489 59.7429 16.857 58.8599C17.2485 58.385 17.5734 57.6727 17.8317 56.723H21.643C21.3098 58.7308 20.46 60.3636 19.0938 61.6215Z"/>
</mask>
<path d="M19.0938 61.6215C17.7192 62.8795 15.9614 63.5084 13.8204 63.5084C11.1713 63.5084 9.08857 62.6587 7.57237 60.9592C6.05618 59.2514 5.29808 56.9105 5.29808 53.9364C5.29808 50.7207 6.16031 48.2423 7.88478 46.5012C9.38431 44.985 11.2921 44.2269 13.608 44.2269C16.707 44.2269 18.973 45.2433 20.4059 47.276C21.1973 48.4173 21.6222 49.5628 21.6805 50.7124H17.8317C17.5818 49.8294 17.261 49.1629 16.8695 48.713C16.1697 47.9133 15.1325 47.5134 13.758 47.5134C12.3584 47.5134 11.2546 48.0799 10.4465 49.2129C9.6384 50.3375 9.23436 51.9329 9.23436 53.9989C9.23436 56.0649 9.65922 57.6144 10.509 58.6474C11.367 59.6721 12.4542 60.1845 13.7704 60.1845C15.12 60.1845 16.1489 59.7429 16.857 58.8599C17.2485 58.385 17.5734 57.6727 17.8317 56.723H21.643C21.3098 58.7308 20.46 60.3636 19.0938 61.6215Z" fill="white"/>
<path d="M19.0938 61.6215L19.4825 62.0463L19.4838 62.0451L19.0938 61.6215ZM7.57237 60.9592L7.14177 61.3415L7.1427 61.3426L7.57237 60.9592ZM7.88478 46.5012L8.2939 46.9064L8.29419 46.9061L7.88478 46.5012ZM20.4059 47.276L20.8791 46.9478L20.8765 46.9442L20.4059 47.276ZM21.6805 50.7124V51.2882H22.2863L22.2556 50.6832L21.6805 50.7124ZM17.8317 50.7124L17.2776 50.8692L17.3962 51.2882H17.8317V50.7124ZM16.8695 48.713L17.3038 48.335L17.3028 48.3339L16.8695 48.713ZM10.4465 49.2129L10.9141 49.5489L10.9153 49.5472L10.4465 49.2129ZM10.509 58.6474L10.0642 59.0133L10.0675 59.0171L10.509 58.6474ZM16.857 58.8599L16.4127 58.4935L16.4078 58.4997L16.857 58.8599ZM17.8317 56.723V56.1472H17.3915L17.276 56.5719L17.8317 56.723ZM21.643 56.723L22.211 56.8173L22.3223 56.1472H21.643V56.723ZM19.0938 61.6215L18.705 61.1967C17.4524 62.3431 15.8405 62.9326 13.8204 62.9326V63.5084V64.0843C16.0824 64.0843 17.986 63.4159 19.4825 62.0463L19.0938 61.6215ZM13.8204 63.5084V62.9326C11.3059 62.9326 9.39079 62.1325 8.00205 60.5759L7.57237 60.9592L7.1427 61.3426C8.78635 63.1849 11.0366 64.0843 13.8204 64.0843V63.5084ZM7.57237 60.9592L8.00298 60.5769C6.60571 59.0031 5.8739 56.8132 5.8739 53.9364H5.29808H4.72226C4.72226 57.0078 5.50664 59.4998 7.14177 61.3415L7.57237 60.9592ZM5.29808 53.9364H5.8739C5.8739 50.8233 6.70644 48.5092 8.2939 46.9064L7.88478 46.5012L7.47566 46.096C5.61418 47.9755 4.72226 50.6181 4.72226 53.9364H5.29808ZM7.88478 46.5012L8.29419 46.9061C9.67569 45.5093 11.4313 44.8027 13.608 44.8027V44.2269V43.6511C11.1528 43.6511 9.09293 44.4608 7.47537 46.0963L7.88478 46.5012ZM13.608 44.2269V44.8027C16.5716 44.8027 18.6369 45.766 19.9352 47.6077L20.4059 47.276L20.8765 46.9442C19.309 44.7206 16.8425 43.6511 13.608 43.6511V44.2269ZM20.4059 47.276L19.9327 47.6041C20.6757 48.6755 21.0536 49.7194 21.1054 50.7416L21.6805 50.7124L22.2556 50.6832C22.1908 49.4061 21.7189 48.159 20.8791 46.9479L20.4059 47.276ZM21.6805 50.7124V50.1366H17.8317V50.7124V51.2882H21.6805V50.7124ZM17.8317 50.7124L18.3857 50.5556C18.124 49.6306 17.773 48.874 17.3038 48.335L16.8695 48.713L16.4351 49.0911C16.7491 49.4517 17.0396 50.0281 17.2776 50.8692L17.8317 50.7124ZM16.8695 48.713L17.3028 48.3339C16.4636 47.3747 15.2466 46.9376 13.758 46.9376V47.5134V48.0892C15.0185 48.0892 15.8758 48.4519 16.4361 49.0922L16.8695 48.713ZM13.758 47.5134V46.9376C12.1735 46.9376 10.8946 47.593 9.97768 48.8785L10.4465 49.2129L10.9153 49.5472C11.6146 48.5668 12.5432 48.0892 13.758 48.0892V47.5134ZM10.4465 49.2129L9.97885 48.8769C9.07351 50.1369 8.65854 51.8685 8.65854 53.9989H9.23436H9.81018C9.81018 51.9972 10.2033 50.5382 10.9141 49.5489L10.4465 49.2129ZM9.23436 53.9989H8.65854C8.65854 56.1293 9.09436 57.8341 10.0643 59.0132L10.509 58.6474L10.9537 58.2816C10.2241 57.3947 9.81018 56.0005 9.81018 53.9989H9.23436ZM10.509 58.6474L10.0675 59.0171C11.033 60.1701 12.2808 60.7603 13.7704 60.7603V60.1845V59.6086C12.6276 59.6086 11.701 59.1741 10.9504 58.2778L10.509 58.6474ZM13.7704 60.1845V60.7603C15.2573 60.7603 16.4674 60.2662 17.3062 59.2201L16.857 58.8599L16.4078 58.4997C15.8304 59.2197 14.9827 59.6086 13.7704 59.6086V60.1845ZM16.857 58.8599L17.3013 59.2262C17.7667 58.6618 18.119 57.8608 18.3873 56.8741L17.8317 56.723L17.276 56.5719C17.0278 57.4847 16.7304 58.1083 16.4127 58.4936L16.857 58.8599ZM17.8317 56.723V57.2989H21.643V56.723V56.1472H17.8317V56.723ZM21.643 56.723L21.0749 56.6288C20.7606 58.5228 19.9665 60.0353 18.7038 61.1979L19.0938 61.6215L19.4838 62.0451C20.9536 60.6919 21.859 58.9387 22.211 56.8173L21.643 56.723Z" fill="white" mask="url(#path-9-outside-1_260_140)"/>
<mask id="path-11-outside-2_260_140" maskUnits="userSpaceOnUse" x="44.5469" y="43.5234" width="76" height="23" fill="black">
<rect fill="white" x="44.5469" y="43.5234" width="76" height="23"/>
<path d="M53.802 64.5234H45.5694V45.4134H53.802C54.9861 45.4307 55.9714 45.569 56.7579 45.8283C58.0976 46.2691 59.1823 47.0772 60.0121 48.2527C60.6776 49.2035 61.1314 50.232 61.3734 51.3383C61.6154 52.4446 61.7364 53.4991 61.7364 54.5017C61.7364 57.0428 61.2264 59.1949 60.2065 60.9581C58.8236 63.335 56.6888 64.5234 53.802 64.5234ZM56.7709 50.2882C56.1572 49.251 54.9429 48.7324 53.1278 48.7324H49.4458V61.2045H53.1278C55.012 61.2045 56.3258 60.2753 57.0691 58.4171C57.4753 57.3972 57.6784 56.1828 57.6784 54.774C57.6784 52.8293 57.3759 51.334 56.7709 50.2882ZM78.9883 56.1742H69.7055V61.0878H80.2848V64.5234H65.8032V45.4134H79.818V48.7972H69.7055V52.8552H78.9883V56.1742ZM92.4415 57.0298H88.3187V64.5234H84.4163V45.4134H93.7898C95.1295 45.4394 96.1581 45.6036 96.8754 45.9061C97.6015 46.2086 98.2151 46.6537 98.7164 47.2415C99.1313 47.7255 99.4597 48.2614 99.7018 48.8491C99.9438 49.4368 100.065 50.1067 100.065 50.8586C100.065 51.7662 99.8357 52.6607 99.3776 53.5423C98.9195 54.4153 98.1633 55.0333 97.1088 55.3963C97.9904 55.7506 98.6127 56.2563 98.9757 56.9131C99.3474 57.5614 99.5332 58.5553 99.5332 59.895V61.1785C99.5332 62.0515 99.5678 62.6436 99.6369 62.9547C99.7406 63.4474 99.9827 63.8104 100.363 64.0437V64.5234H95.9679C95.8469 64.0999 95.7605 63.7585 95.7086 63.4992C95.6049 62.9633 95.5487 62.4145 95.5401 61.8527L95.5141 60.0765C95.4969 58.8579 95.2721 58.0454 94.84 57.6392C94.4165 57.2329 93.617 57.0298 92.4415 57.0298ZM94.8659 53.5553C95.6611 53.1923 96.0587 52.4749 96.0587 51.4031C96.0587 50.245 95.674 49.4671 94.9048 49.0695C94.4726 48.8448 93.8244 48.7324 92.9601 48.7324H88.3187V53.8664H92.8434C93.7423 53.8664 94.4165 53.7627 94.8659 53.5553ZM111.379 61.762C112.321 61.762 113.086 61.6582 113.674 61.4508C114.789 61.0532 115.346 60.3142 115.346 59.2338C115.346 58.6029 115.069 58.1145 114.516 57.7688C113.963 57.4317 113.094 57.1335 111.91 56.8743L109.888 56.4205C107.9 55.971 106.526 55.4827 105.765 54.9555C104.477 54.0739 103.833 52.6953 103.833 50.8197C103.833 49.1084 104.456 47.6866 105.7 46.5543C106.945 45.4221 108.773 44.856 111.184 44.856C113.198 44.856 114.914 45.3918 116.331 46.4636C117.757 47.5267 118.505 49.0738 118.574 51.1049H114.737C114.668 49.9554 114.166 49.1386 113.233 48.6546C112.61 48.3348 111.837 48.1749 110.912 48.1749C109.884 48.1749 109.062 48.3824 108.449 48.7972C107.835 49.2121 107.528 49.7912 107.528 50.5345C107.528 51.2173 107.831 51.7273 108.436 52.0643C108.825 52.2891 109.655 52.5527 110.925 52.8552L114.218 53.646C115.662 53.9918 116.751 54.4542 117.485 55.0333C118.626 55.9321 119.197 57.2329 119.197 58.9356C119.197 60.6816 118.527 62.1336 117.187 63.2918C115.856 64.4413 113.972 65.0161 111.534 65.0161C109.045 65.0161 107.088 64.45 105.661 63.3177C104.235 62.1768 103.522 60.6124 103.522 58.6245H107.334C107.455 59.4974 107.693 60.15 108.047 60.5822C108.695 61.3687 109.806 61.762 111.379 61.762Z"/>
</mask>
<path d="M53.802 64.5234H45.5694V45.4134H53.802C54.9861 45.4307 55.9714 45.569 56.7579 45.8283C58.0976 46.2691 59.1823 47.0772 60.0121 48.2527C60.6776 49.2035 61.1314 50.232 61.3734 51.3383C61.6154 52.4446 61.7364 53.4991 61.7364 54.5017C61.7364 57.0428 61.2264 59.1949 60.2065 60.9581C58.8236 63.335 56.6888 64.5234 53.802 64.5234ZM56.7709 50.2882C56.1572 49.251 54.9429 48.7324 53.1278 48.7324H49.4458V61.2045H53.1278C55.012 61.2045 56.3258 60.2753 57.0691 58.4171C57.4753 57.3972 57.6784 56.1828 57.6784 54.774C57.6784 52.8293 57.3759 51.334 56.7709 50.2882ZM78.9883 56.1742H69.7055V61.0878H80.2848V64.5234H65.8032V45.4134H79.818V48.7972H69.7055V52.8552H78.9883V56.1742ZM92.4415 57.0298H88.3187V64.5234H84.4163V45.4134H93.7898C95.1295 45.4394 96.1581 45.6036 96.8754 45.9061C97.6015 46.2086 98.2151 46.6537 98.7164 47.2415C99.1313 47.7255 99.4597 48.2614 99.7018 48.8491C99.9438 49.4368 100.065 50.1067 100.065 50.8586C100.065 51.7662 99.8357 52.6607 99.3776 53.5423C98.9195 54.4153 98.1633 55.0333 97.1088 55.3963C97.9904 55.7506 98.6127 56.2563 98.9757 56.9131C99.3474 57.5614 99.5332 58.5553 99.5332 59.895V61.1785C99.5332 62.0515 99.5678 62.6436 99.6369 62.9547C99.7406 63.4474 99.9827 63.8104 100.363 64.0437V64.5234H95.9679C95.8469 64.0999 95.7605 63.7585 95.7086 63.4992C95.6049 62.9633 95.5487 62.4145 95.5401 61.8527L95.5141 60.0765C95.4969 58.8579 95.2721 58.0454 94.84 57.6392C94.4165 57.2329 93.617 57.0298 92.4415 57.0298ZM94.8659 53.5553C95.6611 53.1923 96.0587 52.4749 96.0587 51.4031C96.0587 50.245 95.674 49.4671 94.9048 49.0695C94.4726 48.8448 93.8244 48.7324 92.9601 48.7324H88.3187V53.8664H92.8434C93.7423 53.8664 94.4165 53.7627 94.8659 53.5553ZM111.379 61.762C112.321 61.762 113.086 61.6582 113.674 61.4508C114.789 61.0532 115.346 60.3142 115.346 59.2338C115.346 58.6029 115.069 58.1145 114.516 57.7688C113.963 57.4317 113.094 57.1335 111.91 56.8743L109.888 56.4205C107.9 55.971 106.526 55.4827 105.765 54.9555C104.477 54.0739 103.833 52.6953 103.833 50.8197C103.833 49.1084 104.456 47.6866 105.7 46.5543C106.945 45.4221 108.773 44.856 111.184 44.856C113.198 44.856 114.914 45.3918 116.331 46.4636C117.757 47.5267 118.505 49.0738 118.574 51.1049H114.737C114.668 49.9554 114.166 49.1386 113.233 48.6546C112.61 48.3348 111.837 48.1749 110.912 48.1749C109.884 48.1749 109.062 48.3824 108.449 48.7972C107.835 49.2121 107.528 49.7912 107.528 50.5345C107.528 51.2173 107.831 51.7273 108.436 52.0643C108.825 52.2891 109.655 52.5527 110.925 52.8552L114.218 53.646C115.662 53.9918 116.751 54.4542 117.485 55.0333C118.626 55.9321 119.197 57.2329 119.197 58.9356C119.197 60.6816 118.527 62.1336 117.187 63.2918C115.856 64.4413 113.972 65.0161 111.534 65.0161C109.045 65.0161 107.088 64.45 105.661 63.3177C104.235 62.1768 103.522 60.6124 103.522 58.6245H107.334C107.455 59.4974 107.693 60.15 108.047 60.5822C108.695 61.3687 109.806 61.762 111.379 61.762Z" fill="white"/>
<path d="M45.5694 64.5234H44.9936V65.0993H45.5694V64.5234ZM45.5694 45.4134V44.8376H44.9936V45.4134H45.5694ZM53.802 45.4134L53.8104 44.8376H53.802V45.4134ZM56.7579 45.8283L56.5776 46.3752L56.578 46.3753L56.7579 45.8283ZM60.0121 48.2527L60.4838 47.9225L60.4825 47.9206L60.0121 48.2527ZM60.2065 60.9581L60.7043 61.2477L60.705 61.2465L60.2065 60.9581ZM56.7709 50.2882L57.2693 49.9998L57.2665 49.995L56.7709 50.2882ZM49.4458 48.7324V48.1566H48.87V48.7324H49.4458ZM49.4458 61.2045H48.87V61.7803H49.4458V61.2045ZM57.0691 58.4171L57.6037 58.6309L57.604 58.6301L57.0691 58.4171ZM53.802 64.5234V63.9476H45.5694V64.5234V65.0993H53.802V64.5234ZM45.5694 64.5234H46.1452V45.4134H45.5694H44.9936V64.5234H45.5694ZM45.5694 45.4134V45.9893H53.802V45.4134V44.8376H45.5694V45.4134ZM53.802 45.4134L53.7936 45.9892C54.9421 46.006 55.8648 46.1402 56.5776 46.3752L56.7579 45.8283L56.9382 45.2814C56.078 44.9978 55.03 44.8555 53.8104 44.8377L53.802 45.4134ZM56.7579 45.8283L56.578 46.3753C57.7978 46.7766 58.7816 47.5081 59.5416 48.5848L60.0121 48.2527L60.4825 47.9206C59.5831 46.6464 58.3975 45.7616 56.9379 45.2813L56.7579 45.8283ZM60.0121 48.2527L59.5403 48.5829C60.1633 49.4729 60.5855 50.4313 60.8108 51.4614L61.3734 51.3383L61.9359 51.2153C61.6772 50.0327 61.1919 48.934 60.4838 47.9225L60.0121 48.2527ZM61.3734 51.3383L60.8108 51.4614C61.0451 52.5324 61.1606 53.5454 61.1606 54.5017H61.7364H62.3122C62.3122 53.4528 62.1856 52.3569 61.9359 51.2153L61.3734 51.3383ZM61.7364 54.5017H61.1606C61.1606 56.9663 60.6662 59.0135 59.7081 60.6698L60.2065 60.9581L60.705 61.2465C61.7867 59.3764 62.3122 57.1193 62.3122 54.5017H61.7364ZM60.2065 60.9581L59.7088 60.6686C58.4352 62.8576 56.4963 63.9476 53.802 63.9476V64.5234V65.0993C56.8813 65.0993 59.2121 63.8124 60.7043 61.2477L60.2065 60.9581ZM56.7709 50.2882L57.2665 49.995C56.5029 48.7043 55.0351 48.1566 53.1278 48.1566V48.7324V49.3082C54.8506 49.3082 55.8116 49.7976 56.2753 50.5814L56.7709 50.2882ZM53.1278 48.7324V48.1566H49.4458V48.7324V49.3082H53.1278V48.7324ZM49.4458 48.7324H48.87V61.2045H49.4458H50.0216V48.7324H49.4458ZM49.4458 61.2045V61.7803H53.1278V61.2045V60.6286H49.4458V61.2045ZM53.1278 61.2045V61.7803C54.168 61.7803 55.0888 61.5223 55.8588 60.9777C56.6262 60.435 57.2009 59.638 57.6037 58.6309L57.0691 58.4171L56.5344 58.2032C56.194 59.0544 55.7401 59.6511 55.1938 60.0375C54.65 60.4221 53.9718 60.6286 53.1278 60.6286V61.2045ZM57.0691 58.4171L57.604 58.6301C58.0437 57.5262 58.2542 56.236 58.2542 54.774H57.6784H57.1026C57.1026 56.1296 56.9069 57.2681 56.5341 58.204L57.0691 58.4171ZM57.6784 54.774H58.2542C58.2542 52.7836 57.947 51.1713 57.2693 49.9998L56.7709 50.2882L56.2725 50.5765C56.8048 51.4967 57.1026 52.875 57.1026 54.774H57.6784ZM78.9883 56.1742V56.75H79.5641V56.1742H78.9883ZM69.7055 56.1742V55.5983H69.1297V56.1742H69.7055ZM69.7055 61.0878H69.1297V61.6636H69.7055V61.0878ZM80.2848 61.0878H80.8606V60.512H80.2848V61.0878ZM80.2848 64.5234V65.0993H80.8606V64.5234H80.2848ZM65.8032 64.5234H65.2273V65.0993H65.8032V64.5234ZM65.8032 45.4134V44.8376H65.2273V45.4134H65.8032ZM79.818 45.4134H80.3938V44.8376H79.818V45.4134ZM79.818 48.7972V49.3731H80.3938V48.7972H79.818ZM69.7055 48.7972V48.2214H69.1297V48.7972H69.7055ZM69.7055 52.8552H69.1297V53.431H69.7055V52.8552ZM78.9883 52.8552H79.5641V52.2794H78.9883V52.8552ZM78.9883 56.1742V55.5983H69.7055V56.1742V56.75H78.9883V56.1742ZM69.7055 56.1742H69.1297V61.0878H69.7055H70.2814V56.1742H69.7055ZM69.7055 61.0878V61.6636H80.2848V61.0878V60.512H69.7055V61.0878ZM80.2848 61.0878H79.7089V64.5234H80.2848H80.8606V61.0878H80.2848ZM80.2848 64.5234V63.9476H65.8032V64.5234V65.0993H80.2848V64.5234ZM65.8032 64.5234H66.379V45.4134H65.8032H65.2273V64.5234H65.8032ZM65.8032 45.4134V45.9893H79.818V45.4134V44.8376H65.8032V45.4134ZM79.818 45.4134H79.2422V48.7972H79.818H80.3938V45.4134H79.818ZM79.818 48.7972V48.2214H69.7055V48.7972V49.3731H79.818V48.7972ZM69.7055 48.7972H69.1297V52.8552H69.7055H70.2814V48.7972H69.7055ZM69.7055 52.8552V53.431H78.9883V52.8552V52.2794H69.7055V52.8552ZM78.9883 52.8552H78.4125V56.1742H78.9883H79.5641V52.8552H78.9883ZM88.3187 57.0298V56.454H87.7429V57.0298H88.3187ZM88.3187 64.5234V65.0993H88.8945V64.5234H88.3187ZM84.4163 64.5234H83.8405V65.0993H84.4163V64.5234ZM84.4163 45.4134V44.8376H83.8405V45.4134H84.4163ZM93.7898 45.4134L93.801 44.8376H93.7898V45.4134ZM96.8754 45.9061L96.6517 46.4367L96.654 46.4376L96.8754 45.9061ZM98.7164 47.2415L98.2783 47.6151L98.2792 47.6162L98.7164 47.2415ZM99.7018 48.8491L99.1693 49.0683L99.7018 48.8491ZM99.3776 53.5423L99.8875 53.8099L99.8886 53.8078L99.3776 53.5423ZM97.1088 55.3963L96.9214 54.8518L95.4611 55.3545L96.8941 55.9305L97.1088 55.3963ZM98.9757 56.9131L98.4717 57.1917L98.4762 57.1995L98.9757 56.9131ZM99.6369 62.9547L100.2 62.8361L100.199 62.8298L99.6369 62.9547ZM100.363 64.0437H100.939V63.7215L100.664 63.553L100.363 64.0437ZM100.363 64.5234V65.0993H100.939V64.5234H100.363ZM95.9679 64.5234L95.4142 64.6816L95.5336 65.0993H95.9679V64.5234ZM95.7086 63.4992L95.1433 63.6086L95.144 63.6122L95.7086 63.4992ZM95.5401 61.8527L94.9643 61.8611L94.9643 61.8616L95.5401 61.8527ZM95.5141 60.0765L94.9384 60.0847L94.9384 60.0849L95.5141 60.0765ZM94.84 57.6392L94.4414 58.0548L94.4456 58.0587L94.84 57.6392ZM94.8659 53.5553L94.6268 53.0315L94.6246 53.0325L94.8659 53.5553ZM94.9048 49.0695L94.6391 49.5804L94.6404 49.581L94.9048 49.0695ZM88.3187 48.7324V48.1566H87.7429V48.7324H88.3187ZM88.3187 53.8664H87.7429V54.4423H88.3187V53.8664ZM92.4415 57.0298V56.454H88.3187V57.0298V57.6056H92.4415V57.0298ZM88.3187 57.0298H87.7429V64.5234H88.3187H88.8945V57.0298H88.3187ZM88.3187 64.5234V63.9476H84.4163V64.5234V65.0993H88.3187V64.5234ZM84.4163 64.5234H84.9922V45.4134H84.4163H83.8405V64.5234H84.4163ZM84.4163 45.4134V45.9893H93.7898V45.4134V44.8376H84.4163V45.4134ZM93.7898 45.4134L93.7787 45.9891C95.0903 46.0145 96.0335 46.176 96.6517 46.4367L96.8754 45.9061L97.0992 45.3755C96.2827 45.0312 95.1687 44.8642 93.801 44.8377L93.7898 45.4134ZM96.8754 45.9061L96.654 46.4376C97.298 46.7059 97.8369 47.0976 98.2783 47.6151L98.7164 47.2415L99.1545 46.8678C98.5933 46.2098 97.905 45.7113 97.0969 45.3746L96.8754 45.9061ZM98.7164 47.2415L98.2792 47.6162C98.6544 48.0539 98.9507 48.5373 99.1693 49.0683L99.7018 48.8491L100.234 48.6298C99.9688 47.9854 99.6082 47.397 99.1536 46.8667L98.7164 47.2415ZM99.7018 48.8491L99.1693 49.0683C99.3779 49.575 99.4889 50.1684 99.4889 50.8586H100.065H100.641C100.641 50.045 100.51 49.2986 100.234 48.6298L99.7018 48.8491ZM100.065 50.8586H99.4889C99.4889 51.6652 99.2863 52.4693 98.8667 53.2768L99.3776 53.5423L99.8886 53.8078C100.385 52.8521 100.641 51.8671 100.641 50.8586H100.065ZM99.3776 53.5423L98.8678 53.2748C98.487 54.0003 97.8567 54.5298 96.9214 54.8518L97.1088 55.3963L97.2962 55.9407C98.4699 55.5367 99.3521 54.8302 99.8875 53.8099L99.3776 53.5423ZM97.1088 55.3963L96.8941 55.9305C97.6861 56.2489 98.1883 56.6788 98.4717 57.1917L98.9757 56.9131L99.4797 56.6346C99.0371 55.8337 98.2947 55.2524 97.3236 54.862L97.1088 55.3963ZM98.9757 56.9131L98.4762 57.1995C98.7723 57.716 98.9574 58.5874 98.9574 59.895H99.5332H100.109C100.109 58.5233 99.9225 57.4068 99.4753 56.6267L98.9757 56.9131ZM99.5332 59.895H98.9574V61.1785H99.5332H100.109V59.895H99.5332ZM99.5332 61.1785H98.9574C98.9574 62.045 98.99 62.6979 99.0748 63.0796L99.6369 62.9547L100.199 62.8298C100.146 62.5892 100.109 62.058 100.109 61.1785H99.5332ZM99.6369 62.9547L99.0735 63.0733C99.2052 63.6989 99.5287 64.2074 100.062 64.5345L100.363 64.0437L100.664 63.553C100.437 63.4133 100.276 63.1958 100.2 62.8361L99.6369 62.9547ZM100.363 64.0437H99.7871V64.5234H100.363H100.939V64.0437H100.363ZM100.363 64.5234V63.9476H95.9679V64.5234V65.0993H100.363V64.5234ZM95.9679 64.5234L96.5216 64.3652C96.4024 63.9483 96.3207 63.6237 96.2733 63.3863L95.7086 63.4992L95.144 63.6122C95.2002 63.8933 95.2914 64.2516 95.4142 64.6816L95.9679 64.5234ZM95.7086 63.4992L96.2739 63.3898C96.1768 62.888 96.124 62.3729 96.1158 61.8438L95.5401 61.8527L94.9643 61.8616C94.9735 62.4561 95.033 63.0387 95.1433 63.6086L95.7086 63.4992ZM95.5401 61.8527L96.1158 61.8443L96.0899 60.0681L95.5141 60.0765L94.9384 60.0849L94.9643 61.8611L95.5401 61.8527ZM95.5141 60.0765L96.0899 60.0684C96.0809 59.4297 96.0175 58.8691 95.8876 58.3997C95.7584 57.9324 95.5532 57.5193 95.2344 57.2196L94.84 57.6392L94.4456 58.0587C94.5589 58.1653 94.6822 58.3615 94.7777 58.7067C94.8725 59.0497 94.9302 59.5047 94.9384 60.0847L95.5141 60.0765ZM94.84 57.6392L95.2386 57.2236C94.6416 56.651 93.6371 56.454 92.4415 56.454V57.0298V57.6056C93.5969 57.6056 94.1914 57.8149 94.4414 58.0547L94.84 57.6392ZM94.8659 53.5553L95.105 54.0791C95.6069 53.85 96.0016 53.4979 96.2641 53.0241C96.5226 52.5578 96.6345 52.0076 96.6345 51.4031H96.0587H95.4828C95.4828 51.8704 95.396 52.2148 95.2568 52.4659C95.1218 52.7095 94.9201 52.8975 94.6268 53.0315L94.8659 53.5553ZM96.0587 51.4031H96.6345C96.6345 50.114 96.1946 49.0879 95.1692 48.558L94.9048 49.0695L94.6404 49.581C95.1535 49.8462 95.4828 50.3759 95.4828 51.4031H96.0587ZM94.9048 49.0695L95.1705 48.5586C94.6152 48.2699 93.8556 48.1566 92.9601 48.1566V48.7324V49.3082C93.7932 49.3082 94.3301 49.4197 94.6392 49.5804L94.9048 49.0695ZM92.9601 48.7324V48.1566H88.3187V48.7324V49.3082H92.9601V48.7324ZM88.3187 48.7324H87.7429V53.8664H88.3187H88.8945V48.7324H88.3187ZM88.3187 53.8664V54.4423H92.8434V53.8664V53.2906H88.3187V53.8664ZM92.8434 53.8664V54.4423C93.7685 54.4423 94.5434 54.3383 95.1072 54.0781L94.8659 53.5553L94.6246 53.0325C94.2896 53.1871 93.7161 53.2906 92.8434 53.2906V53.8664ZM113.674 61.4508L113.865 61.9938L113.867 61.9932L113.674 61.4508ZM114.516 57.7688L114.821 57.2805L114.816 57.2771L114.516 57.7688ZM111.91 56.8743L111.784 57.4361L111.787 57.4367L111.91 56.8743ZM109.888 56.4205L109.761 56.9821L109.762 56.9823L109.888 56.4205ZM105.765 54.9555L106.093 54.4822L106.09 54.4803L105.765 54.9555ZM116.331 46.4636L115.984 46.9229L115.987 46.9252L116.331 46.4636ZM118.574 51.1049V51.6808H119.17L119.15 51.0854L118.574 51.1049ZM114.737 51.1049L114.162 51.1395L114.194 51.6808H114.737V51.1049ZM113.233 48.6546L113.498 48.1434L113.496 48.1425L113.233 48.6546ZM108.436 52.0643L108.724 51.5657L108.716 51.5613L108.436 52.0643ZM110.925 52.8552L111.06 52.2953L111.058 52.295L110.925 52.8552ZM114.218 53.646L114.084 54.2059L114.084 54.206L114.218 53.646ZM117.485 55.0333L117.129 55.4855L117.129 55.4856L117.485 55.0333ZM117.187 63.2918L117.563 63.7276L117.564 63.7274L117.187 63.2918ZM105.661 63.3177L105.302 63.7674L105.303 63.7687L105.661 63.3177ZM103.522 58.6245V58.0487H102.946V58.6245H103.522ZM107.334 58.6245L107.904 58.5454L107.835 58.0487H107.334V58.6245ZM108.047 60.5822L107.602 60.9473L107.603 60.9484L108.047 60.5822ZM111.379 61.762V62.3378C112.356 62.3378 113.193 62.2311 113.865 61.9938L113.674 61.4508L113.482 60.9078C112.979 61.0854 112.286 61.1861 111.379 61.1861V61.762ZM113.674 61.4508L113.867 61.9932C114.501 61.767 115.025 61.4264 115.388 60.9451C115.754 60.4597 115.922 59.8775 115.922 59.2338H115.346H114.77C114.77 59.6706 114.66 59.998 114.468 60.2516C114.274 60.5093 113.961 60.737 113.48 60.9084L113.674 61.4508ZM115.346 59.2338H115.922C115.922 58.3963 115.536 57.7271 114.821 57.2805L114.516 57.7688L114.211 58.2571C114.603 58.5019 114.77 58.8095 114.77 59.2338H115.346ZM114.516 57.7688L114.816 57.2771C114.18 56.8894 113.236 56.575 112.034 56.3118L111.91 56.8743L111.787 57.4367C112.953 57.6921 113.747 57.9741 114.217 58.2605L114.516 57.7688ZM111.91 56.8743L112.036 56.3124L110.014 55.8586L109.888 56.4205L109.762 56.9823L111.784 57.4361L111.91 56.8743ZM109.888 56.4205L110.015 55.8588C108.033 55.4108 106.755 54.941 106.093 54.4822L105.765 54.9555L105.437 55.4287C106.296 56.0244 107.767 56.5313 109.761 56.9821L109.888 56.4205ZM105.765 54.9555L106.09 54.4803C104.992 53.7286 104.409 52.5491 104.409 50.8197H103.833H103.258C103.258 52.8415 103.962 54.4191 105.44 55.4306L105.765 54.9555ZM103.833 50.8197H104.409C104.409 49.2674 104.965 48.0013 106.088 46.9803L105.7 46.5543L105.313 46.1284C103.946 47.3719 103.258 48.9494 103.258 50.8197H103.833ZM105.7 46.5543L106.088 46.9803C107.188 45.9791 108.855 45.4318 111.184 45.4318V44.856V44.2801C108.691 44.2801 106.702 44.865 105.313 46.1284L105.7 46.5543ZM111.184 44.856V45.4318C113.09 45.4318 114.68 45.9367 115.984 46.9229L116.331 46.4636L116.679 46.0043C115.148 44.847 113.306 44.2801 111.184 44.2801V44.856ZM116.331 46.4636L115.987 46.9252C117.252 47.8681 117.935 49.2401 117.999 51.1245L118.574 51.1049L119.15 51.0854C119.076 48.9075 118.263 47.1853 116.675 46.0019L116.331 46.4636ZM118.574 51.1049V50.5291H114.737V51.1049V51.6808H118.574V51.1049ZM114.737 51.1049L115.311 51.0704C115.232 49.7418 114.631 48.731 113.498 48.1434L113.233 48.6546L112.968 49.1658C113.702 49.5463 114.104 50.1691 114.162 51.1395L114.737 51.1049ZM113.233 48.6546L113.496 48.1425C112.77 47.7696 111.9 47.5991 110.912 47.5991V48.1749V48.7507C111.774 48.7507 112.451 48.9001 112.97 49.1668L113.233 48.6546ZM110.912 48.1749V47.5991C109.812 47.5991 108.866 47.8204 108.126 48.3202L108.449 48.7972L108.771 49.2743C109.259 48.9443 109.955 48.7507 110.912 48.7507V48.1749ZM108.449 48.7972L108.126 48.3202C107.354 48.8426 106.952 49.6008 106.952 50.5345H107.528H108.104C108.104 49.9816 108.317 49.5816 108.771 49.2743L108.449 48.7972ZM107.528 50.5345H106.952C106.952 50.9634 107.048 51.3662 107.26 51.7229C107.471 52.0791 107.779 52.3577 108.156 52.5674L108.436 52.0643L108.716 51.5613C108.487 51.4339 108.342 51.289 108.25 51.1353C108.159 50.982 108.104 50.7884 108.104 50.5345H107.528ZM108.436 52.0643L108.148 52.5629C108.621 52.8364 109.534 53.1158 110.792 53.4153L110.925 52.8552L111.058 52.295C109.775 51.9895 109.028 51.7417 108.724 51.5658L108.436 52.0643ZM110.925 52.8552L110.791 53.4151L114.084 54.2059L114.218 53.646L114.353 53.0861L111.06 52.2953L110.925 52.8552ZM114.218 53.646L114.084 54.206C115.489 54.5425 116.487 54.9794 117.129 55.4855L117.485 55.0333L117.842 54.581C117.014 53.9289 115.834 53.441 114.352 53.0861L114.218 53.646ZM117.485 55.0333L117.129 55.4856C118.106 56.2558 118.621 57.3753 118.621 58.9356H119.197H119.772C119.772 57.0906 119.146 55.6085 117.842 54.581L117.485 55.0333ZM119.197 58.9356H118.621C118.621 60.5116 118.026 61.8056 116.81 62.8562L117.187 63.2918L117.564 63.7274C119.028 62.4616 119.772 60.8515 119.772 58.9356H119.197ZM117.187 63.2918L116.811 62.856C115.618 63.8856 113.887 64.4403 111.534 64.4403V65.0161V65.5919C114.057 65.5919 116.094 64.997 117.563 63.7276L117.187 63.2918ZM111.534 65.0161V64.4403C109.128 64.4403 107.312 63.893 106.019 62.8667L105.661 63.3177L105.303 63.7687C106.863 65.007 108.962 65.5919 111.534 65.5919V65.0161ZM105.661 63.3177L106.021 62.8681C104.745 61.8471 104.098 60.4552 104.098 58.6245H103.522H102.946C102.946 60.7696 103.726 62.5066 105.302 63.7674L105.661 63.3177ZM103.522 58.6245V59.2003H107.334V58.6245V58.0487H103.522V58.6245ZM107.334 58.6245L106.763 58.7035C106.891 59.6263 107.152 60.3986 107.602 60.9473L108.047 60.5822L108.492 60.217C108.233 59.9014 108.018 59.3686 107.904 58.5454L107.334 58.6245ZM108.047 60.5822L107.603 60.9484C108.409 61.9263 109.728 62.3378 111.379 62.3378V61.762V61.1861C109.884 61.1861 108.982 60.8111 108.491 60.2159L108.047 60.5822Z" fill="white" mask="url(#path-11-outside-2_260_140)"/>
<mask id="path-13-outside-3_260_140" maskUnits="userSpaceOnUse" x="24.1797" y="43.8281" width="9" height="21" fill="black">
<rect fill="white" x="24.1797" y="43.8281" width="9" height="21"/>
<path d="M28.3881 63.138C27.657 62.583 27.2915 61.7775 27.2915 60.7216V57.5437C27.2915 56.6908 27.0343 56.0376 26.5199 55.5841C26.2085 55.3066 25.7618 55.0866 25.1797 54.9242V53.6957C25.8363 53.4723 26.2999 53.2252 26.5707 52.9545C27.0512 52.4874 27.2915 51.7733 27.2915 50.8122V48.0911C27.2915 47.7459 27.3491 47.3838 27.4641 47.0048C27.6672 46.3482 28.0124 45.827 28.4997 45.4412C28.9465 45.0892 29.4711 44.8557 30.0735 44.7406C30.439 44.6662 30.9636 44.6256 31.6472 44.6188V46.2331C31.0854 46.355 30.703 46.5174 30.4999 46.7205C30.1885 47.0318 30.0329 47.5767 30.0329 48.3551V50.7106C30.0329 51.4687 29.9313 52.0712 29.7283 52.5179C29.3831 53.2692 28.7062 53.8784 27.6977 54.3455C28.6114 54.7177 29.224 55.1509 29.5354 55.645C29.8535 56.1392 30.0193 56.8228 30.0329 57.696V60.2647C30.0329 61.016 30.2156 61.5575 30.5811 61.8892C30.7842 62.0855 31.1396 62.2581 31.6472 62.407V64.0214L30.9263 64.001C29.9584 63.974 29.1123 63.6863 28.3881 63.138Z"/>
</mask>
<path d="M28.3881 63.138C27.657 62.583 27.2915 61.7775 27.2915 60.7216V57.5437C27.2915 56.6908 27.0343 56.0376 26.5199 55.5841C26.2085 55.3066 25.7618 55.0866 25.1797 54.9242V53.6957C25.8363 53.4723 26.2999 53.2252 26.5707 52.9545C27.0512 52.4874 27.2915 51.7733 27.2915 50.8122V48.0911C27.2915 47.7459 27.3491 47.3838 27.4641 47.0048C27.6672 46.3482 28.0124 45.827 28.4997 45.4412C28.9465 45.0892 29.4711 44.8557 30.0735 44.7406C30.439 44.6662 30.9636 44.6256 31.6472 44.6188V46.2331C31.0854 46.355 30.703 46.5174 30.4999 46.7205C30.1885 47.0318 30.0329 47.5767 30.0329 48.3551V50.7106C30.0329 51.4687 29.9313 52.0712 29.7283 52.5179C29.3831 53.2692 28.7062 53.8784 27.6977 54.3455C28.6114 54.7177 29.224 55.1509 29.5354 55.645C29.8535 56.1392 30.0193 56.8228 30.0329 57.696V60.2647C30.0329 61.016 30.2156 61.5575 30.5811 61.8892C30.7842 62.0855 31.1396 62.2581 31.6472 62.407V64.0214L30.9263 64.001C29.9584 63.974 29.1123 63.6863 28.3881 63.138Z" fill="#FF8000"/>
<path d="M28.3881 63.138L28.0012 63.6476L28.0019 63.6482L28.3881 63.138ZM26.5199 55.5841L26.0942 56.0618L26.0968 56.0641L26.5199 55.5841ZM25.1797 54.9242H24.5399V55.4099L25.0077 55.5404L25.1797 54.9242ZM25.1797 53.6957L24.9736 53.0899L24.5399 53.2375V53.6957H25.1797ZM26.5707 52.9545L26.1247 52.4956L26.1183 52.5021L26.5707 52.9545ZM27.4641 47.0048L26.8529 46.8157L26.8519 46.8189L27.4641 47.0048ZM28.4997 45.4412L28.1038 44.9386L28.1026 44.9396L28.4997 45.4412ZM30.0735 44.7406L30.1935 45.3691L30.2012 45.3676L30.0735 44.7406ZM31.6472 44.6188H32.287V43.9726L31.6409 43.979L31.6472 44.6188ZM31.6472 46.2331L31.7828 46.8584L32.287 46.7491V46.2331H31.6472ZM30.4999 46.7205L30.0475 46.2681L30.4999 46.7205ZM29.7283 52.5179L30.3097 52.785L30.3107 52.7826L29.7283 52.5179ZM27.6977 54.3455L27.4288 53.7649L26.094 54.383L27.4563 54.938L27.6977 54.3455ZM29.5354 55.645L28.994 55.9862L28.9974 55.9914L29.5354 55.645ZM30.0329 57.696H30.6727L30.6726 57.6861L30.0329 57.696ZM30.5811 61.8892L31.0258 61.4292L31.0186 61.4222L31.0111 61.4154L30.5811 61.8892ZM31.6472 62.407H32.287V61.9279L31.8273 61.7931L31.6472 62.407ZM31.6472 64.0214L31.6292 64.6609L32.287 64.6794V64.0214H31.6472ZM30.9263 64.001L30.9444 63.3615L30.9442 63.3615L30.9263 64.001ZM28.3881 63.138L28.775 62.6285C28.2287 62.2137 27.9313 61.6117 27.9313 60.7216H27.2915H26.6517C26.6517 61.9434 27.0854 62.9523 28.0012 63.6476L28.3881 63.138ZM27.2915 60.7216H27.9313V57.5437H27.2915H26.6517V60.7216H27.2915ZM27.2915 57.5437H27.9313C27.9313 56.5555 27.6277 55.7078 26.943 55.1042L26.5199 55.5841L26.0968 56.0641C26.4409 56.3674 26.6517 56.8262 26.6517 57.5437H27.2915ZM26.5199 55.5841L26.9456 55.1065C26.5361 54.7415 25.9887 54.4857 25.3517 54.3079L25.1797 54.9242L25.0077 55.5404C25.5349 55.6876 25.8809 55.8717 26.0942 56.0618L26.5199 55.5841ZM25.1797 54.9242H25.8195V53.6957H25.1797H24.5399V54.9242H25.1797ZM25.1797 53.6957L25.3858 54.3014C26.0715 54.0681 26.6475 53.7825 27.0231 53.4069L26.5707 52.9545L26.1183 52.5021C25.9523 52.668 25.601 52.8765 24.9736 53.0899L25.1797 53.6957ZM26.5707 52.9545L27.0166 53.4133C27.6666 52.7816 27.9313 51.8704 27.9313 50.8122H27.2915H26.6517C26.6517 51.6763 26.4359 52.1933 26.1248 52.4957L26.5707 52.9545ZM27.2915 50.8122H27.9313V48.0911H27.2915H26.6517V50.8122H27.2915ZM27.2915 48.0911H27.9313C27.9313 47.8174 27.9769 47.5181 28.0763 47.1906L27.4641 47.0048L26.8519 46.8189C26.7212 47.2495 26.6517 47.6745 26.6517 48.0911H27.2915ZM27.4641 47.0048L28.0754 47.1938C28.2445 46.6471 28.5214 46.24 28.8969 45.9428L28.4997 45.4412L28.1026 44.9396C27.5034 45.414 27.0899 46.0493 26.8529 46.8157L27.4641 47.0048ZM28.4997 45.4412L28.8957 45.9437C29.2557 45.6601 29.6837 45.4664 30.1935 45.3691L30.0735 44.7406L29.9534 44.1122C29.2584 44.245 28.6373 44.5183 28.1038 44.9386L28.4997 45.4412ZM30.0735 44.7406L30.2012 45.3676C30.5066 45.3053 30.983 45.2652 31.6535 45.2586L31.6472 44.6188L31.6409 43.979C30.9441 43.9859 30.3714 44.027 29.9458 44.1137L30.0735 44.7406ZM31.6472 44.6188H31.0074V46.2331H31.6472H32.287V44.6188H31.6472ZM31.6472 46.2331L31.5116 45.6079C30.9288 45.7343 30.3886 45.927 30.0475 46.2681L30.4999 46.7205L30.9523 47.1729C31.0174 47.1078 31.242 46.9757 31.7828 46.8584L31.6472 46.2331ZM30.4999 46.7205L30.0475 46.2681C29.5519 46.7636 29.3931 47.527 29.3931 48.3551H30.0329H30.6727C30.6727 47.6264 30.8252 47.3 30.9523 47.1729L30.4999 46.7205ZM30.0329 48.3551H29.3931V50.7106H30.0329H30.6727V48.3551H30.0329ZM30.0329 50.7106H29.3931C29.3931 51.4222 29.2961 51.9224 29.1458 52.2531L29.7283 52.5179L30.3107 52.7826C30.5665 52.2199 30.6727 51.5153 30.6727 50.7106H30.0329ZM29.7283 52.5179L29.1469 52.2508C28.8843 52.8224 28.3471 53.3396 27.4288 53.7649L27.6977 54.3455L27.9665 54.926C29.0653 54.4172 29.8819 53.7161 30.3096 52.785L29.7283 52.5179ZM27.6977 54.3455L27.4563 54.938C28.3231 55.2911 28.7881 55.6594 28.9941 55.9861L29.5354 55.645L30.0767 55.304C29.6599 54.6425 28.8998 54.1444 27.9391 53.7529L27.6977 54.3455ZM29.5354 55.645L28.9974 55.9914C29.2267 56.3475 29.3806 56.8979 29.3931 57.7059L30.0329 57.696L30.6726 57.6861C30.658 56.7477 30.4803 55.9308 30.0733 55.2987L29.5354 55.645ZM30.0329 57.696H29.3931V60.2647H30.0329H30.6727V57.696H30.0329ZM30.0329 60.2647H29.3931C29.3931 61.1025 29.5955 61.8587 30.1512 62.363L30.5811 61.8892L31.0111 61.4154C30.8358 61.2563 30.6727 60.9296 30.6727 60.2647H30.0329ZM30.5811 61.8892L30.1365 62.3492C30.454 62.6561 30.9326 62.8642 31.4671 63.0209L31.6472 62.407L31.8273 61.7931C31.3465 61.652 31.1144 61.5149 31.0258 61.4292L30.5811 61.8892ZM31.6472 62.407H31.0074V64.0214H31.6472H32.287V62.407H31.6472ZM31.6472 64.0214L31.6652 63.3818L30.9444 63.3615L30.9263 64.001L30.9083 64.6406L31.6292 64.6609L31.6472 64.0214ZM30.9263 64.001L30.9442 63.3615C30.1002 63.3379 29.385 63.0903 28.7742 62.6279L28.3881 63.138L28.0019 63.6482C28.8396 64.2823 29.8166 64.6101 30.9084 64.6406L30.9263 64.001Z" fill="#FF8000" mask="url(#path-13-outside-3_260_140)"/>
<mask id="path-15-outside-4_260_140" maskUnits="userSpaceOnUse" x="33.8125" y="43.8281" width="9" height="21" fill="black">
<rect fill="white" x="33.8125" y="43.8281" width="9" height="21"/>
<path d="M38.6041 63.138C39.3351 62.583 39.7007 61.7775 39.7007 60.7216V57.5437C39.7007 56.6908 39.9579 56.0376 40.4723 55.5841C40.7837 55.3066 41.2304 55.0866 41.8125 54.9242V53.6957C41.1559 53.4723 40.6923 53.2252 40.4215 52.9545C39.9409 52.4874 39.7007 51.7733 39.7007 50.8122V48.0911C39.7007 47.7459 39.6431 47.3838 39.5281 47.0048C39.325 46.3482 38.9798 45.827 38.4924 45.4412C38.0457 45.0892 37.5211 44.8557 36.9187 44.7406C36.5532 44.6662 36.0286 44.6256 35.345 44.6188V46.2331C35.9068 46.355 36.2892 46.5174 36.4923 46.7205C36.8036 47.0318 36.9593 47.5767 36.9593 48.3551V50.7106C36.9593 51.4687 37.0609 52.0712 37.2639 52.5179C37.6091 53.2692 38.286 53.8784 39.2945 54.3455C38.3808 54.7177 37.7682 55.1509 37.4568 55.645C37.1387 56.1392 36.9729 56.8228 36.9593 57.696V60.2647C36.9593 61.016 36.7766 61.5575 36.4111 61.8892C36.208 62.0855 35.8526 62.2581 35.345 62.407V64.0214L36.0658 64.001C37.0338 63.974 37.8799 63.6863 38.6041 63.138Z"/>
</mask>
<path d="M38.6041 63.138C39.3351 62.583 39.7007 61.7775 39.7007 60.7216V57.5437C39.7007 56.6908 39.9579 56.0376 40.4723 55.5841C40.7837 55.3066 41.2304 55.0866 41.8125 54.9242V53.6957C41.1559 53.4723 40.6923 53.2252 40.4215 52.9545C39.9409 52.4874 39.7007 51.7733 39.7007 50.8122V48.0911C39.7007 47.7459 39.6431 47.3838 39.5281 47.0048C39.325 46.3482 38.9798 45.827 38.4924 45.4412C38.0457 45.0892 37.5211 44.8557 36.9187 44.7406C36.5532 44.6662 36.0286 44.6256 35.345 44.6188V46.2331C35.9068 46.355 36.2892 46.5174 36.4923 46.7205C36.8036 47.0318 36.9593 47.5767 36.9593 48.3551V50.7106C36.9593 51.4687 37.0609 52.0712 37.2639 52.5179C37.6091 53.2692 38.286 53.8784 39.2945 54.3455C38.3808 54.7177 37.7682 55.1509 37.4568 55.645C37.1387 56.1392 36.9729 56.8228 36.9593 57.696V60.2647C36.9593 61.016 36.7766 61.5575 36.4111 61.8892C36.208 62.0855 35.8526 62.2581 35.345 62.407V64.0214L36.0658 64.001C37.0338 63.974 37.8799 63.6863 38.6041 63.138Z" fill="#FF8000"/>
<path d="M38.6041 63.138L38.991 63.6476L38.9903 63.6482L38.6041 63.138ZM40.4723 55.5841L40.898 56.0618L40.8954 56.0641L40.4723 55.5841ZM41.8125 54.9242H42.4523V55.4099L41.9845 55.5404L41.8125 54.9242ZM41.8125 53.6957L42.0186 53.0899L42.4523 53.2375V53.6957H41.8125ZM40.4215 52.9545L40.8675 52.4956L40.8739 52.5021L40.4215 52.9545ZM39.5281 47.0048L40.1393 46.8157L40.1403 46.8189L39.5281 47.0048ZM38.4924 45.4412L38.8884 44.9386L38.8896 44.9396L38.4924 45.4412ZM36.9187 44.7406L36.7987 45.3691L36.791 45.3676L36.9187 44.7406ZM35.345 44.6188H34.7052V43.9726L35.3513 43.979L35.345 44.6188ZM35.345 46.2331L35.2094 46.8584L34.7052 46.7491V46.2331H35.345ZM36.4923 46.7205L36.9447 46.2681L36.4923 46.7205ZM37.2639 52.5179L36.6825 52.785L36.6815 52.7826L37.2639 52.5179ZM39.2945 54.3455L39.5634 53.7649L40.8981 54.383L39.5359 54.938L39.2945 54.3455ZM37.4568 55.645L37.9981 55.9862L37.9948 55.9914L37.4568 55.645ZM36.9593 57.696H36.3194L36.3196 57.6861L36.9593 57.696ZM36.4111 61.8892L35.9664 61.4292L35.9736 61.4222L35.9811 61.4154L36.4111 61.8892ZM35.345 62.407H34.7052V61.9279L35.1649 61.7931L35.345 62.407ZM35.345 64.0214L35.363 64.6609L34.7052 64.6794V64.0214H35.345ZM36.0658 64.001L36.0478 63.3615L36.048 63.3615L36.0658 64.001ZM38.6041 63.138L38.2172 62.6285C38.7635 62.2137 39.0609 61.6117 39.0609 60.7216H39.7007H40.3405C40.3405 61.9434 39.9068 62.9523 38.991 63.6476L38.6041 63.138ZM39.7007 60.7216H39.0609V57.5437H39.7007H40.3405V60.7216H39.7007ZM39.7007 57.5437H39.0609C39.0609 56.5555 39.3645 55.7078 40.0492 55.1042L40.4723 55.5841L40.8954 56.0641C40.5513 56.3674 40.3405 56.8262 40.3405 57.5437H39.7007ZM40.4723 55.5841L40.0466 55.1065C40.4561 54.7415 41.0035 54.4857 41.6405 54.3079L41.8125 54.9242L41.9845 55.5404C41.4573 55.6876 41.1112 55.8717 40.898 56.0618L40.4723 55.5841ZM41.8125 54.9242H41.1727V53.6957H41.8125H42.4523V54.9242H41.8125ZM41.8125 53.6957L41.6064 54.3014C40.9207 54.0681 40.3447 53.7825 39.9691 53.4069L40.4215 52.9545L40.8739 52.5021C41.0399 52.668 41.3912 52.8765 42.0186 53.0899L41.8125 53.6957ZM40.4215 52.9545L39.9756 53.4133C39.3256 52.7816 39.0609 51.8704 39.0609 50.8122H39.7007H40.3405C40.3405 51.6763 40.5563 52.1933 40.8674 52.4957L40.4215 52.9545ZM39.7007 50.8122H39.0609V48.0911H39.7007H40.3405V50.8122H39.7007ZM39.7007 48.0911H39.0609C39.0609 47.8174 39.0153 47.5181 38.9158 47.1906L39.5281 47.0048L40.1403 46.8189C40.271 47.2495 40.3405 47.6745 40.3405 48.0911H39.7007ZM39.5281 47.0048L38.9168 47.1938C38.7477 46.6471 38.4707 46.24 38.0953 45.9428L38.4924 45.4412L38.8896 44.9396C39.4888 45.414 39.9023 46.0493 40.1393 46.8157L39.5281 47.0048ZM38.4924 45.4412L38.0965 45.9437C37.7365 45.6601 37.3084 45.4664 36.7987 45.3691L36.9187 44.7406L37.0387 44.1122C37.7338 44.245 38.3549 44.5183 38.8884 44.9386L38.4924 45.4412ZM36.9187 44.7406L36.791 45.3676C36.4856 45.3053 36.0092 45.2652 35.3386 45.2586L35.345 44.6188L35.3513 43.979C36.0481 43.9859 36.6208 44.027 37.0464 44.1137L36.9187 44.7406ZM35.345 44.6188H35.9848V46.2331H35.345H34.7052V44.6188H35.345ZM35.345 46.2331L35.4806 45.6079C36.0634 45.7343 36.6036 45.927 36.9447 46.2681L36.4923 46.7205L36.0399 47.1729C35.9748 47.1078 35.7502 46.9757 35.2094 46.8584L35.345 46.2331ZM36.4923 46.7205L36.9447 46.2681C37.4403 46.7636 37.5991 47.527 37.5991 48.3551H36.9593H36.3195C36.3195 47.6264 36.167 47.3 36.0399 47.1729L36.4923 46.7205ZM36.9593 48.3551H37.5991V50.7106H36.9593H36.3195V48.3551H36.9593ZM36.9593 50.7106H37.5991C37.5991 51.4222 37.696 51.9224 37.8464 52.2531L37.2639 52.5179L36.6815 52.7826C36.4257 52.2199 36.3195 51.5153 36.3195 50.7106H36.9593ZM37.2639 52.5179L37.8453 52.2508C38.1079 52.8224 38.6451 53.3396 39.5634 53.7649L39.2945 54.3455L39.0257 54.926C37.9269 54.4172 37.1103 53.7161 36.6825 52.785L37.2639 52.5179ZM39.2945 54.3455L39.5359 54.938C38.6691 55.2911 38.204 55.6594 37.9981 55.9861L37.4568 55.645L36.9155 55.304C37.3323 54.6425 38.0924 54.1444 39.0531 53.7529L39.2945 54.3455ZM37.4568 55.645L37.9948 55.9914C37.7655 56.3475 37.6116 56.8979 37.599 57.7059L36.9593 57.696L36.3196 57.6861C36.3341 56.7477 36.5119 55.9308 36.9189 55.2987L37.4568 55.645ZM36.9593 57.696H37.5991V60.2647H36.9593H36.3195V57.696H36.9593ZM36.9593 60.2647H37.5991C37.5991 61.1025 37.3967 61.8587 36.841 62.363L36.4111 61.8892L35.9811 61.4154C36.1564 61.2563 36.3195 60.9296 36.3195 60.2647H36.9593ZM36.4111 61.8892L36.8557 62.3492C36.5382 62.6561 36.0596 62.8642 35.5251 63.0209L35.345 62.407L35.1649 61.7931C35.6457 61.652 35.8778 61.5149 35.9664 61.4292L36.4111 61.8892ZM35.345 62.407H35.9848V64.0214H35.345H34.7052V62.407H35.345ZM35.345 64.0214L35.327 63.3818L36.0478 63.3615L36.0658 64.001L36.0839 64.6406L35.363 64.6609L35.345 64.0214ZM36.0658 64.001L36.048 63.3615C36.8919 63.3379 37.6072 63.0903 38.218 62.6279L38.6041 63.138L38.9903 63.6482C38.1526 64.2823 37.1756 64.6101 36.0837 64.6406L36.0658 64.001Z" fill="#FF8000" mask="url(#path-15-outside-4_260_140)"/>
<path d="M7.7655 71.8652C8.16788 71.8652 8.48547 71.7847 8.71827 71.6238C8.95395 71.4628 9.07178 71.1725 9.07178 70.7529C9.07178 70.3017 8.90796 69.9941 8.58031 69.8303C8.40499 69.7441 8.17075 69.701 7.87759 69.701H5.78237V71.8652H7.7655ZM4.92445 68.9638H7.85604C8.33889 68.9638 8.73695 69.0342 9.05023 69.175C9.64517 69.4452 9.94264 69.9438 9.94264 70.671C9.94264 71.0504 9.8636 71.3608 9.70552 71.6022C9.55032 71.8436 9.33189 72.0376 9.05023 72.1842C9.2974 72.2848 9.48278 72.417 9.60637 72.5808C9.73283 72.7447 9.80324 73.0105 9.81761 73.3784L9.84779 74.2277C9.85641 74.4691 9.87653 74.6488 9.90815 74.7666C9.95988 74.9678 10.0519 75.0971 10.1841 75.1546V75.2969H9.13214C9.1034 75.2423 9.08041 75.1719 9.06316 75.0856C9.04592 74.9994 9.03155 74.8327 9.02005 74.5855L8.96832 73.5293C8.9482 73.1154 8.79443 72.8381 8.50702 72.6972C8.3432 72.6196 8.08596 72.5808 7.73532 72.5808H5.78237V75.2969H4.92445V68.9638ZM11.098 70.7012H11.887V75.2969H11.098V70.7012ZM11.098 68.9638H11.887V69.8433H11.098V68.9638ZM14.6935 70.5977C15.0557 70.5977 15.3718 70.6868 15.642 70.865C15.7886 70.9656 15.938 71.1122 16.0904 71.3047V70.7227H16.806V74.9218C16.806 75.5081 16.7198 75.9709 16.5473 76.31C16.2254 76.9366 15.6176 77.2498 14.7237 77.2498C14.2265 77.2498 13.8083 77.1377 13.4692 76.9136C13.13 76.6923 12.9403 76.3445 12.9001 75.8703H13.689C13.7264 76.0772 13.8011 76.2367 13.9132 76.3488C14.0885 76.5212 14.3645 76.6075 14.741 76.6075C15.3359 76.6075 15.7253 76.3977 15.9093 75.978C16.0185 75.7309 16.0688 75.2897 16.0602 74.6545C15.905 74.8902 15.7182 75.0655 15.4997 75.1805C15.2813 75.2954 14.9924 75.3529 14.6332 75.3529C14.1331 75.3529 13.6948 75.1762 13.3183 74.8226C12.9446 74.4663 12.7578 73.8785 12.7578 73.0594C12.7578 72.2862 12.9461 71.6827 13.3226 71.2487C13.702 70.8147 14.159 70.5977 14.6935 70.5977ZM16.0904 72.9688C16.0904 72.3969 15.9725 71.973 15.7368 71.6971C15.5012 71.4211 15.2008 71.2832 14.8358 71.2832C14.2897 71.2832 13.9161 71.539 13.7149 72.0506C13.6086 72.3236 13.5554 72.6814 13.5554 73.124C13.5554 73.6443 13.6603 74.0409 13.8701 74.3139C14.0828 74.5841 14.3673 74.7192 14.7237 74.7192C15.2813 74.7192 15.6736 74.4677 15.9007 73.9647C16.0271 73.6802 16.0904 73.3482 16.0904 72.9688ZM17.9786 68.9422H18.7547V71.3047C18.9386 71.0719 19.1039 70.9081 19.2504 70.8133C19.5005 70.6494 19.8123 70.5675 20.186 70.5675C20.8556 70.5675 21.3097 70.8018 21.5483 71.2703C21.6776 71.526 21.7423 71.881 21.7423 72.3351V75.2969H20.9447V72.3868C20.9447 72.0477 20.9016 71.7991 20.8154 71.641C20.6746 71.3881 20.4101 71.2616 20.0221 71.2616C19.7002 71.2616 19.4085 71.3723 19.147 71.5936C18.8854 71.8149 18.7547 72.2331 18.7547 72.8481V75.2969H17.9786V68.9422ZM23.0486 69.3906H23.8332V70.6796H24.5704V71.3134H23.8332V74.3269C23.8332 74.4878 23.8878 74.5956 23.997 74.6502C24.0574 74.6818 24.158 74.6976 24.2988 74.6976C24.3362 74.6976 24.3764 74.6976 24.4195 74.6976C24.4626 74.6947 24.5129 74.6904 24.5704 74.6847V75.2969C24.4813 75.3227 24.3879 75.3414 24.2902 75.3529C24.1953 75.3644 24.0919 75.3702 23.9798 75.3702C23.6176 75.3702 23.3719 75.2782 23.2426 75.0943C23.1132 74.9074 23.0486 74.666 23.0486 74.37V71.3134H22.4234V70.6796H23.0486V69.3906ZM70.092 71.641C70.4541 71.641 70.7358 71.5907 70.9369 71.4901C71.2531 71.332 71.4112 71.0475 71.4112 70.6365C71.4112 70.2226 71.243 69.9438 70.9068 69.8001C70.7171 69.7197 70.4354 69.6794 70.0618 69.6794H68.5313V71.641H70.092ZM70.3808 74.564C70.9068 74.564 71.2818 74.4116 71.506 74.107C71.6469 73.9144 71.7173 73.6816 71.7173 73.4086C71.7173 72.9487 71.5118 72.6355 71.1008 72.4688C70.8823 72.3797 70.5935 72.3351 70.2342 72.3351H68.5313V74.564H70.3808ZM67.6906 68.9638H70.411C71.1525 68.9638 71.6799 69.1851 71.9932 69.6277C72.1771 69.8892 72.2691 70.191 72.2691 70.533C72.2691 70.9325 72.1556 71.2602 71.9285 71.516C71.8107 71.6511 71.6411 71.7747 71.4198 71.8867C71.7446 72.0103 71.9874 72.1497 72.1484 72.3049C72.4329 72.5808 72.5752 72.9617 72.5752 73.4474C72.5752 73.8555 72.4473 74.2248 72.1915 74.5554C71.8092 75.0497 71.2014 75.2969 70.3679 75.2969H67.6906V68.9638ZM73.5193 70.6796H74.2565V71.4772C74.3169 71.322 74.4649 71.1337 74.7006 70.9124C74.9363 70.6882 75.2079 70.5762 75.5154 70.5762C75.5298 70.5762 75.5542 70.5776 75.5887 70.5805C75.6232 70.5833 75.6821 70.5891 75.7654 70.5977V71.4168C75.7195 71.4082 75.6763 71.4025 75.6361 71.3996C75.5987 71.3967 75.5571 71.3953 75.5111 71.3953C75.1202 71.3953 74.8199 71.5217 74.6101 71.7747C74.4002 72.0247 74.2953 72.3136 74.2953 72.6412V75.2969H73.5193V70.6796ZM76.438 70.7012H77.2269V75.2969H76.438V70.7012ZM76.438 68.9638H77.2269V69.8433H76.438V68.9638ZM80.0335 70.5977C80.3956 70.5977 80.7118 70.6868 80.982 70.865C81.1285 70.9656 81.278 71.1122 81.4303 71.3047V70.7227H82.146V74.9218C82.146 75.5081 82.0597 75.9709 81.8873 76.31C81.5654 76.9366 80.9575 77.2498 80.0637 77.2498C79.5665 77.2498 79.1483 77.1377 78.8091 76.9136C78.47 76.6923 78.2803 76.3445 78.2401 75.8703H79.029C79.0664 76.0772 79.1411 76.2367 79.2532 76.3488C79.4285 76.5212 79.7044 76.6075 80.0809 76.6075C80.6759 76.6075 81.0653 76.3977 81.2492 75.978C81.3585 75.7309 81.4088 75.2897 81.4001 74.6545C81.2449 74.8902 81.0581 75.0655 80.8397 75.1805C80.6213 75.2954 80.3324 75.3529 79.9731 75.3529C79.473 75.3529 79.0347 75.1762 78.6582 74.8226C78.2846 74.4663 78.0978 73.8785 78.0978 73.0594C78.0978 72.2862 78.286 71.6827 78.6626 71.2487C79.0419 70.8147 79.4989 70.5977 80.0335 70.5977ZM81.4303 72.9688C81.4303 72.3969 81.3125 71.973 81.0768 71.6971C80.8411 71.4211 80.5408 71.2832 80.1758 71.2832C79.6297 71.2832 79.2561 71.539 79.0549 72.0506C78.9485 72.3236 78.8954 72.6814 78.8954 73.124C78.8954 73.6443 79.0003 74.0409 79.2101 74.3139C79.4228 74.5841 79.7073 74.7192 80.0637 74.7192C80.6213 74.7192 81.0136 74.4677 81.2406 73.9647C81.3671 73.6802 81.4303 73.3482 81.4303 72.9688ZM83.3186 68.9422H84.0946V71.3047C84.2786 71.0719 84.4438 70.9081 84.5904 70.8133C84.8404 70.6494 85.1523 70.5675 85.5259 70.5675C86.1956 70.5675 86.6497 70.8018 86.8882 71.2703C87.0176 71.526 87.0822 71.881 87.0822 72.3351V75.2969H86.2847V72.3868C86.2847 72.0477 86.2416 71.7991 86.1553 71.641C86.0145 71.3881 85.7501 71.2616 85.3621 71.2616C85.0402 71.2616 84.7485 71.3723 84.4869 71.5936C84.2254 71.8149 84.0946 72.2331 84.0946 72.8481V75.2969H83.3186V68.9422ZM88.3885 69.3906H89.1732V70.6796H89.9104V71.3134H89.1732V74.3269C89.1732 74.4878 89.2278 74.5956 89.337 74.6502C89.3973 74.6818 89.4979 74.6976 89.6388 74.6976C89.6761 74.6976 89.7164 74.6976 89.7595 74.6976C89.8026 74.6947 89.8529 74.6904 89.9104 74.6847V75.2969C89.8213 75.3227 89.7279 75.3414 89.6301 75.3529C89.5353 75.3644 89.4318 75.3702 89.3197 75.3702C88.9576 75.3702 88.7119 75.2782 88.5825 75.0943C88.4532 74.9074 88.3885 74.666 88.3885 74.37V71.3134H87.7634V70.6796H88.3885V69.3906Z" fill="#FF8000"/>
<path d="M29.7567 74.7752C30.1189 74.7752 30.4192 74.6243 30.6578 74.3226C30.8992 74.0179 31.0199 73.5638 31.0199 72.9602C31.0199 72.5923 30.9667 72.2762 30.8604 72.0118C30.6592 71.5031 30.2913 71.2487 29.7567 71.2487C29.2193 71.2487 28.8514 71.5174 28.6531 72.0549C28.5467 72.3423 28.4936 72.7073 28.4936 73.1499C28.4936 73.5063 28.5467 73.8095 28.6531 74.0596C28.8543 74.5367 29.2222 74.7752 29.7567 74.7752ZM27.7477 70.7012H28.5022V71.3134C28.6574 71.1036 28.827 70.9412 29.0109 70.8262C29.2724 70.6538 29.58 70.5675 29.9335 70.5675C30.4566 70.5675 30.9006 70.7687 31.2656 71.1711C31.6307 71.5706 31.8132 72.1425 31.8132 72.8869C31.8132 73.8929 31.5502 74.6114 31.0242 75.0425C30.6908 75.3156 30.3028 75.4521 29.8602 75.4521C29.5124 75.4521 29.2207 75.3759 28.985 75.2236C28.8471 75.1374 28.6933 74.9893 28.5237 74.7795V77.1377H27.7477V70.7012ZM33.3178 74.0682C33.3178 74.2924 33.3997 74.4691 33.5635 74.5985C33.7273 74.7278 33.9213 74.7925 34.1455 74.7925C34.4185 74.7925 34.683 74.7292 34.9388 74.6028C35.3699 74.393 35.5854 74.0495 35.5854 73.5724V72.9473C35.4906 73.0076 35.3684 73.0579 35.219 73.0982C35.0695 73.1384 34.9229 73.1672 34.7792 73.1844L34.3093 73.2448C34.0277 73.2821 33.8164 73.341 33.6756 73.4215C33.437 73.5566 33.3178 73.7722 33.3178 74.0682ZM35.1974 72.4989C35.3756 72.4759 35.4949 72.4012 35.5552 72.2748C35.5897 72.2058 35.607 72.1066 35.607 71.9773C35.607 71.7129 35.5121 71.5217 35.3224 71.4039C35.1356 71.2832 34.8669 71.2228 34.5163 71.2228C34.111 71.2228 33.8236 71.332 33.654 71.5505C33.5592 71.6712 33.4974 71.8508 33.4686 72.0894H32.7444C32.7587 71.5203 32.9427 71.1251 33.2962 70.9038C33.6526 70.6796 34.065 70.5675 34.5335 70.5675C35.0767 70.5675 35.5179 70.671 35.857 70.8779C36.1933 71.0849 36.3614 71.4068 36.3614 71.8436V74.5036C36.3614 74.5841 36.3772 74.6488 36.4089 74.6976C36.4433 74.7465 36.5138 74.7709 36.6201 74.7709C36.6546 74.7709 36.6934 74.7695 36.7365 74.7666C36.7796 74.7609 36.8256 74.7537 36.8745 74.745V75.3184C36.7537 75.3529 36.6618 75.3745 36.5985 75.3831C36.5353 75.3917 36.4491 75.396 36.3399 75.396C36.0726 75.396 35.8786 75.3012 35.7579 75.1115C35.6946 75.0109 35.6501 74.8686 35.6242 74.6847C35.4661 74.8916 35.2391 75.0713 34.9431 75.2236C34.647 75.3759 34.3208 75.4521 33.9644 75.4521C33.5362 75.4521 33.1855 75.3227 32.9125 75.0641C32.6423 74.8025 32.5073 74.4763 32.5073 74.0854C32.5073 73.6572 32.6409 73.3252 32.9082 73.0896C33.1755 72.8539 33.5261 72.7087 33.9601 72.6541L35.1974 72.4989ZM37.7927 69.3906H38.5774V70.6796H39.3146V71.3134H38.5774V74.3269C38.5774 74.4878 38.632 74.5956 38.7412 74.6502C38.8016 74.6818 38.9021 74.6976 39.043 74.6976C39.0803 74.6976 39.1206 74.6976 39.1637 74.6976C39.2068 74.6947 39.2571 74.6904 39.3146 74.6847V75.2969C39.2255 75.3227 39.1321 75.3414 39.0344 75.3529C38.9395 75.3644 38.836 75.3702 38.724 75.3702C38.3618 75.3702 38.1161 75.2782 37.9867 75.0943C37.8574 74.9074 37.7927 74.666 37.7927 74.37V71.3134H37.1676V70.6796H37.7927V69.3906ZM40.0949 68.9422H40.8709V71.3047C41.0549 71.0719 41.2201 70.9081 41.3667 70.8133C41.6167 70.6494 41.9286 70.5675 42.3022 70.5675C42.9719 70.5675 43.426 70.8018 43.6645 71.2703C43.7939 71.526 43.8585 71.881 43.8585 72.3351V75.2969H43.061V72.3868C43.061 72.0477 43.0179 71.7991 42.9316 71.641C42.7908 71.3881 42.5264 71.2616 42.1384 71.2616C41.8165 71.2616 41.5248 71.3723 41.2632 71.5936C41.0017 71.8149 40.8709 72.2331 40.8709 72.8481V75.2969H40.0949V68.9422ZM47.661 69.9769C47.6725 69.655 47.7285 69.4193 47.8291 69.2699C48.0102 69.0055 48.3594 68.8732 48.8767 68.8732C48.9256 68.8732 48.9759 68.8747 49.0276 68.8776C49.0794 68.8804 49.1383 68.8847 49.2044 68.8905V69.5975C49.1239 69.5918 49.065 69.5889 49.0276 69.5889C48.9931 69.586 48.9601 69.5846 48.9285 69.5846C48.6928 69.5846 48.552 69.6464 48.506 69.77C48.46 69.8907 48.437 70.2011 48.437 70.7012H49.2044V71.3134H48.4284V75.2969H47.661V71.3134H47.0186V70.7012H47.661V69.9769ZM51.7566 74.7968C52.2711 74.7968 52.6231 74.6028 52.8128 74.2148C53.0054 73.8239 53.1017 73.3899 53.1017 72.9128C53.1017 72.4817 53.0327 72.131 52.8947 71.8609C52.6763 71.4355 52.2998 71.2228 51.7652 71.2228C51.291 71.2228 50.9461 71.4039 50.7305 71.766C50.515 72.1282 50.4072 72.565 50.4072 73.0766C50.4072 73.5681 50.515 73.9777 50.7305 74.3053C50.9461 74.633 51.2881 74.7968 51.7566 74.7968ZM51.7868 70.546C52.3817 70.546 52.8847 70.7443 53.2957 71.1409C53.7067 71.5375 53.9122 72.121 53.9122 72.8912C53.9122 73.6356 53.7311 74.2507 53.369 74.7364C53.0068 75.2221 52.4449 75.465 51.6833 75.465C51.0481 75.465 50.5437 75.2509 50.1701 74.8226C49.7964 74.3915 49.6096 73.8138 49.6096 73.0896C49.6096 72.3136 49.8065 71.6956 50.2003 71.2358C50.594 70.7759 51.1229 70.546 51.7868 70.546ZM54.8606 70.6796H55.5978V71.4772C55.6582 71.322 55.8062 71.1337 56.0419 70.9124C56.2776 70.6882 56.5492 70.5762 56.8567 70.5762C56.8711 70.5762 56.8955 70.5776 56.93 70.5805C56.9645 70.5833 57.0234 70.5891 57.1067 70.5977V71.4168C57.0608 71.4082 57.0176 71.4025 56.9774 71.3996C56.94 71.3967 56.8984 71.3953 56.8524 71.3953C56.4615 71.3953 56.1612 71.5217 55.9513 71.7747C55.7415 72.0247 55.6366 72.3136 55.6366 72.6412V75.2969H54.8606V70.6796ZM60.8316 74.0682C60.8316 74.2924 60.9135 74.4691 61.0773 74.5985C61.2411 74.7278 61.4351 74.7925 61.6593 74.7925C61.9324 74.7925 62.1968 74.7292 62.4526 74.6028C62.8837 74.393 63.0993 74.0495 63.0993 73.5724V72.9473C63.0044 73.0076 62.8823 73.0579 62.7328 73.0982C62.5834 73.1384 62.4368 73.1672 62.2931 73.1844L61.8232 73.2448C61.5415 73.2821 61.3302 73.341 61.1894 73.4215C60.9509 73.5566 60.8316 73.7722 60.8316 74.0682ZM62.7113 72.4989C62.8894 72.4759 63.0087 72.4012 63.0691 72.2748C63.1036 72.2058 63.1208 72.1066 63.1208 71.9773C63.1208 71.7129 63.026 71.5217 62.8363 71.4039C62.6495 71.2832 62.3807 71.2228 62.0301 71.2228C61.6248 71.2228 61.3374 71.332 61.1679 71.5505C61.073 71.6712 61.0112 71.8508 60.9825 72.0894H60.2582C60.2726 71.5203 60.4565 71.1251 60.81 70.9038C61.1664 70.6796 61.5789 70.5675 62.0473 70.5675C62.5905 70.5675 63.0317 70.671 63.3709 70.8779C63.7071 71.0849 63.8753 71.4068 63.8753 71.8436V74.5036C63.8753 74.5841 63.8911 74.6488 63.9227 74.6976C63.9572 74.7465 64.0276 74.7709 64.1339 74.7709C64.1684 74.7709 64.2072 74.7695 64.2503 74.7666C64.2934 74.7609 64.3394 74.7537 64.3883 74.745V75.3184C64.2676 75.3529 64.1756 75.3745 64.1124 75.3831C64.0491 75.3917 63.9629 75.396 63.8537 75.396C63.5864 75.396 63.3924 75.3012 63.2717 75.1115C63.2085 75.0109 63.1639 74.8686 63.1381 74.6847C62.98 74.8916 62.7529 75.0713 62.4569 75.2236C62.1609 75.3759 61.8346 75.4521 61.4783 75.4521C61.05 75.4521 60.6994 75.3227 60.4263 75.0641C60.1562 74.8025 60.0211 74.4763 60.0211 74.0854C60.0211 73.6572 60.1547 73.3252 60.422 73.0896C60.6893 72.8539 61.04 72.7087 61.4739 72.6541L62.7113 72.4989ZM95.9201 68.7913C96.722 68.7913 97.3442 69.0026 97.7869 69.4251C98.2295 69.8476 98.4752 70.3275 98.5241 70.865H97.6877C97.5929 70.4569 97.4032 70.1335 97.1186 69.895C96.837 69.6564 96.4403 69.5372 95.9288 69.5372C95.3051 69.5372 94.8007 69.757 94.4155 70.1968C94.0333 70.6336 93.8421 71.3047 93.8421 72.2101C93.8421 72.9516 94.0146 73.5537 94.3595 74.0165C94.7073 74.4763 95.2246 74.7062 95.9115 74.7062C96.5438 74.7062 97.0252 74.4634 97.3557 73.9777C97.5311 73.7219 97.6618 73.3856 97.7481 72.9688H98.5844C98.5097 73.6356 98.2625 74.1947 97.8429 74.6459C97.3399 75.1891 96.6616 75.4607 95.808 75.4607C95.0723 75.4607 94.4543 75.238 93.9542 74.7925C93.2961 74.2033 92.967 73.2936 92.967 72.0635C92.967 71.1294 93.2142 70.3635 93.7085 69.7657C94.2431 69.1161 94.9803 68.7913 95.9201 68.7913ZM100.124 74.0682C100.124 74.2924 100.205 74.4691 100.369 74.5985C100.533 74.7278 100.727 74.7925 100.951 74.7925C101.224 74.7925 101.489 74.7292 101.745 74.6028C102.176 74.393 102.391 74.0495 102.391 73.5724V72.9473C102.296 73.0076 102.174 73.0579 102.025 73.0982C101.875 73.1384 101.729 73.1672 101.585 73.1844L101.115 73.2448C100.833 73.2821 100.622 73.341 100.481 73.4215C100.243 73.5566 100.124 73.7722 100.124 74.0682ZM102.003 72.4989C102.181 72.4759 102.301 72.4012 102.361 72.2748C102.395 72.2058 102.413 72.1066 102.413 71.9773C102.413 71.7129 102.318 71.5217 102.128 71.4039C101.941 71.2832 101.673 71.2228 101.322 71.2228C100.917 71.2228 100.629 71.332 100.46 71.5505C100.365 71.6712 100.303 71.8508 100.274 72.0894H99.5501C99.5645 71.5203 99.7484 71.1251 100.102 70.9038C100.458 70.6796 100.871 70.5675 101.339 70.5675C101.882 70.5675 102.324 70.671 102.663 70.8779C102.999 71.0849 103.167 71.4068 103.167 71.8436V74.5036C103.167 74.5841 103.183 74.6488 103.215 74.6976C103.249 74.7465 103.32 74.7709 103.426 74.7709C103.46 74.7709 103.499 74.7695 103.542 74.7666C103.585 74.7609 103.631 74.7537 103.68 74.745V75.3184C103.56 75.3529 103.468 75.3745 103.404 75.3831C103.341 75.3917 103.255 75.396 103.146 75.396C102.878 75.396 102.684 75.3012 102.564 75.1115C102.5 75.0109 102.456 74.8686 102.43 74.6847C102.272 74.8916 102.045 75.0713 101.749 75.2236C101.453 75.3759 101.127 75.4521 100.77 75.4521C100.342 75.4521 99.9913 75.3227 99.7183 75.0641C99.4481 74.8025 99.313 74.4763 99.313 74.0854C99.313 73.6572 99.4467 73.3252 99.7139 73.0896C99.9812 72.8539 100.332 72.7087 100.766 72.6541L102.003 72.4989ZM104.465 70.6796H105.202V71.4772C105.262 71.322 105.41 71.1337 105.646 70.9124C105.882 70.6882 106.153 70.5762 106.461 70.5762C106.475 70.5762 106.5 70.5776 106.534 70.5805C106.569 70.5833 106.628 70.5891 106.711 70.5977V71.4168C106.665 71.4082 106.622 71.4025 106.582 71.3996C106.544 71.3967 106.503 71.3953 106.457 71.3953C106.066 71.3953 105.765 71.5217 105.556 71.7747C105.346 72.0247 105.241 72.3136 105.241 72.6412V75.2969H104.465V70.6796ZM109.306 70.5762C109.634 70.5762 109.952 70.6538 110.259 70.809C110.567 70.9613 110.801 71.1596 110.962 71.4039C111.117 71.6367 111.22 71.9083 111.272 72.2187C111.318 72.4314 111.341 72.7705 111.341 73.2361H107.957C107.971 73.7046 108.082 74.0811 108.289 74.3657C108.496 74.6473 108.816 74.7882 109.25 74.7882C109.655 74.7882 109.979 74.6545 110.22 74.3872C110.358 74.232 110.456 74.0524 110.513 73.8483H111.276C111.256 74.0179 111.189 74.2076 111.074 74.4174C110.962 74.6243 110.835 74.7939 110.694 74.9261C110.459 75.156 110.167 75.3112 109.819 75.3917C109.632 75.4377 109.421 75.4607 109.186 75.4607C108.611 75.4607 108.124 75.2523 107.724 74.8356C107.325 74.416 107.125 73.8296 107.125 73.0766C107.125 72.3351 107.326 71.733 107.728 71.2703C108.131 70.8075 108.657 70.5762 109.306 70.5762ZM110.544 72.6196C110.512 72.2834 110.439 72.0146 110.324 71.8135C110.111 71.4398 109.756 71.253 109.259 71.253C108.902 71.253 108.604 71.3823 108.362 71.641C108.121 71.8968 107.993 72.223 107.978 72.6196H110.544ZM114.221 70.5762C114.549 70.5762 114.866 70.6538 115.174 70.809C115.481 70.9613 115.716 71.1596 115.876 71.4039C116.032 71.6367 116.135 71.9083 116.187 72.2187C116.233 72.4314 116.256 72.7705 116.256 73.2361H112.872C112.886 73.7046 112.997 74.0811 113.204 74.3657C113.411 74.6473 113.731 74.7882 114.165 74.7882C114.57 74.7882 114.894 74.6545 115.135 74.3872C115.273 74.232 115.371 74.0524 115.428 73.8483H116.191C116.171 74.0179 116.104 74.2076 115.989 74.4174C115.876 74.6243 115.75 74.7939 115.609 74.9261C115.374 75.156 115.082 75.3112 114.734 75.3917C114.547 75.4377 114.336 75.4607 114.1 75.4607C113.525 75.4607 113.038 75.2523 112.639 74.8356C112.239 74.416 112.04 73.8296 112.04 73.0766C112.04 72.3351 112.241 71.733 112.643 71.2703C113.045 70.8075 113.571 70.5762 114.221 70.5762ZM115.458 72.6196C115.427 72.2834 115.353 72.0146 115.238 71.8135C115.026 71.4398 114.671 71.253 114.174 71.253C113.817 71.253 113.518 71.3823 113.277 71.641C113.035 71.8968 112.908 72.223 112.893 72.6196H115.458ZM117.235 70.6796H117.972V71.4772C118.032 71.322 118.18 71.1337 118.416 70.9124C118.651 70.6882 118.923 70.5762 119.231 70.5762C119.245 70.5762 119.269 70.5776 119.304 70.5805C119.338 70.5833 119.397 70.5891 119.481 70.5977V71.4168C119.435 71.4082 119.392 71.4025 119.351 71.3996C119.314 71.3967 119.272 71.3953 119.226 71.3953C118.835 71.3953 118.535 71.5217 118.325 71.7747C118.115 72.0247 118.011 72.3136 118.011 72.6412V75.2969H117.235V70.6796ZM119.856 74.357H120.757V75.2969H119.856V74.357Z" fill="white"/>
<path d="M131.969 25.1875H129.359V17.6631H127.001V15.5293H134.321V17.6631H131.969V25.1875ZM139.909 25.1875L137.934 18.2312H137.875C137.892 18.4118 137.91 18.6562 137.928 18.9645C137.95 19.2728 137.969 19.6053 137.987 19.962C138.005 20.3187 138.013 20.6623 138.013 20.9926V25.1875H135.701V15.5293H139.176L141.191 22.3865H141.244L143.219 15.5293H146.701V25.1875H144.303V20.9529C144.303 20.6491 144.307 20.3232 144.316 19.9752C144.329 19.6229 144.342 19.2926 144.355 18.9843C144.373 18.6716 144.388 18.425 144.402 18.2444H144.342L142.393 25.1875H139.909Z" fill="white"/>
</g>
<defs>
<clipPath id="clip0_260_140">
<rect width="147.133" height="77.7944" fill="white" transform="translate(0.867188 0.757812)"/>
</clipPath>
<clipPath id="clip1_260_140">
<rect width="19.194" height="12.796" fill="white" transform="matrix(-0.874282 -0.485419 -0.485419 0.874282 123.414 12.8906)"/>
</clipPath>
</defs>
</svg>
