<svg width="64" height="64" viewBox="0 0 64 64" fill="none" xmlns="http://www.w3.org/2000/svg">
<path fill-rule="evenodd" clip-rule="evenodd" d="M36.1261 54.9435C35.4487 53.3871 35.1161 51.7026 35.151 50.0055C35.186 48.3085 35.5877 46.6391 36.3286 45.1119C37.0695 43.5847 38.132 42.236 39.4433 41.1581C40.7546 40.0802 42.2835 39.2988 43.9252 38.8675V29.9288L39.7252 30.9253C39.5858 30.9583 39.4401 30.9532 39.3033 30.9106C39.1665 30.8679 39.0438 30.7892 38.9479 30.6828C38.852 30.5764 38.7866 30.4461 38.7584 30.3056C38.7302 30.1652 38.7403 30.0197 38.7877 29.8845L39.4276 27.7453C39.4367 27.7143 39.4478 27.684 39.4607 27.6545L40.1506 25.6653C40.1893 25.5246 40.2661 25.3973 40.3726 25.2975L43.9249 21.9443V12.2129C43.924 12.0697 43.8667 11.9326 43.7654 11.8314C43.6642 11.7301 43.5271 11.6728 43.3839 11.6719H35.8673V12.4808C35.8673 12.5856 35.8467 12.6894 35.8065 12.7863C35.7664 12.8832 35.7076 12.9712 35.6334 13.0454C35.5593 13.1195 35.4713 13.1783 35.3744 13.2185C35.2775 13.2586 35.1737 13.2793 35.0688 13.2793H18.9109C18.8061 13.2793 18.7022 13.2586 18.6054 13.2185C18.5085 13.1783 18.4205 13.1195 18.3463 13.0454C18.2722 12.9712 18.2133 12.8832 18.1732 12.7863C18.1331 12.6894 18.1124 12.5856 18.1124 12.4808V11.6719H10.5957C10.4525 11.6728 10.3154 11.7301 10.2142 11.8314C10.1129 11.9326 10.0556 12.0697 10.0547 12.2129V54.4024C10.0557 54.5456 10.113 54.6826 10.2143 54.7838C10.3155 54.8851 10.4525 54.9424 10.5957 54.9435H36.1261Z" fill="#F7F7F8"/>
<path fill-rule="evenodd" clip-rule="evenodd" d="M14.8866 45.5271C14.7974 45.4718 14.72 45.3993 14.659 45.3139C14.5979 45.2286 14.5543 45.1319 14.5307 45.0297C14.5072 44.9274 14.504 44.8214 14.5215 44.7179C14.5391 44.6144 14.5769 44.5154 14.6328 44.4266C14.6887 44.3378 14.7617 44.2609 14.8474 44.2003C14.9332 44.1398 15.0301 44.0968 15.1325 44.0739C15.235 44.051 15.3409 44.0485 15.4443 44.0667C15.5477 44.0848 15.6465 44.1233 15.7349 44.1798L16.8397 44.8775L18.6022 42.9543C18.062 42.5224 17.3843 42.2996 16.6933 42.3268C16.0022 42.3539 15.3441 42.6291 14.8394 43.102C14.3347 43.5748 14.0173 44.2137 13.9453 44.9015C13.8733 45.5893 14.0516 46.2801 14.4474 46.8472C14.8432 47.4143 15.4301 47.8198 16.1006 47.9894C16.771 48.1591 17.4802 48.0814 18.0981 47.7708C18.716 47.4602 19.2012 46.9373 19.465 46.298C19.7288 45.6587 19.7534 44.9457 19.5343 44.2898L17.5931 46.4075C17.4703 46.5584 17.2965 46.6591 17.1046 46.6907C16.9127 46.7223 16.7158 46.6825 16.5512 46.5789L14.8866 45.5271ZM14.8866 33.4585C14.7974 33.4031 14.72 33.3307 14.659 33.2453C14.5979 33.1599 14.5543 33.0633 14.5307 32.961C14.5072 32.8587 14.504 32.7528 14.5215 32.6493C14.5391 32.5458 14.5769 32.4468 14.6328 32.358C14.6887 32.2691 14.7617 32.1922 14.8474 32.1317C14.9332 32.0712 15.0301 32.0282 15.1325 32.0053C15.235 31.9823 15.3409 31.9799 15.4443 31.998C15.5477 32.0162 15.6465 32.0547 15.7349 32.1111L16.8397 32.8089L18.6022 30.8856C18.0621 30.4539 17.3844 30.2312 16.6935 30.2583C16.0025 30.2855 15.3445 30.5607 14.8399 31.0335C14.3353 31.5064 14.018 32.1451 13.9461 32.8329C13.8741 33.5206 14.0524 34.2113 14.4481 34.7783C14.8439 35.3453 15.4308 35.7507 16.1012 35.9203C16.7715 36.0899 17.4806 36.0122 18.0984 35.7016C18.7162 35.391 19.2014 34.8682 19.4651 34.229C19.7288 33.5897 19.7534 32.8769 19.5343 32.221L17.5931 34.3389C17.4703 34.4898 17.2965 34.5905 17.1046 34.6221C16.9127 34.6536 16.7158 34.6139 16.5512 34.5103L14.8866 33.4585ZM14.8866 21.3899C14.7974 21.3345 14.72 21.2621 14.659 21.1767C14.5979 21.0913 14.5543 20.9947 14.5307 20.8924C14.5072 20.7901 14.504 20.6842 14.5215 20.5807C14.5391 20.4772 14.5769 20.3782 14.6328 20.2893C14.6887 20.2005 14.7617 20.1236 14.8474 20.0631C14.9332 20.0026 15.0301 19.9596 15.1325 19.9367C15.235 19.9137 15.3409 19.9113 15.4443 19.9294C15.5477 19.9476 15.6465 19.986 15.7349 20.0425L16.8397 20.7403L18.6022 18.817C18.0621 18.3853 17.3844 18.1626 16.6935 18.1897C16.0025 18.2169 15.3445 18.4921 14.8399 18.9649C14.3353 19.4377 14.018 20.0765 13.9461 20.7643C13.8741 21.452 14.0524 22.1426 14.4481 22.7097C14.8439 23.2767 15.4308 23.6821 16.1012 23.8517C16.7715 24.0213 17.4806 23.9436 18.0984 23.633C18.7162 23.3224 19.2014 22.7996 19.4651 22.1603C19.7288 21.5211 19.7534 20.8083 19.5343 20.1524L17.5931 22.2703C17.4703 22.4212 17.2965 22.5219 17.1046 22.5535C16.9126 22.585 16.7158 22.5452 16.5512 22.4415L14.8866 21.3899Z" fill="#41BA7D"/>
<path fill-rule="evenodd" clip-rule="evenodd" d="M23.6088 6.93464H19.7109V11.6829H34.2718V6.93464H30.3741V6.93151C30.1647 6.9315 29.9639 6.84898 29.815 6.70184C29.6661 6.55471 29.5812 6.35482 29.5787 6.14551C29.5694 5.47067 29.2967 4.82618 28.819 4.3495C28.3412 3.87282 27.6961 3.60168 27.0212 3.59392C26.3463 3.58616 25.6951 3.84239 25.2065 4.30795C24.7179 4.77351 24.4305 5.41157 24.4057 6.08601C24.4067 6.10264 24.4073 6.11926 24.4073 6.13601C24.4073 6.24089 24.3867 6.34473 24.3466 6.44163C24.3064 6.53852 24.2476 6.62656 24.1735 6.70072C24.0993 6.77488 24.0113 6.83371 23.9144 6.87385C23.8175 6.91398 23.7137 6.93464 23.6088 6.93464Z" fill="#6298C6"/>
<path fill-rule="evenodd" clip-rule="evenodd" d="M55.0279 17.2375L53.4004 15.5134C53.3796 15.4914 53.3546 15.4737 53.327 15.4614C53.2993 15.4491 53.2695 15.4423 53.2392 15.4415C53.2082 15.4406 53.1773 15.4457 53.1483 15.4567C53.1193 15.4677 53.0927 15.4844 53.0701 15.5056L45.3122 22.8284C45.2874 22.8552 45.2607 22.8802 45.2324 22.9034L42.0469 25.9108L43.995 27.9746L44.1394 27.8384C44.1644 27.8116 44.1912 27.7865 44.2196 27.7634L55.0196 17.5685C55.0416 17.5477 55.0593 17.5227 55.0716 17.495C55.0839 17.4674 55.0907 17.4376 55.0915 17.4073C55.0926 17.3762 55.0875 17.3452 55.0766 17.3161C55.0657 17.2869 55.0491 17.2602 55.0279 17.2375Z" fill="#F5CA81"/>
<path fill-rule="evenodd" clip-rule="evenodd" d="M41.5689 28.8484L42.4349 28.6429L41.2418 27.3789L40.9649 28.177L40.9581 28.2013L40.7031 29.0538L41.5689 28.8484Z" fill="#9C9C9C"/>
<path fill-rule="evenodd" clip-rule="evenodd" d="M45.5221 20.4355L47.0491 18.9945V12.2115C47.0457 11.2406 46.6585 10.3103 45.9719 9.6238C45.2853 8.93727 44.355 8.55014 43.3841 8.54688H35.8672V10.0735H43.3841C43.9506 10.0747 44.4936 10.3003 44.8942 10.7009C45.2948 11.1015 45.5204 11.6445 45.5216 12.211L45.5221 20.4355Z" fill="#85BEED"/>
<path fill-rule="evenodd" clip-rule="evenodd" d="M54.0958 43.0582C52.4335 41.3959 50.2463 40.3614 47.9069 40.131C45.5674 39.9006 43.2204 40.4884 41.2658 41.7944C39.3112 43.1004 37.8699 45.0438 37.1875 47.2933C36.5051 49.5429 36.6238 51.9595 37.5234 54.1313C38.423 56.3031 40.0479 58.0959 42.1211 59.204C44.1943 60.3122 46.5876 60.6672 48.8932 60.2086C51.1988 59.7499 53.274 58.5061 54.7653 56.6889C56.2567 54.8717 57.0718 52.5937 57.0718 50.2429C57.0735 48.9083 56.8115 47.5865 56.3007 46.3535C55.79 45.1205 55.0407 44.0006 54.0958 43.0582Z" fill="#2FA369"/>
<path fill-rule="evenodd" clip-rule="evenodd" d="M38.1283 58.0656C37.703 57.5888 37.3172 57.0783 36.9744 56.5391H10.5943C10.0278 56.5378 9.48487 56.3122 9.08429 55.9116C8.68371 55.5111 8.4581 54.9681 8.45681 54.4016V12.2115C8.458 11.645 8.68358 11.102 9.08418 10.7014C9.48479 10.3008 10.0278 10.0752 10.5943 10.074H18.1111V8.54688H10.5942C9.6233 8.5502 8.69314 8.93737 8.00663 9.6239C7.32012 10.3104 6.93298 11.2406 6.92969 12.2115V54.401C6.93305 55.3719 7.3202 56.302 8.0067 56.9885C8.6932 57.675 9.62332 58.0622 10.5942 58.0656H38.1283ZM46.9053 38.4846C46.9527 38.4846 47.0001 38.4846 47.0474 38.4855V27.2789L45.5208 28.7197V38.5654C45.9803 38.5115 46.4426 38.4846 46.9053 38.4846Z" fill="#85BEED"/>
<path fill-rule="evenodd" clip-rule="evenodd" d="M24.0709 43.725C23.8592 43.725 23.6561 43.6408 23.5063 43.4911C23.3566 43.3413 23.2724 43.1382 23.2724 42.9265C23.2724 42.7147 23.3566 42.5116 23.5063 42.3618C23.6561 42.2121 23.8592 42.128 24.0709 42.128H34.5624C34.7742 42.128 34.9773 42.2121 35.1271 42.3618C35.2768 42.5116 35.3609 42.7147 35.3609 42.9265C35.3609 43.1382 35.2768 43.3413 35.1271 43.4911C34.9773 43.6408 34.7742 43.725 34.5624 43.725H24.0709ZM24.0709 47.5811C23.8592 47.5811 23.6561 47.497 23.5063 47.3472C23.3566 47.1975 23.2724 46.9944 23.2724 46.7826C23.2724 46.5708 23.3566 46.3677 23.5063 46.218C23.6561 46.0682 23.8592 45.9841 24.0709 45.9841H32.8841C33.0958 45.9841 33.2989 46.0682 33.4487 46.218C33.5984 46.3677 33.6826 46.5708 33.6826 46.7826C33.6826 46.9944 33.5984 47.1975 33.4487 47.3472C33.2989 47.497 33.0958 47.5811 32.8841 47.5811H24.0709ZM19.6796 41.7766L20.2421 41.1631C20.3851 41.0104 20.5825 40.9202 20.7916 40.9121C21.0006 40.904 21.2044 40.9787 21.3588 41.1199C21.5132 41.2611 21.6056 41.4575 21.6161 41.6665C21.6267 41.8754 21.5544 42.0801 21.4149 42.2361L20.7036 43.0121C21.2519 43.9877 21.4155 45.1332 21.1622 46.2234C20.9088 47.3135 20.2569 48.2695 19.3344 48.9033C18.412 49.5372 17.2858 49.803 16.1773 49.6486C15.0688 49.4942 14.0582 48.9308 13.344 48.069C12.6299 47.2073 12.2639 46.1096 12.3181 44.9917C12.3722 43.8738 12.8426 42.8166 13.6367 42.0279C14.4308 41.2392 15.4912 40.7761 16.6094 40.7296C17.7277 40.6831 18.8227 41.0566 19.6796 41.7766ZM14.8829 45.5282C14.7938 45.4729 14.7164 45.4004 14.6553 45.315C14.5943 45.2296 14.5507 45.133 14.5271 45.0307C14.5035 44.9284 14.5004 44.8225 14.5179 44.719C14.5354 44.6155 14.5733 44.5165 14.6292 44.4277C14.6851 44.3388 14.7581 44.2619 14.8438 44.2014C14.9296 44.1409 15.0265 44.0979 15.1289 44.075C15.2313 44.052 15.3373 44.0496 15.4407 44.0678C15.5441 44.0859 15.6428 44.1244 15.7313 44.1808L16.8361 44.8786L18.5986 42.9553C18.0584 42.5235 17.3807 42.3007 16.6896 42.3278C15.9986 42.355 15.3404 42.6302 14.8358 43.103C14.3311 43.5759 14.0137 44.2148 13.9417 44.9026C13.8697 45.5904 14.0479 46.2812 14.4438 46.8483C14.8396 47.4154 15.4265 47.8209 16.0969 47.9905C16.7674 48.1601 17.4765 48.0825 18.0944 47.7719C18.7123 47.4612 19.1976 46.9384 19.4614 46.2991C19.7252 45.6598 19.7498 44.9468 19.5307 44.2908L17.5894 46.4086C17.4667 46.5595 17.2929 46.6602 17.101 46.6918C16.909 46.7233 16.7122 46.6836 16.5476 46.58L14.8824 45.5282H14.8829ZM24.0704 31.6563C23.8587 31.6563 23.6556 31.5722 23.5058 31.4225C23.3561 31.2727 23.2719 31.0696 23.2719 30.8578C23.2719 30.6461 23.3561 30.443 23.5058 30.2932C23.6556 30.1435 23.8587 30.0593 24.0704 30.0593H36.1954C36.4072 30.0593 36.6103 30.1435 36.7601 30.2932C36.9098 30.443 36.9939 30.6461 36.9939 30.8578C36.9939 31.0696 36.9098 31.2727 36.7601 31.4225C36.6103 31.5722 36.4072 31.6563 36.1954 31.6563H24.0704ZM24.0704 35.5123C23.8587 35.5123 23.6556 35.4282 23.5058 35.2785C23.3561 35.1287 23.2719 34.9256 23.2719 34.7138C23.2719 34.5021 23.3561 34.299 23.5058 34.1492C23.6556 33.9995 23.8587 33.9153 24.0704 33.9153H40.2842C40.496 33.9153 40.6991 33.9995 40.8488 34.1492C40.9986 34.299 41.0827 34.5021 41.0827 34.7138C41.0827 34.9256 40.9986 35.1287 40.8488 35.2785C40.6991 35.4282 40.496 35.5123 40.2842 35.5123H24.0704ZM19.6791 29.708L20.2416 29.0945C20.312 29.0175 20.3969 28.9551 20.4915 28.9109C20.586 28.8667 20.6884 28.8416 20.7926 28.8369C20.8969 28.8323 21.0011 28.8482 21.0992 28.8838C21.1973 28.9194 21.2874 28.974 21.3644 29.0445C21.4415 29.1149 21.5038 29.1998 21.548 29.2944C21.5922 29.389 21.6174 29.4913 21.622 29.5956C21.6266 29.6998 21.6107 29.804 21.5751 29.9021C21.5395 30.0002 21.4849 30.0903 21.4144 30.1673L20.7031 30.9433C21.2516 31.919 21.4153 33.0646 21.162 34.1549C20.9087 35.2452 20.2567 36.2013 19.3342 36.8352C18.4117 37.4691 17.2855 37.7351 16.1769 37.5808C15.0683 37.4264 14.0575 36.863 13.3432 36.0012C12.629 35.1394 12.2629 34.0416 12.317 32.9236C12.3711 31.8056 12.8415 30.7483 13.6356 29.9595C14.4298 29.1707 15.4903 28.7075 16.6086 28.661C17.7269 28.6144 18.8221 28.9879 19.6791 29.708ZM14.8824 33.4596C14.7933 33.4042 14.7159 33.3318 14.6548 33.2464C14.5938 33.161 14.5502 33.0644 14.5266 32.9621C14.503 32.8598 14.4999 32.7539 14.5174 32.6504C14.5349 32.5469 14.5728 32.4479 14.6287 32.359C14.6846 32.2702 14.7576 32.1933 14.8433 32.1328C14.9291 32.0723 15.026 32.0293 15.1284 32.0064C15.2308 31.9834 15.3368 31.981 15.4402 31.9991C15.5436 32.0173 15.6423 32.0557 15.7308 32.1122L16.8356 32.81L18.5981 30.8867C18.0579 30.455 17.3803 30.2323 16.6894 30.2594C15.9984 30.2866 15.3404 30.5618 14.8358 31.0346C14.3312 31.5074 14.0139 32.1462 13.9419 32.834C13.87 33.5217 14.0482 34.2123 14.444 34.7794C14.8398 35.3464 15.4267 35.7518 16.097 35.9214C16.7674 36.091 17.4764 36.0133 18.0942 35.7027C18.712 35.3921 19.1972 34.8693 19.461 34.23C19.7247 33.5908 19.7492 32.878 19.5302 32.2221L17.5889 34.34C17.4662 34.4908 17.2924 34.5916 17.1005 34.6231C16.9085 34.6547 16.7117 34.6149 16.5471 34.5113L14.8819 33.4596H14.8824ZM24.0699 19.5877C23.8582 19.5877 23.6551 19.5036 23.5053 19.3538C23.3556 19.2041 23.2714 19.001 23.2714 18.7892C23.2714 18.5774 23.3556 18.3743 23.5053 18.2246C23.6551 18.0748 23.8582 17.9907 24.0699 17.9907H40.2842C40.496 17.9907 40.6991 18.0748 40.8488 18.2246C40.9986 18.3743 41.0827 18.5774 41.0827 18.7892C41.0827 19.001 40.9986 19.2041 40.8488 19.3538C40.6991 19.5036 40.496 19.5877 40.2842 19.5877H24.0699ZM24.0699 23.4437C23.8582 23.4437 23.6551 23.3596 23.5053 23.2098C23.3556 23.0601 23.2714 22.857 23.2714 22.6452C23.2714 22.4334 23.3556 22.2303 23.5053 22.0806C23.6551 21.9308 23.8582 21.8467 24.0699 21.8467H40.2842C40.496 21.8467 40.6991 21.9308 40.8488 22.0806C40.9986 22.2303 41.0827 22.4334 41.0827 22.6452C41.0827 22.857 40.9986 23.0601 40.8488 23.2098C40.6991 23.3596 40.496 23.4437 40.2842 23.4437H24.0699ZM19.6796 17.6391L20.2421 17.0256C20.3843 16.8701 20.5826 16.7774 20.7931 16.768C21.0037 16.7587 21.2094 16.8333 21.3649 16.9756C21.5205 17.1179 21.6131 17.3161 21.6225 17.5267C21.6319 17.7373 21.5572 17.9429 21.4149 18.0985L20.7036 18.8745C21.2521 19.8502 21.4158 20.9958 21.1625 22.086C20.9092 23.1763 20.2572 24.1324 19.3347 24.7663C18.4122 25.4003 17.286 25.6662 16.1774 25.5119C15.0688 25.3576 14.058 24.7941 13.3437 23.9323C12.6295 23.0705 12.2634 21.9727 12.3175 20.8547C12.3716 19.7367 12.842 18.6794 13.6361 17.8906C14.4303 17.1018 15.4908 16.6386 16.6091 16.5921C17.7274 16.5455 18.8226 16.919 19.6796 17.6391ZM14.8829 21.3907C14.7938 21.3354 14.7164 21.2629 14.6553 21.1775C14.5943 21.0921 14.5507 20.9955 14.5271 20.8932C14.5035 20.7909 14.5004 20.685 14.5179 20.5815C14.5354 20.478 14.5733 20.379 14.6292 20.2902C14.6851 20.2013 14.7581 20.1244 14.8438 20.0639C14.9296 20.0034 15.0265 19.9604 15.1289 19.9375C15.2313 19.9145 15.3373 19.9121 15.4407 19.9303C15.5441 19.9484 15.6428 19.9869 15.7313 20.0433L16.8361 20.7411L18.5986 18.8178C18.0584 18.3861 17.3808 18.1634 16.6899 18.1905C15.9989 18.2177 15.3409 18.4929 14.8363 18.9657C14.3317 19.4386 14.0144 20.0773 13.9424 20.7651C13.8705 21.4528 14.0487 22.1435 14.4445 22.7105C14.8403 23.2775 15.4272 23.6829 16.0975 23.8525C16.7679 24.0221 17.4769 23.9445 18.0947 23.6338C18.7125 23.3232 19.1977 22.8004 19.4615 22.1612C19.7252 21.5219 19.7497 20.8091 19.5307 20.1532L17.5894 22.2711C17.4667 22.422 17.2929 22.5227 17.101 22.5543C16.909 22.5858 16.7122 22.546 16.5476 22.4423L14.8824 21.3907H14.8829ZM23.6093 6.93435H19.7114V11.6826H34.2723V6.93435H30.3746V6.93122C30.1652 6.9312 29.9644 6.84868 29.8155 6.70155C29.6666 6.55442 29.5817 6.35453 29.5792 6.14522C29.5699 5.47038 29.2972 4.82589 28.8195 4.34921C28.3417 3.87253 27.6966 3.60139 27.0217 3.59363C26.3468 3.58586 25.6956 3.84209 25.207 4.30766C24.7184 4.77322 24.431 5.41127 24.4062 6.08572C24.4072 6.10235 24.4078 6.11897 24.4078 6.13572C24.4078 6.3475 24.3237 6.5506 24.1739 6.70035C24.0242 6.85009 23.8211 6.93422 23.6093 6.93422V6.93435ZM55.0277 17.2371L53.4002 15.513C53.3794 15.491 53.3544 15.4733 53.3268 15.461C53.2991 15.4487 53.2693 15.4419 53.2391 15.4411C53.208 15.4401 53.1771 15.4453 53.1481 15.4563C53.1191 15.4673 53.0925 15.4839 53.0699 15.5052L45.3121 22.828C45.2872 22.8548 45.2605 22.8798 45.2322 22.903L42.0467 25.9103L43.9948 27.9742L44.1392 27.838C44.1642 27.8112 44.191 27.7861 44.2194 27.763L55.0194 17.5681C55.0414 17.5473 55.0591 17.5223 55.0714 17.4946C55.0837 17.467 55.0905 17.4371 55.0913 17.4068C55.0932 17.3442 55.0701 17.2834 55.0272 17.2377L55.0277 17.2371ZM41.5688 28.848L40.7031 29.0533L40.9581 28.2008L40.9648 28.1766L41.2417 27.3785L42.4348 28.6425L41.5688 28.848ZM45.5242 20.4371L47.0512 18.9961V12.2131C47.0478 11.2421 46.6606 10.3119 45.974 9.62539C45.2874 8.93886 44.3571 8.55173 43.3862 8.54847H35.8693V10.0751H43.3862C43.9527 10.0763 44.4957 10.3019 44.8963 10.7025C45.2969 11.1031 45.5225 11.6461 45.5237 12.2126V20.4366L45.5242 20.4371ZM54.0934 43.0591C52.4312 41.3968 50.244 40.3624 47.9046 40.1319C45.5651 39.9015 43.2181 40.4894 41.2635 41.7954C39.3089 43.1014 37.8676 45.0447 37.1852 47.2943C36.5028 49.5438 36.6215 51.9604 37.5211 54.1322C38.4207 56.3041 40.0456 58.0968 42.1187 59.205C44.1919 60.3131 46.5852 60.6681 48.8909 60.2095C51.1965 59.7509 53.2717 58.507 54.763 56.6898C56.2543 54.8727 57.0694 52.5946 57.0694 50.2438C57.0712 48.9093 56.8092 47.5875 56.2984 46.3545C55.7877 45.1215 55.0384 44.0016 54.0934 43.0591ZM36.1281 54.9437C35.4507 53.3873 35.1181 51.7028 35.153 50.0058C35.188 48.3087 35.5897 46.6393 36.3306 45.1121C37.0715 43.585 38.134 42.2362 39.4453 41.1583C40.7566 40.0804 42.2855 39.299 43.9272 38.8677V29.929L39.7272 30.9255C39.5878 30.9585 39.4421 30.9535 39.3053 30.9108C39.1685 30.8681 39.0458 30.7895 38.9499 30.683C38.854 30.5766 38.7886 30.4463 38.7604 30.3058C38.7322 30.1654 38.7423 30.0199 38.7897 29.8847L39.4296 27.7455C39.4387 27.7146 39.4498 27.6843 39.4627 27.6547L40.1526 25.6655C40.1913 25.5248 40.2681 25.3975 40.3746 25.2977L43.9269 21.9445V12.2131C43.926 12.0699 43.8687 11.9329 43.7674 11.8316C43.6662 11.7303 43.5291 11.673 43.3859 11.6721H35.8693V12.481C35.8693 12.5858 35.8487 12.6897 35.8085 12.7865C35.7684 12.8834 35.7096 12.9714 35.6354 13.0456C35.5613 13.1197 35.4733 13.1786 35.3764 13.2187C35.2795 13.2588 35.1757 13.2795 35.0708 13.2795H18.9129C18.8081 13.2795 18.7042 13.2588 18.6074 13.2187C18.5105 13.1786 18.4225 13.1197 18.3483 13.0456C18.2742 12.9714 18.2153 12.8834 18.1752 12.7865C18.1351 12.6897 18.1144 12.5858 18.1144 12.481V11.6721H10.5977C10.4545 11.673 10.3174 11.7303 10.2162 11.8316C10.1149 11.9329 10.0576 12.0699 10.0567 12.2131V54.4026C10.0577 54.5458 10.115 54.6828 10.2163 54.7841C10.3175 54.8853 10.4545 54.9427 10.5977 54.9437H36.1281ZM38.1317 58.0672C37.7064 57.5904 37.3205 57.0799 36.9778 56.5407H10.5977C10.0312 56.5394 9.48825 56.3138 9.08767 55.9132C8.68709 55.5127 8.46147 54.9697 8.46019 54.4032V12.2131C8.46138 11.6466 8.68696 11.1036 9.08756 10.703C9.48816 10.3024 10.0312 10.0768 10.5977 10.0756H18.1144V8.54847H10.5976C9.62668 8.5518 8.69651 8.93896 8.01 9.6255C7.32349 10.312 6.93636 11.2422 6.93306 12.2131V54.4026C6.93642 55.3735 7.32358 56.3036 8.01007 56.9901C8.69657 57.6766 9.6267 58.0638 10.5976 58.0672H38.1317ZM48.6478 38.6141V25.773L56.1116 18.7277C56.4628 18.3947 56.6681 17.9362 56.6824 17.4523C56.6967 16.9685 56.5189 16.4987 56.1879 16.1455L54.5604 14.4213C54.2274 14.0701 53.7689 13.8648 53.2851 13.8505C52.8012 13.8362 52.3314 14.014 51.9782 14.345L48.6478 17.4891V12.2141C48.6445 10.8196 48.0891 9.48307 47.1031 8.4969C46.1171 7.51073 44.7807 6.95513 43.3862 6.9516H35.8693V6.13585C35.8693 5.92407 35.7852 5.72097 35.6354 5.57122C35.4857 5.42147 35.2826 5.33735 35.0708 5.33735H31.0844C30.8899 4.3957 30.3766 3.54995 29.631 2.94272C28.8855 2.33548 27.9534 2.00391 26.9919 2.00391C26.0303 2.00391 25.0982 2.33548 24.3527 2.94272C23.6072 3.54995 23.0939 4.3957 22.8993 5.33735H18.9129C18.7012 5.33735 18.4981 5.42147 18.3483 5.57122C18.1986 5.72097 18.1144 5.92407 18.1144 6.13585V6.9516H10.5976C9.2032 6.95513 7.86695 7.51059 6.88098 8.49655C5.895 9.4825 5.3395 10.8187 5.33594 12.2131V54.4026C5.3395 55.797 5.895 57.1332 6.88098 58.1191C7.86695 59.1051 9.2032 59.6606 10.5976 59.6641H39.8726C41.3054 60.734 42.9635 61.463 44.7205 61.7956C46.4776 62.1282 48.2873 62.0556 50.0121 61.5834C51.7369 61.1113 53.3312 60.2519 54.6739 59.0707C56.0165 57.8896 57.072 56.4177 57.7601 54.7672C58.4483 53.1166 58.7508 51.3309 58.6449 49.5458C58.5389 47.7607 58.0271 46.0233 57.1486 44.4657C56.27 42.9082 55.0477 41.5716 53.5748 40.5576C52.1018 39.5436 50.417 38.8789 48.6484 38.6141H48.6478ZM46.9087 38.4862C46.446 38.4862 45.9837 38.5131 45.5242 38.567V28.7213L47.0512 27.2805V38.4871C47.0038 38.4871 46.9564 38.4862 46.9091 38.4862H46.9087ZM41.5701 51.8987C41.4809 51.8433 41.4035 51.7709 41.3425 51.6855C41.2814 51.6001 41.2378 51.5035 41.2142 51.4012C41.1907 51.2989 41.1875 51.193 41.205 51.0895C41.2226 50.986 41.2604 50.887 41.3163 50.7982C41.3722 50.7093 41.4452 50.6324 41.5309 50.5719C41.6167 50.5114 41.7136 50.4684 41.816 50.4455C41.9185 50.4225 42.0244 50.4201 42.1278 50.4383C42.2312 50.4564 42.33 50.4949 42.4184 50.5513L45.5791 52.5476L51.2368 46.3755C51.3791 46.22 51.5773 46.1273 51.7879 46.118C51.9985 46.1086 52.2042 46.1833 52.3597 46.3256C52.5152 46.4679 52.6078 46.6661 52.6172 46.8767C52.6265 47.0873 52.5518 47.293 52.4096 47.4485L46.3329 54.0778C46.2102 54.2287 46.0364 54.3295 45.8445 54.3611C45.6525 54.3926 45.4557 54.3528 45.2911 54.2492L41.5701 51.8987Z" fill="black"/>
</svg>
