<svg width="56" height="54" viewBox="0 0 56 54" fill="none" xmlns="http://www.w3.org/2000/svg">
<path d="M5.6946 11.3305V30.8984C5.6946 31.3337 5.65546 31.769 5.94619 32.1452C6.32638 32.6343 6.87429 32.6396 7.43339 32.6396H9.36786C9.60269 32.6396 9.83751 32.6558 10.0723 32.6396C10.3631 32.6235 10.6202 32.4677 10.9054 32.3924C11.5204 32.2258 12.1801 32.1828 12.8119 32.2688C13.125 32.3118 13.4325 32.3817 13.7288 32.4838C13.8574 32.5268 14.0028 32.6128 14.137 32.6396C14.3047 32.6719 14.5171 32.6396 14.6905 32.6396H23.6807C24.4355 32.6396 25.2183 32.7041 25.973 32.6396C26.0849 32.6289 26.0681 32.6343 26.1911 32.5913C26.7837 32.3924 27.3428 32.2366 27.9746 32.2258C28.5896 32.2151 29.2046 32.3279 29.7749 32.5429C29.9147 32.5967 29.965 32.6235 30.0936 32.6396C30.826 32.7149 31.6087 32.6396 32.3412 32.6396H41.3594C41.5439 32.6396 41.7619 32.6719 41.9409 32.6396C42.226 32.5913 42.2595 32.5322 42.2595 32.3064V31.8335C42.2595 31.7529 42.3043 31.5272 42.2595 31.4573C42.2204 31.3928 42.2372 31.4304 42.1309 31.4143C41.7675 31.3552 41.3426 31.4143 40.9736 31.4143H7.28243C7.23211 31.4143 7.03643 31.4465 6.9917 31.4143C6.91902 31.3659 6.96375 31.0757 6.96375 30.9736V2.37685C6.96375 2.3231 6.9302 2.12425 6.96375 2.08126C7.00848 2.02752 7.2433 2.05976 7.32716 2.05976H48.2642C48.432 2.05976 48.924 1.97377 49.0749 2.05976C49.2035 2.135 49.1197 2.73693 49.1197 2.89816V13.1362C49.1197 13.405 49.0861 13.7005 49.1197 13.9693C49.1252 14.0015 49.1029 14.0714 49.1197 14.1036C49.1756 14.2004 49.6284 14.3401 49.7458 14.41C49.9751 14.5443 50.1931 14.7055 50.3944 14.8775V2.06514C50.3944 0.657063 48.8289 0.83979 47.8505 0.83979H8.18817C7.1818 0.83979 5.74492 0.673186 5.6946 2.07051C5.66105 3.01102 5.6946 3.9569 5.6946 4.8974V11.3305Z" fill="url(#paint0_linear_195_692)"/>
<path d="M47.8396 13.8092V3.56037C47.8396 3.3239 47.9123 3.27015 47.711 3.24328C47.4259 3.20566 47.1016 3.24328 46.8165 3.24328H8.24436V29.8677C8.24436 29.9483 8.21081 30.1794 8.26672 30.2224C8.35617 30.2922 8.81463 30.2224 8.92086 30.2224H41.656C41.751 30.2224 42.1815 30.2869 42.2598 30.2224C42.3045 30.1848 42.271 29.9268 42.271 29.8623V25.5575C42.271 25.3532 42.3325 25.3049 42.1592 25.2673C41.8069 25.1866 41.3317 25.2673 40.9683 25.2673H37.8821C37.3621 25.2673 36.831 25.1974 36.4172 24.8749C36.0706 24.6008 35.9141 24.2139 35.7352 23.8323C35.4109 23.1336 35.0642 22.4404 34.7288 21.7471C33.9405 20.1187 33.1186 18.4956 32.3638 16.8511C32.1402 16.3727 32.1234 15.8461 32.4085 15.3839C32.8278 14.696 33.7559 14.4326 34.4995 14.7927C35.1928 15.1313 35.4556 15.9912 35.7631 16.6253C36.2383 17.6088 36.7136 18.587 37.1832 19.5705C37.3733 19.9628 37.5578 20.3497 37.7479 20.7421C37.7926 20.8334 37.8653 21.1129 37.9548 21.1666C38.0666 21.2311 38.4356 21.1666 38.5586 21.1666H45.0609C43.4786 20.0542 42.886 17.985 43.6743 16.2545C44.3676 14.6852 46.0673 13.691 47.8396 13.8092ZM30.9828 14.2123V15.0238H17.0166C16.7874 15.0238 16.396 15.099 16.1779 15.0238C16.1276 15.0077 16.1164 15.0345 16.0885 15.0023C16.0493 14.9539 16.0885 14.7013 16.0885 14.6422V14.0564C16.0885 13.7555 16.0717 13.7984 16.3569 13.7984H30.7536C31.0835 13.8038 30.9828 13.8737 30.9828 14.2123ZM38.7822 9.21953V9.73009H16.4184C16.3624 9.73009 16.1556 9.76233 16.1108 9.73009C16.0158 9.66022 16.0885 9.14966 16.0885 9.0153C16.0885 8.8702 16.0214 8.56386 16.1388 8.50474C16.2059 8.4725 16.4016 8.50474 16.4799 8.50474H38.1896C38.3405 8.50474 38.704 8.451 38.7822 8.54774C38.8605 8.64448 38.7822 9.09592 38.7822 9.21953Z" fill="url(#paint1_linear_195_692)"/>
<path d="M48.7543 21.7679C48.3014 21.8163 47.8821 21.9506 47.418 21.9345C47.0378 21.9238 46.6968 21.8055 46.3278 21.7679C46.1768 21.7518 46.0091 21.7679 45.8526 21.7679H43.2695C41.486 21.7679 39.6969 21.7948 37.9078 21.7679C37.7121 21.7625 37.5723 21.7679 37.4437 21.5744C37.3263 21.3971 37.2537 21.1767 37.1586 20.9886C36.7505 20.1449 36.3423 19.3011 35.9342 18.4519C35.5484 17.6565 35.1682 16.8665 34.7824 16.0711C34.693 15.8884 34.6147 15.6734 34.4693 15.5229C33.9158 14.9371 32.8647 15.2865 32.8144 16.0819C32.7809 16.5494 33.1946 17.1299 33.3903 17.5329C33.8152 18.4143 34.2401 19.2957 34.6706 20.1825L35.9286 22.7944C36.141 23.2405 36.3703 23.9553 36.7169 24.31C37.2201 24.8205 38.3495 24.6485 39.0092 24.6485H42.0563C42.2464 24.6485 42.5651 24.5894 42.744 24.6915C42.9564 24.8151 42.8949 25.1537 42.8949 25.3687V32.3284C44.9971 31.877 47.2 32.9142 48.1337 34.7684C49.0338 36.558 48.5754 38.7615 47.0323 40.089C47.6249 40.0997 48.2175 40.2394 48.7543 40.492C49.2742 40.7393 49.7327 41.0886 50.1017 41.5132C50.5042 41.9807 50.6832 42.4805 50.918 43.0341C50.9963 43.2168 51.0074 43.1738 51.2255 43.1738H51.8181C51.9132 43.1738 52.1033 43.2114 52.148 43.147C52.2207 43.0448 52.148 42.6256 52.148 42.502V25.1537C52.148 25.1215 52.1256 24.9925 52.148 24.9656C52.1759 24.9334 52.7071 24.9173 52.7518 24.9549C52.8469 25.0247 52.7854 25.4009 52.7854 25.5407V36.5527C53.6911 36.4989 54.5745 36.1066 54.882 35.236C54.9994 34.9027 55.0106 34.5588 55.0106 34.2148V25.1269C55.0106 24.4228 54.7757 23.7295 54.3452 23.1599C53.5961 22.1656 52.4555 21.7679 51.2199 21.7679C50.4148 21.7679 49.5594 21.6873 48.7543 21.7679Z" fill="url(#paint2_linear_195_692)"/>
<path d="M48.8543 14.649C47.2106 14.0256 45.2817 14.6813 44.4095 16.1592C43.6212 17.4974 43.8672 19.2226 44.9966 20.3082C46.0253 21.2971 47.6131 21.5927 48.955 21.0445C50.2633 20.507 51.1355 19.2333 51.1355 17.8683C51.1299 16.4602 50.2074 15.165 48.8543 14.649ZM0.766416 45.503V46.3737C0.766416 46.4274 0.732869 46.6477 0.772006 46.6854C0.811143 46.723 1.09069 46.6854 1.14101 46.6854H4.74719C4.78632 46.6854 4.99319 46.7122 5.02673 46.6854C5.07705 46.637 5.02673 46.2877 5.02673 46.2232V45.2988C5.02673 44.799 5.00437 44.2884 5.03792 43.7886H1.46529C1.29756 43.7886 1.04037 43.7402 0.878235 43.7886C0.738461 43.8316 0.816734 43.7456 0.772006 43.8746C0.704914 44.0466 0.772006 44.369 0.772006 44.5518C0.766415 44.8635 0.766416 45.1859 0.766416 45.503ZM19.362 46.6854C19.4347 46.7284 19.6695 46.6854 19.7589 46.6854H20.2398C20.3348 46.6854 20.8268 46.7499 20.8995 46.6854C20.9442 46.6424 20.8995 46.3092 20.8995 46.2447V45.2934C20.8995 44.7936 20.8771 44.283 20.9107 43.7832H19.3005C19.3396 44.3744 19.3117 44.9763 19.3117 45.5675C19.3005 45.7879 19.1887 46.5886 19.362 46.6854ZM35.2347 46.6854C35.3074 46.7284 35.5422 46.6854 35.6317 46.6854H36.1125C36.2076 46.6854 36.6996 46.7499 36.7723 46.6854C36.817 46.6424 36.7723 46.3092 36.7723 46.2447V45.2934C36.7723 44.7936 36.7499 44.283 36.7834 43.7832H35.1732C35.2124 44.3744 35.1844 44.9763 35.1844 45.5675C35.1732 45.7879 35.0614 46.5886 35.2347 46.6854ZM55.133 43.7832H51.0404C51.0963 44.6163 51.0516 45.46 51.0516 46.293C51.0516 46.3522 51.0125 46.6155 51.0516 46.6585C51.0795 46.6907 51.074 46.6585 51.1299 46.68C51.3479 46.7606 51.7784 46.68 52.0077 46.68H54.6745C54.7528 46.68 55.0883 46.723 55.1386 46.6692C55.1721 46.6316 55.1386 46.4166 55.1386 46.3683V45.8255C55.133 45.1483 55.133 44.4658 55.133 43.7832ZM5.6697 50.0336C5.69206 50.0551 5.82624 50.0336 5.8542 50.0336H18.2941C18.3668 50.0336 18.5457 50.0658 18.6072 50.0336C18.719 49.9798 18.6631 49.4961 18.6631 49.3618V44.0412C18.6631 43.4608 18.5066 42.8857 18.2046 42.3859C17.6288 41.4185 16.5553 40.7736 15.3924 40.7091C15.0849 40.693 14.7047 40.65 14.4028 40.7037C14.1456 40.7467 13.8661 40.9402 13.6089 41.0155C13.3014 41.1122 12.9827 41.1767 12.6584 41.2089C11.9428 41.2788 11.2159 41.1982 10.545 40.9563C10.3102 40.8703 10.0922 40.7306 9.84615 40.6984C9.68401 40.6769 9.51069 40.6984 9.34855 40.6984C8.29186 40.6984 7.30785 41.0155 6.58102 41.7786C5.51874 42.8911 5.6641 44.3045 5.6641 45.6911V49.6842C5.65851 49.7487 5.64174 50.0067 5.6697 50.0336Z" fill="url(#paint3_linear_195_692)"/>
<path d="M12.5585 32.8537C10.7694 32.6871 9.03616 33.7082 8.38761 35.3205C7.73347 36.9328 8.29815 38.8138 9.73503 39.8457C10.8644 40.6572 12.3963 40.8453 13.7046 40.3294C15.2086 39.7382 16.215 38.2871 16.215 36.7286C16.215 34.7508 14.6048 33.0472 12.5585 32.8537ZM21.5432 50.0354C21.5655 50.0569 21.6997 50.0354 21.7277 50.0354H34.1676C34.2403 50.0354 34.4192 50.0676 34.4807 50.0354C34.5925 49.9816 34.5366 49.4979 34.5366 49.3636V44.043C34.5366 43.4626 34.38 42.8875 34.0781 42.3877C33.5022 41.4203 32.4288 40.7754 31.2659 40.7109C30.9584 40.6948 30.5782 40.6518 30.2763 40.7056C30.0191 40.7486 29.7395 40.942 29.4823 41.0173C29.1748 41.114 28.8561 41.1785 28.5319 41.2107C27.8162 41.2806 27.0894 41.2 26.4185 40.9582C26.1837 40.8722 25.9656 40.7324 25.7196 40.7002C25.5575 40.6787 25.3842 40.7002 25.222 40.7002C24.1653 40.7002 23.1813 41.0173 22.4545 41.7804C21.3922 42.8929 21.5376 44.3064 21.5376 45.6929V49.6861C21.532 49.7505 21.5152 50.0085 21.5432 50.0354Z" fill="url(#paint4_linear_195_692)"/>
<path d="M26.1579 40.1815C28.8081 41.5251 32.0955 39.6118 32.0955 36.7366C32.0955 34.4471 29.9654 32.6145 27.6004 32.8671C25.5206 33.0874 23.9271 34.8609 23.9942 36.8709C24.0445 38.2521 24.8832 39.5312 26.1579 40.1815ZM37.4237 50.038C37.4461 50.0595 37.5803 50.038 37.6082 50.038H50.0481C50.1208 50.038 50.2997 50.0703 50.3612 50.038C50.4731 49.9843 50.4171 49.5006 50.4171 49.3662V44.0457C50.4171 43.4652 50.2606 42.8902 49.9587 42.3904C49.3828 41.423 48.3094 40.7781 47.1464 40.7136C46.8389 40.6975 46.4587 40.6545 46.1568 40.7082C45.8996 40.7512 45.6201 40.9447 45.3629 41.0199C45.0554 41.1167 44.7367 41.1811 44.4124 41.2134C43.7024 41.2833 42.9812 41.2026 42.3102 40.9662C42.0698 40.8802 41.8462 40.7351 41.5946 40.7028C41.4325 40.6813 41.2591 40.7028 41.097 40.7028C40.0403 40.7028 39.0563 41.0199 38.3295 41.7831C37.2672 42.8956 37.4126 44.309 37.4126 45.6956V49.6887C37.4126 49.7532 37.3958 50.0112 37.4237 50.038Z" fill="url(#paint5_linear_195_692)"/>
<path d="M45.4528 40.3311C46.9512 39.7399 47.9632 38.2888 47.9632 36.7303C47.9632 34.3978 45.7547 32.5544 43.3562 32.8715C41.7404 33.0865 40.3762 34.2581 39.9848 35.7844C39.5767 37.3591 40.2532 39.0466 41.6454 39.9549C42.7524 40.6804 44.206 40.8255 45.4528 40.3311ZM55.1364 52.8748V50.6498H1.60284C1.39597 50.6498 1.03815 50.5799 0.842468 50.6498C0.764194 50.6767 0.797739 50.6283 0.764194 50.682C0.697102 50.7734 0.764194 51.1496 0.764194 51.2625V53.1166C0.764194 53.1757 0.719466 53.4982 0.764194 53.5412C0.780966 53.5573 0.842467 53.5358 0.864831 53.5412C1.09406 53.6003 1.43511 53.5412 1.66993 53.5412H54.7785C54.9127 53.5412 55.0805 53.5788 55.1308 53.4928C55.209 53.3799 55.1364 53.0145 55.1364 52.8748Z" fill="url(#paint6_linear_195_692)"/>
<defs>
<linearGradient id="paint0_linear_195_692" x1="28.037" y1="0.832031" x2="28.037" y2="32.6731" gradientUnits="userSpaceOnUse">
<stop stop-color="#FF8541"/>
<stop offset="1" stop-color="#E84975"/>
</linearGradient>
<linearGradient id="paint1_linear_195_692" x1="28.0434" y1="3.22656" x2="28.0434" y2="30.2534" gradientUnits="userSpaceOnUse">
<stop stop-color="#FF8541"/>
<stop offset="1" stop-color="#E84975"/>
</linearGradient>
<linearGradient id="paint2_linear_195_692" x1="43.9115" y1="15.2305" x2="43.9115" y2="43.1847" gradientUnits="userSpaceOnUse">
<stop stop-color="#FF8541"/>
<stop offset="1" stop-color="#E84975"/>
</linearGradient>
<linearGradient id="paint3_linear_195_692" x1="27.9478" y1="14.4141" x2="27.9478" y2="50.0479" gradientUnits="userSpaceOnUse">
<stop stop-color="#FF8541"/>
<stop offset="1" stop-color="#E84975"/>
</linearGradient>
<linearGradient id="paint4_linear_195_692" x1="21.3339" y1="32.8359" x2="21.3339" y2="50.0497" gradientUnits="userSpaceOnUse">
<stop stop-color="#FF8541"/>
<stop offset="1" stop-color="#E84975"/>
</linearGradient>
<linearGradient id="paint5_linear_195_692" x1="37.2117" y1="32.8438" x2="37.2117" y2="50.0524" gradientUnits="userSpaceOnUse">
<stop stop-color="#FF8541"/>
<stop offset="1" stop-color="#E84975"/>
</linearGradient>
<linearGradient id="paint6_linear_195_692" x1="27.9507" y1="32.8359" x2="27.9507" y2="53.5674" gradientUnits="userSpaceOnUse">
<stop stop-color="#FF8541"/>
<stop offset="1" stop-color="#E84975"/>
</linearGradient>
</defs>
</svg>
