<svg width="64" height="55" viewBox="0 0 64 55" fill="none" xmlns="http://www.w3.org/2000/svg">
<path d="M27.999 16.6902C28.1039 16.7688 28.2086 16.8474 28.317 16.9199C28.4148 16.9844 28.517 17.0435 28.619 17.1025C28.7299 17.1679 28.8413 17.2299 28.9551 17.2889C29.0877 17.3564 29.2203 17.4231 29.3569 17.4819C29.4133 17.5062 29.4703 17.5263 29.5272 17.549C29.6634 17.6035 29.8009 17.6548 29.941 17.7003C30.0015 17.7199 30.0625 17.737 30.1235 17.7551C30.2631 17.796 30.4053 17.8323 30.5489 17.864C30.6114 17.8777 30.6748 17.8917 30.7385 17.9044C30.8866 17.9325 31.0368 17.9542 31.188 17.9728C31.2475 17.9799 31.3064 17.9896 31.3664 17.9951C31.5751 18.0147 31.7863 18.0268 32.0005 18.0268C32.2147 18.0268 32.4259 18.0147 32.6351 17.9951C32.6945 17.9896 32.7535 17.9799 32.813 17.9729C32.9636 17.955 33.1135 17.9321 33.2626 17.9044C33.3261 17.8923 33.3897 17.8781 33.4526 17.864C33.5959 17.8317 33.7378 17.796 33.8775 17.7551C33.9384 17.7376 33.9995 17.7199 34.06 17.7003C34.1996 17.6545 34.3376 17.6041 34.4738 17.549C34.5307 17.5263 34.5877 17.5062 34.6441 17.4819C34.7808 17.423 34.9133 17.3564 35.0458 17.2889C35.1597 17.23 35.2718 17.1678 35.3821 17.1025C35.4839 17.0435 35.5862 16.9845 35.684 16.92C35.7924 16.8484 35.8966 16.7688 36.0021 16.6901C37.6285 15.4754 38.687 13.5459 38.687 11.3706C38.687 7.70026 35.6875 4.71484 32.001 4.71484C28.3146 4.71484 25.3141 7.70013 25.3141 11.3706C25.3141 13.5461 26.3725 15.4748 27.999 16.6901V16.6902ZM36.7652 18.173C36.751 18.1831 36.7364 18.1906 36.7232 18.1997C36.6401 18.2572 36.5539 18.3096 36.4688 18.364C36.3421 18.4456 36.2132 18.5238 36.0822 18.5983C35.8458 18.7315 35.603 18.8531 35.3548 18.9627C35.2994 18.987 35.2454 19.0132 35.1895 19.0364C34.7226 19.2305 34.2387 19.381 33.744 19.4859C33.6845 19.4991 33.625 19.5092 33.565 19.5208C33.37 19.5574 33.1738 19.5873 32.9768 19.6105C32.9088 19.6181 32.8413 19.6276 32.7726 19.6337C32.5172 19.6569 32.2601 19.673 32 19.673C31.7399 19.673 31.4828 19.6573 31.2274 19.6337C31.1587 19.6276 31.0912 19.6181 31.0232 19.6105C30.8261 19.588 30.6299 19.5581 30.435 19.5208C30.375 19.5092 30.3155 19.4991 30.256 19.4859C29.7613 19.3812 29.2773 19.2307 28.8105 19.0364C28.7546 19.0132 28.7006 18.987 28.6452 18.9628C28.4793 18.8896 28.3159 18.811 28.1552 18.727C28.0756 18.6851 27.9964 18.6422 27.9178 18.5983C27.7869 18.5237 27.658 18.4455 27.5312 18.364C27.4461 18.3096 27.3599 18.2572 27.2768 18.1997C27.2631 18.1907 27.2484 18.1826 27.2348 18.173C23.4154 19.7702 20.8786 23.5536 20.8786 27.7214V31.3579H24.9854V28.9134C24.9854 28.4582 25.3528 28.0898 25.8061 28.0898C26.259 28.0898 26.6264 28.4583 26.6264 28.9134V31.3579H37.3745V28.9134C37.3745 28.4582 37.7419 28.0898 38.1951 28.0898C38.6483 28.0898 39.0157 28.4583 39.0157 28.9134V31.3579H43.1225V27.7214C43.1214 23.5536 40.5846 19.7702 36.765 18.173H36.7652ZM11.6436 11.5499C11.7641 11.269 11.8904 10.9906 12.0222 10.7148C12.0458 10.6658 12.0711 10.6181 12.0947 10.569C12.2263 10.3019 12.3604 10.0369 12.5025 9.77484C12.5323 9.72091 12.5631 9.66839 12.5928 9.61446C12.7081 9.40581 12.8212 9.19665 12.944 8.99059C11.9486 7.79342 10.4563 7.09278 8.85884 7.09278C5.95613 7.09278 3.59471 9.3942 3.59471 12.2218C3.59471 13.7572 4.29381 15.1332 5.39368 16.0742C5.86868 16.4798 6.41166 16.7982 6.99755 17.0147C7.004 17.0173 7.01058 17.0192 7.01716 17.0218C7.20258 17.0893 7.39213 17.1463 7.58361 17.1937C7.59677 17.1966 7.61032 17.2001 7.624 17.2037C7.81858 17.2496 8.01561 17.2854 8.21471 17.3101C8.21987 17.3106 8.22529 17.3116 8.23084 17.3127C8.84168 17.3852 9.46826 17.3514 10.0837 17.2057C10.0902 17.1543 10.1008 17.1039 10.1079 17.0525C10.1375 16.8394 10.1724 16.6276 10.2086 16.4164C10.2369 16.2511 10.2652 16.0853 10.2974 15.9205C10.3292 15.7566 10.3649 15.5928 10.4006 15.4306C10.4466 15.2203 10.4939 15.0112 10.5454 14.803C10.5746 14.6887 10.6053 14.5752 10.6361 14.4618C10.7026 14.2128 10.7716 13.9653 10.8467 13.7199C10.8694 13.6458 10.8947 13.5716 10.9183 13.4976C11.0051 13.2228 11.0977 12.9498 11.1961 12.679C11.2142 12.6281 11.2339 12.5783 11.2525 12.5283C11.3588 12.2431 11.4693 11.9603 11.5883 11.6795C11.6058 11.6356 11.6254 11.5933 11.6436 11.5499ZM10.8538 26.5057C10.7597 26.2012 10.6725 25.8947 10.5923 25.5863C10.5772 25.5283 10.563 25.4698 10.5489 25.4124C10.4787 25.1363 10.4145 24.8587 10.3564 24.5797C10.3399 24.5019 10.324 24.4239 10.3085 24.3458C10.2571 24.0847 10.2102 23.8227 10.1679 23.56C10.1528 23.4679 10.1382 23.3761 10.125 23.2839C10.088 23.0303 10.0556 22.7761 10.0277 22.5213C10.0166 22.4214 10.0045 22.3217 9.99497 22.2214C9.97032 21.9634 9.95161 21.7048 9.93548 21.4452C9.92994 21.3499 9.9209 21.2551 9.91677 21.1594C9.89974 20.8076 9.89006 20.4548 9.89006 20.1004C9.89006 19.7027 9.90219 19.3085 9.92335 18.9164C9.88606 18.9219 9.84826 18.923 9.8111 18.928C9.6431 18.9512 9.47574 18.9698 9.30697 18.9809C9.24193 18.985 9.17742 18.9865 9.11239 18.989C9.02826 18.992 8.944 18.9996 8.85948 18.9996C8.79987 18.9996 8.74245 18.992 8.68297 18.9906C8.58271 18.988 8.48297 18.9828 8.3831 18.9754C8.24313 18.9664 8.10345 18.9533 7.96426 18.9361C7.88829 18.926 7.81249 18.9145 7.7369 18.9018C7.57713 18.8764 7.41828 18.8454 7.26064 18.809C7.20671 18.7965 7.15419 18.7823 7.10077 18.7688C6.92858 18.7243 6.75813 18.6734 6.58981 18.616C6.54787 18.6014 6.50658 18.5858 6.46465 18.5712C6.29331 18.5091 6.12453 18.4402 5.95871 18.3645C5.91639 18.3453 5.87445 18.3247 5.83264 18.3045C5.67368 18.2283 5.51766 18.1461 5.3649 18.0581C5.31755 18.0303 5.27071 18.0021 5.22323 17.9734C5.07956 17.8855 4.93905 17.7925 4.80194 17.6947C4.77677 17.6765 4.74955 17.6614 4.72426 17.6427C1.8391 18.997 0 21.873 0 25.0954V27.6594H11.2414C11.1095 27.3018 10.9871 26.9408 10.8745 26.5768C10.8675 26.553 10.8609 26.5293 10.8538 26.5057ZM51.7026 11.675C51.8254 11.9663 51.9416 12.2604 52.051 12.557C52.0721 12.6145 52.0928 12.6719 52.1139 12.7299C52.2044 12.9808 52.2901 13.2334 52.371 13.4875C52.4043 13.5898 52.4355 13.6927 52.4672 13.7959C52.5288 13.9986 52.5857 14.2023 52.6412 14.4074C52.683 14.5605 52.7237 14.7143 52.7615 14.869C52.7974 15.0132 52.8302 15.1588 52.8624 15.304C52.9102 15.5152 52.9566 15.7265 52.9979 15.9396C53.0116 16.0106 53.0237 16.0818 53.0363 16.1528L53.0543 16.2526C53.055 16.2556 53.0565 16.2582 53.0569 16.2612L53.065 16.3111C53.1034 16.5293 53.1417 16.7476 53.1739 16.9679C53.3578 17.0404 53.5428 17.1105 53.7329 17.1614C53.7379 17.1628 53.743 17.164 53.748 17.1649C55.427 17.6094 57.2848 17.2072 58.6074 16.0746C59.7062 15.1337 60.4048 13.7582 60.4048 12.2239C60.4048 9.39626 58.0434 7.09484 55.1406 7.09484C53.2974 7.09484 51.62 8.01923 50.6643 9.53381C51.0444 10.2154 51.38 10.915 51.6819 11.6271C51.6895 11.6413 51.6961 11.6578 51.7026 11.675Z" fill="url(#paint0_linear_195_679)"/>
<path d="M55.81 45.0132C55.555 44.7601 55.2118 44.6179 54.8422 44.6139H54.8242C54.692 44.6139 54.49 44.7056 54.2742 44.8326L44.9381 35.1674C47.1774 33.1915 48.9804 30.7324 50.1665 27.9471C50.1856 27.9017 50.2022 27.8564 50.2213 27.8116C50.3287 27.5536 50.4329 27.2938 50.5302 27.0307C50.5479 26.9813 50.564 26.9314 50.5817 26.8821C50.6764 26.6185 50.7688 26.3528 50.8528 26.0841C50.8618 26.0534 50.87 26.0232 50.8796 25.9929C51.4662 24.0843 51.7638 22.0986 51.7626 20.1018C51.7626 19.7001 51.748 19.2903 51.7218 18.876C51.7203 18.8463 51.7173 18.8179 51.7154 18.7888C51.687 18.385 51.6492 17.9773 51.5963 17.5671C51.5645 17.3186 51.528 17.0707 51.487 16.8236C51.487 16.8231 51.4865 16.8226 51.4865 16.8226L51.4496 16.5938C51.4007 16.316 51.3461 16.0392 51.2857 15.7636C51.2602 15.6477 51.2328 15.5314 51.2052 15.4159C51.0883 14.9236 50.9522 14.4361 50.7969 13.9546C50.7303 13.7464 50.6601 13.5394 50.5862 13.3337C50.555 13.2454 50.5222 13.1578 50.49 13.0701C50.4012 12.8326 50.308 12.5968 50.2107 12.3639C50.1875 12.3075 50.1634 12.252 50.1391 12.1961C50.0299 11.9408 49.9153 11.6879 49.7954 11.4374C49.7799 11.4032 49.7626 11.3699 49.746 11.3361C49.616 11.0684 49.48 10.8035 49.3382 10.5418C49.3318 10.5297 49.3247 10.5172 49.3176 10.5045C45.9034 4.252 39.2631 0 31.6472 0C24.4103 0 18.0565 3.84026 14.5115 9.58619C14.4328 9.71316 14.3587 9.84219 14.2836 9.97032C14.1799 10.1471 14.075 10.3231 13.9767 10.503C13.9298 10.5888 13.888 10.6759 13.8426 10.7615C13.584 11.252 13.3412 11.752 13.1234 12.2652C13.1204 12.2726 13.1169 12.2794 13.1143 12.2863C13.015 12.5196 12.9243 12.757 12.8341 12.995C12.7998 13.0846 12.7635 13.1743 12.7313 13.2652C12.6534 13.4817 12.5794 13.6996 12.5094 13.9188C12.4702 14.0399 12.4307 14.1608 12.3941 14.2827C12.3346 14.4809 12.2781 14.6804 12.2238 14.881C12.1815 15.04 12.141 15.1995 12.1022 15.3594C12.0604 15.5296 12.0208 15.7003 11.9833 15.8715C11.9382 16.0854 11.8965 16.2999 11.8582 16.5151C11.8578 16.5172 11.8582 16.5191 11.8578 16.5212C11.827 16.6951 11.7983 16.8696 11.7706 17.0449C11.7706 17.0463 11.7696 17.0475 11.7691 17.0488C11.7394 17.2449 11.7131 17.4421 11.6894 17.6396V17.6422C11.6365 18.0654 11.5982 18.4754 11.572 18.8781C11.5715 18.8861 11.5705 18.8947 11.57 18.9027C11.5442 19.3085 11.5313 19.7062 11.5313 20.1023C11.5304 22.1024 11.8289 24.0913 12.4168 26.003C12.4253 26.0297 12.4319 26.0569 12.44 26.0832C12.5252 26.3543 12.6178 26.623 12.7136 26.8897C12.7303 26.9365 12.7453 26.9834 12.7626 27.0303C12.8613 27.2958 12.9654 27.5593 13.075 27.8205C13.0927 27.8625 13.1088 27.9043 13.126 27.945C16.1905 35.1437 23.3381 40.2046 31.6471 40.2046C35.7503 40.2046 39.5684 38.9662 42.7534 36.8498L52.1818 46.6103L52.1768 46.6159C51.6345 47.1294 51.6229 47.9759 52.1527 48.5021L57.9978 54.3085C58.2529 54.5614 58.5962 54.7041 58.9656 54.7081C59.3532 54.7279 59.6818 54.5796 60.4907 53.7837L62.1783 52.1578C62.1749 52.1936 62.186 51.3472 61.6558 50.82L55.81 45.0132ZM44.7631 32.1825C44.7631 32.6376 44.3958 33.0061 43.9425 33.0061H20.0586C19.6054 33.0061 19.238 32.6376 19.238 32.1825V27.7228C19.238 23.1583 21.8663 18.999 25.8892 16.9915C24.5187 15.5111 23.6734 13.5408 23.6734 11.372C23.6734 6.79394 27.4089 3.07006 32 3.07006C36.5907 3.07006 40.3271 6.79394 40.3271 11.372C40.3271 13.5408 39.4823 15.5111 38.1114 16.9914C42.1341 18.9995 44.7626 23.1583 44.7626 27.7228L44.7631 32.1825Z" fill="url(#paint1_linear_195_679)"/>
<path d="M59.2795 17.6445C59.2477 17.6683 59.2139 17.6879 59.1822 17.7111C59.081 17.7833 58.9779 17.8529 58.8731 17.9198C58.8117 17.9591 58.7486 17.9954 58.6857 18.0316C58.5753 18.0967 58.465 18.1627 58.3506 18.2212C58.3081 18.2434 58.2638 18.2616 58.221 18.2827C57.9943 18.394 57.7615 18.4926 57.5239 18.5781C57.4458 18.6062 57.3686 18.637 57.29 18.6622C57.1877 18.695 57.0833 18.7227 56.9791 18.751C56.8792 18.7781 56.7789 18.8044 56.6777 18.8271C56.4591 18.8762 56.2382 18.9144 56.0158 18.9416C55.9366 18.951 55.8586 18.9626 55.7795 18.9697C55.5691 18.9888 55.3575 19.0014 55.1449 19.0014C54.858 19.0014 54.5743 18.9813 54.2925 18.9465C54.2002 18.9349 54.1095 18.9137 54.0178 18.8991C53.8294 18.8679 53.6413 18.8351 53.4564 18.7887C53.4251 18.7807 53.3938 18.7781 53.3631 18.7706C53.3636 18.7817 53.3636 18.7933 53.3641 18.8044C53.3893 19.2343 53.4064 19.6663 53.4064 20.1027C53.4064 20.457 53.3964 20.8098 53.3797 21.1617C53.3752 21.2569 53.3667 21.3523 53.3611 21.4475C53.345 21.7071 53.3273 21.9662 53.3017 22.2238C53.292 22.3244 53.2795 22.4243 53.2689 22.5236C53.241 22.7784 53.2086 23.0326 53.1716 23.2862C53.1584 23.3785 53.1433 23.4702 53.1288 23.5623C53.0864 23.8256 53.0395 24.0871 52.9881 24.3481C52.9725 24.4263 52.9569 24.5044 52.9408 24.5821C52.8823 24.8608 52.8173 25.1385 52.7482 25.4147C52.7335 25.4721 52.7195 25.5306 52.7049 25.5887C52.6242 25.8965 52.537 26.2025 52.4427 26.508C52.4357 26.5312 52.4291 26.5554 52.4215 26.5786C52.3081 26.9419 52.1882 27.3034 52.0547 27.6612H64.0037V25.0973C64.0037 21.8754 62.1645 18.9994 59.2795 17.6445Z" fill="url(#paint2_linear_195_679)"/>
<defs>
<linearGradient id="paint0_linear_195_679" x1="30.2024" y1="4.71484" x2="30.2024" y2="31.3579" gradientUnits="userSpaceOnUse">
<stop stop-color="#FF8541"/>
<stop offset="1" stop-color="#E84975"/>
</linearGradient>
<linearGradient id="paint1_linear_195_679" x1="36.8548" y1="0" x2="36.8548" y2="54.7098" gradientUnits="userSpaceOnUse">
<stop stop-color="#FF8541"/>
<stop offset="1" stop-color="#E84975"/>
</linearGradient>
<linearGradient id="paint2_linear_195_679" x1="58.0292" y1="17.6445" x2="58.0292" y2="27.6612" gradientUnits="userSpaceOnUse">
<stop stop-color="#FF8541"/>
<stop offset="1" stop-color="#E84975"/>
</linearGradient>
</defs>
</svg>
