<svg width="52" height="62" viewBox="0 0 52 62" fill="none" xmlns="http://www.w3.org/2000/svg">
<path fill-rule="evenodd" clip-rule="evenodd" d="M29.2606 1.32127L32.5402 3.77614C33.4372 4.44752 34.3814 4.79114 35.5 4.85339L39.5902 5.08089C42.0395 5.21714 44.0286 6.88626 44.5881 9.27464L45.5225 13.2633C45.778 14.3541 46.2804 15.2243 47.0972 15.9909L50.0844 18.7945C51.873 20.4731 52.3239 23.0304 51.2172 25.2196L49.3691 28.8758C48.8637 29.8756 48.6892 30.8651 48.8222 31.9775L49.3085 36.0453C49.5996 38.4809 48.3012 40.7296 46.0464 41.6954L42.2805 43.3081C41.2505 43.7493 40.4809 44.395 39.8677 45.3328L37.6255 48.7613C36.283 50.8141 33.8429 51.7023 31.4947 50.9926L27.5732 49.8075C26.5007 49.4834 25.4961 49.4834 24.4236 49.8075L20.5021 50.9926C18.154 51.7023 15.714 50.8141 14.3714 48.7613L12.1291 45.3328C11.5159 44.395 10.7462 43.7493 9.71623 43.3083L5.9506 41.6953C3.69573 40.7296 2.39735 38.4808 2.68848 36.0451L3.17473 31.9774C3.3076 30.8649 3.13323 29.8755 2.62773 28.8756L0.779603 25.2195C-0.327022 23.0304 0.123978 20.4731 1.91248 18.7944L4.8996 15.9908C5.71648 15.224 6.21885 14.354 6.47435 13.2631L7.40873 9.27452C7.96823 6.88614 9.95735 5.21702 12.4066 5.08077L16.4969 4.85327C17.6156 4.79102 18.5597 4.44739 19.4566 3.77602L22.7362 1.32114C24.7001 -0.148734 27.2969 -0.148734 29.2606 1.32127ZM23.9065 27.1314L20.3474 23.5723C19.4249 22.6499 17.9286 22.6499 17.0061 23.5723C16.0837 24.4948 16.0837 25.991 17.0061 26.9134L22.241 32.1481C23.1634 33.0705 24.6597 33.0705 25.5821 32.1481C28.7375 28.9928 31.857 25.802 34.9976 22.6321C35.9134 21.7079 35.9105 20.2164 34.9874 19.2984C34.0641 18.3801 32.5684 18.3828 31.6516 19.3088L23.9065 27.1314ZM25.9985 7.99302C21.1017 7.99302 16.6684 9.97789 13.4591 13.187C10.25 16.3961 8.2651 20.8295 8.2651 25.7263C8.2651 30.623 10.2501 35.0565 13.4591 38.2655C16.6682 41.4746 21.1016 43.4595 25.9985 43.4595C30.8952 43.4595 35.3287 41.4745 38.5377 38.2655C41.7469 35.0565 43.7317 30.623 43.7317 25.7263C43.7317 20.8294 41.7469 16.3961 38.5377 13.187C35.3287 9.97802 30.8954 7.99302 25.9985 7.99302ZM37.1237 14.6011C34.2766 11.754 30.3432 9.99302 25.9985 9.99302C21.6537 9.99302 17.7204 11.754 14.8732 14.6011C12.0261 17.4483 10.2651 21.3816 10.2651 25.7264C10.2651 30.0711 12.0261 34.0045 14.8732 36.8516C17.7204 39.6988 21.6537 41.4598 25.9985 41.4598C30.3432 41.4598 34.2766 39.6988 37.1237 36.8516C39.9709 34.0045 41.7319 30.0711 41.7319 25.7264C41.7319 21.3816 39.9709 17.4483 37.1237 14.6011ZM32.662 53.2189L36.5487 61.5674C36.6092 61.6973 36.7286 61.7773 36.8717 61.7838C37.0149 61.7903 37.141 61.7215 37.213 61.5975L40.1119 56.6088L45.7957 57.6019C45.9369 57.6265 46.0707 57.5744 46.1579 57.4606C46.245 57.3469 46.2607 57.2041 46.2002 57.0743L41.3674 46.6936L39.2994 49.8558C37.8067 52.1381 35.2791 53.3736 32.662 53.2189ZM19.4851 53.2085C16.8149 53.4203 14.2189 52.1816 12.6977 49.8558L10.7145 46.8233L5.94198 57.0743C5.91212 57.1362 5.90026 57.2052 5.90775 57.2735C5.91524 57.3418 5.94178 57.4067 5.98435 57.4606C6.02543 57.5157 6.08115 57.5582 6.14517 57.5832C6.2092 57.6081 6.27895 57.6146 6.34648 57.6019L12.0304 56.6088L14.9294 61.5975C15.0014 61.7214 15.1275 61.7901 15.2706 61.7836C15.4137 61.7771 15.5331 61.6973 15.5936 61.5673L19.4851 53.2085Z" fill="url(#paint0_linear_195_710)"/>
<defs>
<linearGradient id="paint0_linear_195_710" x1="25.9984" y1="0.21875" x2="25.9984" y2="61.7842" gradientUnits="userSpaceOnUse">
<stop stop-color="#FF8541"/>
<stop offset="1" stop-color="#E84975"/>
</linearGradient>
</defs>
</svg>
