<svg width="114" height="70" viewBox="0 0 114 70" fill="none" xmlns="http://www.w3.org/2000/svg">
<g clip-path="url(#clip0_203_137)">
<path d="M14.1082 32.4062H9.86545V20.7903C9.86545 20.4699 9.87003 20.0763 9.87918 19.6094C9.88834 19.1335 9.90207 18.6483 9.92037 18.154C9.93868 17.6506 9.95699 17.1975 9.9753 16.7947C9.87461 16.9137 9.66865 17.1197 9.35742 17.4126C9.05535 17.6963 8.77159 17.9526 8.50614 18.1815L6.19942 20.0351L4.15357 17.4812L10.6206 12.3323H14.1082V32.4062Z" fill="#FF8000"/>
<path d="M29.0971 22.311C29.0971 23.8826 28.9728 25.2855 28.7242 26.5197C28.4845 27.7539 28.0938 28.8016 27.5522 29.6629C27.0194 30.5241 26.318 31.1812 25.4479 31.634C24.5777 32.0868 23.5211 32.3132 22.278 32.3132C20.7153 32.3132 19.4323 31.9181 18.429 31.1279C17.4256 30.3288 16.6842 29.1834 16.2048 27.6917C15.7253 26.1911 15.4856 24.3976 15.4856 22.311C15.4856 20.2067 15.7031 18.4087 16.1382 16.917C16.5821 15.4164 17.3013 14.2666 18.2958 13.4675C19.2902 12.6684 20.6177 12.2688 22.278 12.2688C23.8319 12.2688 25.1105 12.6684 26.1138 13.4675C27.126 14.2577 27.8763 15.4031 28.3646 16.9037C28.853 18.3954 29.0971 20.1978 29.0971 22.311ZM19.5744 22.311C19.5744 23.7938 19.6543 25.0324 19.8141 26.0269C19.9828 27.0125 20.2625 27.7539 20.6532 28.2511C21.0439 28.7483 21.5855 28.9969 22.278 28.9969C22.9617 28.9969 23.4989 28.7528 23.8896 28.2644C24.2891 27.7672 24.5733 27.0258 24.742 26.0402C24.9107 25.0458 24.995 23.8027 24.995 22.311C24.995 20.8282 24.9107 19.5896 24.742 18.5951C24.5733 17.6007 24.2891 16.8548 23.8896 16.3576C23.4989 15.8515 22.9617 15.5985 22.278 15.5985C21.5855 15.5985 21.0439 15.8515 20.6532 16.3576C20.2625 16.8548 19.9828 17.6007 19.8141 18.5951C19.6543 19.5896 19.5744 20.8282 19.5744 22.311ZM44.161 22.311C44.161 23.8826 44.0367 25.2855 43.788 26.5197C43.5483 27.7539 43.1576 28.8016 42.616 29.6629C42.0833 30.5241 41.3818 31.1812 40.5117 31.634C39.6415 32.0868 38.5849 32.3132 37.3419 32.3132C35.7791 32.3132 34.4961 31.9181 33.4928 31.1279C32.4895 30.3288 31.7481 29.1834 31.2686 27.6917C30.7891 26.1911 30.5494 24.3976 30.5494 22.311C30.5494 20.2067 30.7669 18.4087 31.202 16.917C31.646 15.4164 32.3652 14.2666 33.3596 13.4675C34.3541 12.6684 35.6815 12.2688 37.3419 12.2688C38.8957 12.2688 40.1743 12.6684 41.1776 13.4675C42.1898 14.2577 42.9401 15.4031 43.4284 16.9037C43.9168 18.3954 44.161 20.1978 44.161 22.311ZM34.6382 22.311C34.6382 23.7938 34.7181 25.0324 34.8779 26.0269C35.0466 27.0125 35.3263 27.7539 35.717 28.2511C36.1077 28.7483 36.6493 28.9969 37.3419 28.9969C38.0255 28.9969 38.5627 28.7528 38.9534 28.2644C39.353 27.7672 39.6371 27.0258 39.8058 26.0402C39.9745 25.0458 40.0588 23.8027 40.0588 22.311C40.0588 20.8282 39.9745 19.5896 39.8058 18.5951C39.6371 17.6007 39.353 16.8548 38.9534 16.3576C38.5627 15.8515 38.0255 15.5985 37.3419 15.5985C36.6493 15.5985 36.1077 15.8515 35.717 16.3576C35.3263 16.8548 35.0466 17.6007 34.8779 18.5951C34.7181 19.5896 34.6382 20.8282 34.6382 22.311ZM59.2248 22.311C59.2248 23.8826 59.1005 25.2855 58.8519 26.5197C58.6121 27.7539 58.2215 28.8016 57.6798 29.6629C57.1471 30.5241 56.4456 31.1812 55.5755 31.634C54.7054 32.0868 53.6487 32.3132 52.4057 32.3132C50.843 32.3132 49.5599 31.9181 48.5566 31.1279C47.5533 30.3288 46.8119 29.1834 46.3324 27.6917C45.853 26.1911 45.6132 24.3976 45.6132 22.311C45.6132 20.2067 45.8308 18.4087 46.2658 16.917C46.7098 15.4164 47.429 14.2666 48.4234 13.4675C49.4179 12.6684 50.7453 12.2688 52.4057 12.2688C53.9595 12.2688 55.2381 12.6684 56.2414 13.4675C57.2536 14.2577 58.0039 15.4031 58.4923 16.9037C58.9806 18.3954 59.2248 20.1978 59.2248 22.311ZM49.702 22.311C49.702 23.7938 49.7819 25.0324 49.9417 26.0269C50.1105 27.0125 50.3901 27.7539 50.7808 28.2511C51.1715 28.7483 51.7131 28.9969 52.4057 28.9969C53.0894 28.9969 53.6265 28.7528 54.0172 28.2644C54.4168 27.7672 54.7009 27.0258 54.8696 26.0402C55.0383 25.0458 55.1227 23.8027 55.1227 22.311C55.1227 20.8282 55.0383 19.5896 54.8696 18.5951C54.7009 17.6007 54.4168 16.8548 54.0172 16.3576C53.6265 15.8515 53.0894 15.5985 52.4057 15.5985C51.7131 15.5985 51.1715 15.8515 50.7808 16.3576C50.3901 16.8548 50.1105 17.6007 49.9417 18.5951C49.7819 19.5896 49.702 20.8282 49.702 22.311ZM74.2886 22.311C74.2886 23.8826 74.1643 25.2855 73.9157 26.5197C73.676 27.7539 73.2853 28.8016 72.7437 29.6629C72.2109 30.5241 71.5095 31.1812 70.6393 31.634C69.7692 32.0868 68.7126 32.3132 67.4695 32.3132C65.9068 32.3132 64.6238 31.9181 63.6204 31.1279C62.6171 30.3288 61.8757 29.1834 61.3962 27.6917C60.9168 26.1911 60.677 24.3976 60.677 22.311C60.677 20.2067 60.8946 18.4087 61.3296 16.917C61.7736 15.4164 62.4928 14.2666 63.4873 13.4675C64.4817 12.6684 65.8091 12.2688 67.4695 12.2688C69.0233 12.2688 70.3019 12.6684 71.3053 13.4675C72.3175 14.2577 73.0677 15.4031 73.5561 16.9037C74.0444 18.3954 74.2886 20.1978 74.2886 22.311ZM64.7658 22.311C64.7658 23.7938 64.8457 25.0324 65.0056 26.0269C65.1743 27.0125 65.454 27.7539 65.8446 28.2511C66.2353 28.7483 66.7769 28.9969 67.4695 28.9969C68.1532 28.9969 68.6904 28.7528 69.0811 28.2644C69.4806 27.7672 69.7647 27.0258 69.9334 26.0402C70.1021 25.0458 70.1865 23.8027 70.1865 22.311C70.1865 20.8282 70.1021 19.5896 69.9334 18.5951C69.7647 17.6007 69.4806 16.8548 69.0811 16.3576C68.6904 15.8515 68.1532 15.5985 67.4695 15.5985C66.7769 15.5985 66.2353 15.8515 65.8446 16.3576C65.454 16.8548 65.1743 17.6007 65.0056 18.5951C64.8457 19.5896 64.7658 20.8282 64.7658 22.311Z" fill="#1E1E1E"/>
<path d="M94.1176 13.7461H79.6499C78.8509 13.7461 78.2031 14.4514 78.2031 15.3213V26.8731C78.2031 27.7431 78.8509 28.4484 79.6499 28.4484H94.1176C94.9167 28.4484 95.5644 27.7431 95.5644 26.8731V15.3213C95.5644 14.4514 94.9167 13.7461 94.1176 13.7461Z" fill="#FF8000" stroke="#1E1E1E" stroke-width="1.87467" stroke-linejoin="round"/>
<path d="M82.0625 32.646H91.7077M86.8851 28.4453V32.646" stroke="#1E1E1E" stroke-width="1.87467" stroke-linecap="round" stroke-linejoin="round"/>
<path d="M83.5638 18.6875L81.3359 21.2622L83.5638 23.4605" stroke="#1E1E1E" stroke-width="1.18104" stroke-linecap="round"/>
<path d="M90.194 18.6875L92.4219 21.2622L90.194 23.4605" stroke="#1E1E1E" stroke-width="1.18104" stroke-linecap="round"/>
<path d="M88.1942 16.6484L85.5859 25.496" stroke="#1E1E1E" stroke-width="1.18104" stroke-linecap="round"/>
<g clip-path="url(#clip1_203_137)">
<path d="M91.3681 9.20384L90.1714 11.2315C89.9969 11.5265 90.0195 11.9098 90.239 12.3814C90.4586 12.8529 90.8361 13.3476 91.3716 13.8655C91.907 14.3834 92.5336 14.8557 93.2511 15.2824C93.9687 15.7092 94.6742 16.0291 95.3676 16.2422C96.0611 16.4552 96.6527 16.5369 97.1425 16.4872C97.6322 16.4375 97.9478 16.2553 98.0893 15.9407L99.0633 13.7806L94.8909 12.8682C94.7842 12.8451 94.6772 12.8017 94.57 12.7379C94.4628 12.6742 94.3718 12.5999 94.2971 12.515L91.3681 9.20384ZM89.2023 5.10703C89.1497 5.20863 89.1595 5.30408 89.2319 5.39338L94.9512 11.8464C94.9654 11.8606 94.9849 11.8751 95.0096 11.8898C95.0343 11.9045 95.0561 11.9146 95.0749 11.9199L99.8156 12.9537C99.9151 13.2093 99.9338 13.5427 99.8718 13.9537C99.8099 14.3648 99.6756 14.8007 99.4691 15.2616C99.1269 15.2661 98.8722 15.4296 98.705 15.7521C98.547 16.0569 98.5441 16.3644 98.6963 16.6745L96.8504 19.3303C96.8101 19.3872 96.7979 19.4522 96.814 19.5254C96.8259 19.596 96.8628 19.6498 96.9247 19.6866L98.1124 20.3929C98.1742 20.4297 98.2363 20.4349 98.2986 20.4083C98.365 20.3843 98.4102 20.3389 98.434 20.2721L99.5623 17.1895C99.8885 17.1639 100.131 16.9987 100.289 16.6939C100.456 16.3714 100.449 16.0466 100.268 15.7193C100.696 14.7779 100.872 13.9288 100.795 13.172L103.212 13.708C103.321 13.7267 103.402 13.6852 103.455 13.5836C103.507 13.482 103.497 13.3865 103.425 13.2972L97.7057 6.84422C97.6915 6.82999 97.6721 6.81552 97.6473 6.8008C97.6226 6.78608 97.6008 6.77603 97.582 6.77063L89.4449 4.98255C89.3358 4.96393 89.255 5.00543 89.2023 5.10703Z" fill="#1E1E1E"/>
</g>
<mask id="path-9-outside-1_203_137" maskUnits="userSpaceOnUse" x="3.47656" y="38.6992" width="16" height="19" fill="black">
<rect fill="white" x="3.47656" y="38.6992" width="16" height="19"/>
<path d="M16.6139 55.4909C15.4056 56.5967 13.8605 57.1496 11.9785 57.1496C9.64978 57.1496 7.81905 56.4026 6.48628 54.9088C5.15351 53.4076 4.48713 51.3498 4.48713 48.7355C4.48713 45.9089 5.24505 43.7303 6.76089 42.1998C8.07902 40.8671 9.75596 40.2007 11.7917 40.2007C14.5159 40.2007 16.5077 41.0941 17.7672 42.8809C18.4629 43.8841 18.8364 44.891 18.8876 45.9016H15.5045C15.2848 45.1253 15.0028 44.5395 14.6587 44.1441C14.0435 43.4411 13.1318 43.0896 11.9235 43.0896C10.6933 43.0896 9.72301 43.5875 9.01269 44.5835C8.30237 45.572 7.9472 46.9744 7.9472 48.7905C7.9472 50.6066 8.32067 51.9686 9.06761 52.8767C9.82187 53.7774 10.7775 54.2277 11.9345 54.2277C13.1208 54.2277 14.0252 53.8396 14.6477 53.0634C14.9919 52.646 15.2774 52.0199 15.5045 51.1851H18.8547C18.5618 52.9499 17.8148 54.3852 16.6139 55.4909Z"/>
</mask>
<path d="M16.6139 55.4909C15.4056 56.5967 13.8605 57.1496 11.9785 57.1496C9.64978 57.1496 7.81905 56.4026 6.48628 54.9088C5.15351 53.4076 4.48713 51.3498 4.48713 48.7355C4.48713 45.9089 5.24505 43.7303 6.76089 42.1998C8.07902 40.8671 9.75596 40.2007 11.7917 40.2007C14.5159 40.2007 16.5077 41.0941 17.7672 42.8809C18.4629 43.8841 18.8364 44.891 18.8876 45.9016H15.5045C15.2848 45.1253 15.0028 44.5395 14.6587 44.1441C14.0435 43.4411 13.1318 43.0896 11.9235 43.0896C10.6933 43.0896 9.72301 43.5875 9.01269 44.5835C8.30237 45.572 7.9472 46.9744 7.9472 48.7905C7.9472 50.6066 8.32067 51.9686 9.06761 52.8767C9.82187 53.7774 10.7775 54.2277 11.9345 54.2277C13.1208 54.2277 14.0252 53.8396 14.6477 53.0634C14.9919 52.646 15.2774 52.0199 15.5045 51.1851H18.8547C18.5618 52.9499 17.8148 54.3852 16.6139 55.4909Z" fill="#1E1E1E"/>
<path d="M16.6139 55.4909L16.9556 55.8643L16.9567 55.8633L16.6139 55.4909ZM6.48628 54.9088L6.10777 55.2448L6.10859 55.2457L6.48628 54.9088ZM6.76089 42.1998L7.12052 42.556L7.12077 42.5558L6.76089 42.1998ZM17.7672 42.8809L18.1832 42.5924L18.1809 42.5892L17.7672 42.8809ZM18.8876 45.9016V46.4077H19.4201L19.3932 45.8759L18.8876 45.9016ZM15.5045 45.9016L15.0174 46.0394L15.1217 46.4077H15.5045V45.9016ZM14.6587 44.1441L15.0405 43.8118L15.0396 43.8108L14.6587 44.1441ZM9.01269 44.5835L9.42375 44.8788L9.42477 44.8774L9.01269 44.5835ZM9.06761 52.8767L8.67669 53.1982L8.67954 53.2016L9.06761 52.8767ZM14.6477 53.0634L14.2571 52.7414L14.2528 52.7467L14.6477 53.0634ZM15.5045 51.1851V50.6789H15.1176L15.016 51.0522L15.5045 51.1851ZM18.8547 51.1851L19.354 51.2679L19.4518 50.6789H18.8547V51.1851ZM16.6139 55.4909L16.2722 55.1175C15.1711 56.1252 13.7541 56.6434 11.9785 56.6434V57.1496V57.6557C13.9668 57.6557 15.6401 57.0682 16.9556 55.8643L16.6139 55.4909ZM11.9785 57.1496V56.6434C9.76812 56.6434 8.08471 55.9401 6.86398 54.5718L6.48628 54.9088L6.10859 55.2457C7.55339 56.8652 9.53144 57.6557 11.9785 57.6557V57.1496ZM6.48628 54.9088L6.86479 54.5727C5.63656 53.1893 4.99329 51.2643 4.99329 48.7355H4.48713H3.98096C3.98096 51.4354 4.67046 53.6259 6.10777 55.2448L6.48628 54.9088ZM4.48713 48.7355H4.99329C4.99329 45.9991 5.72511 43.9649 7.12052 42.556L6.76089 42.1998L6.40127 41.8437C4.76499 43.4957 3.98096 45.8187 3.98096 48.7355H4.48713ZM6.76089 42.1998L7.12077 42.5558C8.33515 41.3279 9.87833 40.7068 11.7917 40.7068V40.2007V39.6945C9.6336 39.6945 7.82288 40.4062 6.40101 41.8439L6.76089 42.1998ZM11.7917 40.2007V40.7068C14.3968 40.7068 16.2123 41.5535 17.3535 43.1725L17.7672 42.8809L18.1809 42.5892C16.8031 40.6346 14.635 39.6945 11.7917 39.6945V40.2007ZM17.7672 42.8809L17.3513 43.1693C18.0044 44.1111 18.3366 45.0287 18.3821 45.9272L18.8876 45.9016L19.3932 45.8759C19.3362 44.7533 18.9215 43.6571 18.1832 42.5924L17.7672 42.8809ZM18.8876 45.9016V45.3954H15.5045V45.9016V46.4077H18.8876V45.9016ZM15.5045 45.9016L15.9915 45.7637C15.7614 44.9506 15.4529 44.2856 15.0405 43.8118L14.6587 44.1441L14.2769 44.4764C14.5528 44.7934 14.8082 45.3 15.0174 46.0394L15.5045 45.9016ZM14.6587 44.1441L15.0396 43.8108C14.3019 42.9677 13.2321 42.5834 11.9235 42.5834V43.0896V43.5957C13.0316 43.5957 13.7852 43.9145 14.2777 44.4774L14.6587 44.1441ZM11.9235 43.0896V42.5834C10.5308 42.5834 9.40656 43.1595 8.6006 44.2895L9.01269 44.5835L9.42477 44.8774C10.0395 44.0155 10.8558 43.5957 11.9235 43.5957V43.0896ZM9.01269 44.5835L8.60163 44.2881C7.80581 45.3957 7.44104 46.9178 7.44104 48.7905H7.9472H8.45336C8.45336 47.031 8.79892 45.7484 9.42374 44.8788L9.01269 44.5835ZM7.9472 48.7905H7.44104C7.44104 50.6632 7.82414 52.1617 8.67671 53.1982L9.06761 52.8767L9.45851 52.5551C8.81721 51.7755 8.45336 50.5499 8.45336 48.7905H7.9472ZM9.06761 52.8767L8.67954 53.2016C9.52827 54.2151 10.6251 54.7339 11.9345 54.7339V54.2277V53.7216C10.93 53.7216 10.1155 53.3396 9.45568 52.5517L9.06761 52.8767ZM11.9345 54.2277V54.7339C13.2415 54.7339 14.3052 54.2996 15.0426 53.38L14.6477 53.0634L14.2528 52.7467C13.7452 53.3797 13.0002 53.7216 11.9345 53.7216V54.2277ZM14.6477 53.0634L15.0382 53.3854C15.4473 52.8892 15.757 52.1852 15.9929 51.3179L15.5045 51.1851L15.016 51.0522C14.7979 51.8546 14.5364 52.4027 14.2572 52.7414L14.6477 53.0634ZM15.5045 51.1851V51.6912H18.8547V51.1851V50.6789H15.5045V51.1851ZM18.8547 51.1851L18.3554 51.1022C18.079 52.7671 17.381 54.0966 16.271 55.1186L16.6139 55.4909L16.9567 55.8633C18.2487 54.6737 19.0445 53.1327 19.354 51.2679L18.8547 51.1851Z" fill="#1E1E1E" mask="url(#path-9-outside-1_203_137)"/>
<mask id="path-11-outside-2_203_137" maskUnits="userSpaceOnUse" x="37.9375" y="39.2695" width="67" height="19" fill="black">
<rect fill="white" x="37.9375" y="39.2695" width="67" height="19"/>
<path d="M45.952 57.2695H38.7153V40.4714H45.952C46.9928 40.4866 47.8589 40.6082 48.5503 40.8361C49.7279 41.2236 50.6814 41.9339 51.4108 42.9672C51.9958 43.8029 52.3947 44.707 52.6074 45.6795C52.8201 46.652 52.9265 47.5789 52.9265 48.4602C52.9265 50.6939 52.4782 52.5857 51.5817 54.1356C50.3661 56.2249 48.4895 57.2695 45.952 57.2695ZM48.5617 44.7564C48.0223 43.8447 46.9548 43.3888 45.3594 43.3888H42.1228V54.3521H45.3594C47.0156 54.3521 48.1704 53.5353 48.8238 51.9019C49.1809 51.0054 49.3595 49.9379 49.3595 48.6995C49.3595 46.9901 49.0935 45.6757 48.5617 44.7564ZM68.0913 49.9303H59.9316V54.2495H69.2309V57.2695H56.5013V40.4714H68.8207V43.4458H59.9316V47.0129H68.0913V49.9303ZM79.917 50.6825H76.293V57.2695H72.8627V40.4714H81.1022C82.2799 40.4942 83.184 40.6385 83.8146 40.9045C84.4527 41.1704 84.9922 41.5616 85.4328 42.0783C85.7975 42.5037 86.0862 42.9748 86.2989 43.4914C86.5117 44.008 86.618 44.5969 86.618 45.2578C86.618 46.0556 86.4167 46.8419 86.014 47.6169C85.6114 48.3842 84.9466 48.9274 84.0197 49.2465C84.7946 49.558 85.3417 50.0025 85.6608 50.5799C85.9874 51.1497 86.1508 52.0234 86.1508 53.2011V54.3293C86.1508 55.0966 86.1812 55.6171 86.242 55.8906C86.3331 56.3236 86.5459 56.6427 86.8802 56.8479V57.2695H83.0168C82.9104 56.8973 82.8345 56.5972 82.7889 56.3692C82.6977 55.8982 82.6483 55.4157 82.6407 54.9219L82.6179 53.3606C82.6027 52.2894 82.4052 51.5752 82.0253 51.2181C81.6531 50.861 80.9503 50.6825 79.917 50.6825ZM82.0481 47.6283C82.7471 47.3092 83.0966 46.6786 83.0966 45.7365C83.0966 44.7184 82.7585 44.0346 82.0823 43.6852C81.7024 43.4876 81.1326 43.3888 80.3729 43.3888H76.293V47.9018H80.2703C81.0604 47.9018 81.6531 47.8106 82.0481 47.6283ZM96.5634 54.8421C97.3915 54.8421 98.0639 54.751 98.5805 54.5686C99.5606 54.2191 100.051 53.5695 100.051 52.6198C100.051 52.0652 99.8075 51.636 99.3213 51.3321C98.835 51.0358 98.0715 50.7736 97.0306 50.5457L95.2528 50.1468C93.5054 49.7518 92.2973 49.3225 91.6288 48.8591C90.4967 48.0841 89.9307 46.8723 89.9307 45.2237C89.9307 43.7193 90.4777 42.4695 91.5718 41.4743C92.6658 40.479 94.2727 39.9814 96.3924 39.9814C98.1626 39.9814 99.6707 40.4524 100.917 41.3945C102.17 42.329 102.828 43.689 102.888 45.4744H99.515C99.4542 44.4639 99.0136 43.7459 98.193 43.3205C97.646 43.0394 96.966 42.8988 96.1531 42.8988C95.249 42.8988 94.5272 43.0811 93.9878 43.4458C93.4484 43.8105 93.1787 44.3195 93.1787 44.9729C93.1787 45.5731 93.4446 46.0214 93.9764 46.3177C94.3183 46.5152 95.0476 46.747 96.1645 47.0129L99.0591 47.708C100.328 48.0119 101.285 48.4184 101.931 48.9274C102.934 49.7176 103.435 50.861 103.435 52.3577C103.435 53.8924 102.847 55.1688 101.669 56.1869C100.499 57.1974 98.8426 57.7026 96.7001 57.7026C94.512 57.7026 92.7912 57.205 91.5376 56.2097C90.284 55.2068 89.6572 53.8316 89.6572 52.0842H93.0077C93.1141 52.8516 93.323 53.4252 93.6345 53.8051C94.2043 54.4964 95.1806 54.8421 96.5634 54.8421Z"/>
</mask>
<path d="M45.952 57.2695H38.7153V40.4714H45.952C46.9928 40.4866 47.8589 40.6082 48.5503 40.8361C49.7279 41.2236 50.6814 41.9339 51.4108 42.9672C51.9958 43.8029 52.3947 44.707 52.6074 45.6795C52.8201 46.652 52.9265 47.5789 52.9265 48.4602C52.9265 50.6939 52.4782 52.5857 51.5817 54.1356C50.3661 56.2249 48.4895 57.2695 45.952 57.2695ZM48.5617 44.7564C48.0223 43.8447 46.9548 43.3888 45.3594 43.3888H42.1228V54.3521H45.3594C47.0156 54.3521 48.1704 53.5353 48.8238 51.9019C49.1809 51.0054 49.3595 49.9379 49.3595 48.6995C49.3595 46.9901 49.0935 45.6757 48.5617 44.7564ZM68.0913 49.9303H59.9316V54.2495H69.2309V57.2695H56.5013V40.4714H68.8207V43.4458H59.9316V47.0129H68.0913V49.9303ZM79.917 50.6825H76.293V57.2695H72.8627V40.4714H81.1022C82.2799 40.4942 83.184 40.6385 83.8146 40.9045C84.4527 41.1704 84.9922 41.5616 85.4328 42.0783C85.7975 42.5037 86.0862 42.9748 86.2989 43.4914C86.5117 44.008 86.618 44.5969 86.618 45.2578C86.618 46.0556 86.4167 46.8419 86.014 47.6169C85.6114 48.3842 84.9466 48.9274 84.0197 49.2465C84.7946 49.558 85.3417 50.0025 85.6608 50.5799C85.9874 51.1497 86.1508 52.0234 86.1508 53.2011V54.3293C86.1508 55.0966 86.1812 55.6171 86.242 55.8906C86.3331 56.3236 86.5459 56.6427 86.8802 56.8479V57.2695H83.0168C82.9104 56.8973 82.8345 56.5972 82.7889 56.3692C82.6977 55.8982 82.6483 55.4157 82.6407 54.9219L82.6179 53.3606C82.6027 52.2894 82.4052 51.5752 82.0253 51.2181C81.6531 50.861 80.9503 50.6825 79.917 50.6825ZM82.0481 47.6283C82.7471 47.3092 83.0966 46.6786 83.0966 45.7365C83.0966 44.7184 82.7585 44.0346 82.0823 43.6852C81.7024 43.4876 81.1326 43.3888 80.3729 43.3888H76.293V47.9018H80.2703C81.0604 47.9018 81.6531 47.8106 82.0481 47.6283ZM96.5634 54.8421C97.3915 54.8421 98.0639 54.751 98.5805 54.5686C99.5606 54.2191 100.051 53.5695 100.051 52.6198C100.051 52.0652 99.8075 51.636 99.3213 51.3321C98.835 51.0358 98.0715 50.7736 97.0306 50.5457L95.2528 50.1468C93.5054 49.7518 92.2973 49.3225 91.6288 48.8591C90.4967 48.0841 89.9307 46.8723 89.9307 45.2237C89.9307 43.7193 90.4777 42.4695 91.5718 41.4743C92.6658 40.479 94.2727 39.9814 96.3924 39.9814C98.1626 39.9814 99.6707 40.4524 100.917 41.3945C102.17 42.329 102.828 43.689 102.888 45.4744H99.515C99.4542 44.4639 99.0136 43.7459 98.193 43.3205C97.646 43.0394 96.966 42.8988 96.1531 42.8988C95.249 42.8988 94.5272 43.0811 93.9878 43.4458C93.4484 43.8105 93.1787 44.3195 93.1787 44.9729C93.1787 45.5731 93.4446 46.0214 93.9764 46.3177C94.3183 46.5152 95.0476 46.747 96.1645 47.0129L99.0591 47.708C100.328 48.0119 101.285 48.4184 101.931 48.9274C102.934 49.7176 103.435 50.861 103.435 52.3577C103.435 53.8924 102.847 55.1688 101.669 56.1869C100.499 57.1974 98.8426 57.7026 96.7001 57.7026C94.512 57.7026 92.7912 57.205 91.5376 56.2097C90.284 55.2068 89.6572 53.8316 89.6572 52.0842H93.0077C93.1141 52.8516 93.323 53.4252 93.6345 53.8051C94.2043 54.4964 95.1806 54.8421 96.5634 54.8421Z" fill="#1E1E1E"/>
<path d="M38.7153 57.2695H38.2092V57.7757H38.7153V57.2695ZM38.7153 40.4714V39.9652H38.2092V40.4714H38.7153ZM45.952 40.4714L45.9594 39.9652H45.952V40.4714ZM48.5503 40.8361L48.3918 41.3168L48.3921 41.3169L48.5503 40.8361ZM51.4108 42.9672L51.8255 42.6769L51.8243 42.6753L51.4108 42.9672ZM51.5817 54.1356L52.0192 54.3901L52.0199 54.389L51.5817 54.1356ZM48.5617 44.7564L48.9999 44.5029L48.9973 44.4987L48.5617 44.7564ZM42.1228 43.3888V42.8827H41.6167V43.3888H42.1228ZM42.1228 54.3521H41.6167V54.8582H42.1228V54.3521ZM48.8238 51.9019L49.2938 52.0899L49.2941 52.0892L48.8238 51.9019ZM45.952 57.2695V56.7634H38.7153V57.2695V57.7757H45.952V57.2695ZM38.7153 57.2695H39.2215V40.4714H38.7153H38.2092V57.2695H38.7153ZM38.7153 40.4714V40.9776H45.952V40.4714V39.9652H38.7153V40.4714ZM45.952 40.4714L45.9446 40.9775C46.9542 40.9922 47.7653 41.1102 48.3918 41.3168L48.5503 40.8361L48.7088 40.3554C47.9526 40.1061 47.0315 39.9809 45.9594 39.9653L45.952 40.4714ZM48.5503 40.8361L48.3921 41.3169C49.4644 41.6697 50.3292 42.3126 50.9973 43.2591L51.4108 42.9672L51.8243 42.6753C51.0337 41.5552 49.9915 40.7774 48.7085 40.3553L48.5503 40.8361ZM51.4108 42.9672L50.9961 43.2574C51.5437 44.0397 51.9149 44.8822 52.1129 45.7877L52.6074 45.6795L53.1019 45.5713C52.8745 44.5318 52.4479 43.5661 51.8255 42.6769L51.4108 42.9672ZM52.6074 45.6795L52.1129 45.7877C52.3189 46.7291 52.4203 47.6196 52.4203 48.4602H52.9265H53.4327C53.4327 47.5382 53.3214 46.5749 53.1019 45.5713L52.6074 45.6795ZM52.9265 48.4602H52.4203C52.4203 50.6267 51.9858 52.4261 51.1436 53.8821L51.5817 54.1356L52.0199 54.389C52.9707 52.7452 53.4327 50.7611 53.4327 48.4602H52.9265ZM51.5817 54.1356L51.1442 53.881C50.0247 55.8053 48.3203 56.7634 45.952 56.7634V57.2695V57.7757C48.6588 57.7757 50.7076 56.6445 52.0192 54.3901L51.5817 54.1356ZM48.5617 44.7564L48.9973 44.4987C48.3261 43.3642 47.0359 42.8827 45.3594 42.8827V43.3888V43.895C46.8738 43.895 47.7185 44.3252 48.1261 45.0141L48.5617 44.7564ZM45.3594 43.3888V42.8827H42.1228V43.3888V43.895H45.3594V43.3888ZM42.1228 43.3888H41.6167V54.3521H42.1228H42.629V43.3888H42.1228ZM42.1228 54.3521V54.8582H45.3594V54.3521V53.8459H42.1228V54.3521ZM45.3594 54.3521V54.8582C46.2738 54.8582 47.0832 54.6314 47.7599 54.1528C48.4345 53.6757 48.9397 52.9751 49.2938 52.0899L48.8238 51.9019L48.3539 51.7139C48.0546 52.4621 47.6557 52.9866 47.1754 53.3263C46.6974 53.6644 46.1012 53.8459 45.3594 53.8459V54.3521ZM48.8238 51.9019L49.2941 52.0892C49.6806 51.1188 49.8656 49.9847 49.8656 48.6995H49.3595H48.8533C48.8533 49.8911 48.6813 50.8919 48.3536 51.7146L48.8238 51.9019ZM49.3595 48.6995H49.8656C49.8656 46.9499 49.5956 45.5327 48.9998 44.5029L48.5617 44.7564L48.1236 45.0099C48.5915 45.8187 48.8533 47.0302 48.8533 48.6995H49.3595ZM68.0913 49.9303V50.4365H68.5975V49.9303H68.0913ZM59.9316 49.9303V49.4242H59.4254V49.9303H59.9316ZM59.9316 54.2495H59.4254V54.7557H59.9316V54.2495ZM69.2309 54.2495H69.7371V53.7434H69.2309V54.2495ZM69.2309 57.2695V57.7757H69.7371V57.2695H69.2309ZM56.5013 57.2695H55.9951V57.7757H56.5013V57.2695ZM56.5013 40.4714V39.9652H55.9951V40.4714H56.5013ZM68.8207 40.4714H69.3268V39.9652H68.8207V40.4714ZM68.8207 43.4458V43.952H69.3268V43.4458H68.8207ZM59.9316 43.4458V42.9397H59.4254V43.4458H59.9316ZM59.9316 47.0129H59.4254V47.519H59.9316V47.0129ZM68.0913 47.0129H68.5975V46.5067H68.0913V47.0129ZM68.0913 49.9303V49.4242H59.9316V49.9303V50.4365H68.0913V49.9303ZM59.9316 49.9303H59.4254V54.2495H59.9316H60.4377V49.9303H59.9316ZM59.9316 54.2495V54.7557H69.2309V54.2495V53.7434H59.9316V54.2495ZM69.2309 54.2495H68.7248V57.2695H69.2309H69.7371V54.2495H69.2309ZM69.2309 57.2695V56.7634H56.5013V57.2695V57.7757H69.2309V57.2695ZM56.5013 57.2695H57.0074V40.4714H56.5013H55.9951V57.2695H56.5013ZM56.5013 40.4714V40.9776H68.8207V40.4714V39.9652H56.5013V40.4714ZM68.8207 40.4714H68.3145V43.4458H68.8207H69.3268V40.4714H68.8207ZM68.8207 43.4458V42.9397H59.9316V43.4458V43.952H68.8207V43.4458ZM59.9316 43.4458H59.4254V47.0129H59.9316H60.4377V43.4458H59.9316ZM59.9316 47.0129V47.519H68.0913V47.0129V46.5067H59.9316V47.0129ZM68.0913 47.0129H67.5852V49.9303H68.0913H68.5975V47.0129H68.0913ZM76.293 50.6825V50.1763H75.7868V50.6825H76.293ZM76.293 57.2695V57.7757H76.7992V57.2695H76.293ZM72.8627 57.2695H72.3566V57.7757H72.8627V57.2695ZM72.8627 40.4714V39.9652H72.3566V40.4714H72.8627ZM81.1022 40.4714L81.112 39.9652H81.1022V40.4714ZM83.8146 40.9045L83.6179 41.3708L83.6199 41.3717L83.8146 40.9045ZM85.4328 42.0783L85.0477 42.4067L85.0485 42.4077L85.4328 42.0783ZM86.014 47.6169L86.4622 47.8521L86.4632 47.8503L86.014 47.6169ZM84.0197 49.2465L83.8549 48.7679L82.5713 49.2099L83.8309 49.7162L84.0197 49.2465ZM85.6608 50.5799L85.2177 50.8248L85.2216 50.8317L85.6608 50.5799ZM86.242 55.8906L86.7373 55.7863L86.7361 55.7808L86.242 55.8906ZM86.8802 56.8479H87.3863V56.5646L87.1449 56.4165L86.8802 56.8479ZM86.8802 57.2695V57.7757H87.3863V57.2695H86.8802ZM83.0168 57.2695L82.5301 57.4086L82.635 57.7757H83.0168V57.2695ZM82.7889 56.3692L82.2919 56.4654L82.2926 56.4685L82.7889 56.3692ZM82.6407 54.9219L82.1346 54.9293L82.1346 54.9297L82.6407 54.9219ZM82.6179 53.3606L82.1118 53.3678L82.1118 53.368L82.6179 53.3606ZM82.0253 51.2181L81.6749 51.5834L81.6787 51.5869L82.0253 51.2181ZM82.0481 47.6283L81.8379 47.1678L81.836 47.1687L82.0481 47.6283ZM82.0823 43.6852L81.8488 44.1342L81.8499 44.1348L82.0823 43.6852ZM76.293 43.3888V42.8827H75.7868V43.3888H76.293ZM76.293 47.9018H75.7868V48.4079H76.293V47.9018ZM79.917 50.6825V50.1763H76.293V50.6825V51.1886H79.917V50.6825ZM76.293 50.6825H75.7868V57.2695H76.293H76.7992V50.6825H76.293ZM76.293 57.2695V56.7634H72.8627V57.2695V57.7757H76.293V57.2695ZM72.8627 57.2695H73.3689V40.4714H72.8627H72.3566V57.2695H72.8627ZM72.8627 40.4714V40.9776H81.1022V40.4714V39.9652H72.8627V40.4714ZM81.1022 40.4714L81.0924 40.9775C82.2454 40.9998 83.0744 41.1417 83.6179 41.3708L83.8146 40.9045L84.0112 40.4381C83.2935 40.1354 82.3143 39.9886 81.112 39.9653L81.1022 40.4714ZM83.8146 40.9045L83.6199 41.3717C84.1859 41.6075 84.6597 41.9518 85.0477 42.4067L85.4328 42.0783L85.8179 41.7498C85.3246 41.1715 84.7195 40.7332 84.0092 40.4372L83.8146 40.9045ZM85.4328 42.0783L85.0485 42.4077C85.3783 42.7924 85.6387 43.2174 85.8309 43.6841L86.2989 43.4914L86.767 43.2987C86.5337 42.7322 86.2167 42.215 85.8171 41.7489L85.4328 42.0783ZM86.2989 43.4914L85.8309 43.6841C86.0143 44.1295 86.1119 44.6511 86.1119 45.2578H86.618H87.1242C87.1242 44.5426 87.009 43.8866 86.767 43.2987L86.2989 43.4914ZM86.618 45.2578H86.1119C86.1119 45.9668 85.9337 46.6737 85.5649 47.3835L86.014 47.6169L86.4632 47.8503C86.8997 47.0102 87.1242 46.1443 87.1242 45.2578H86.618ZM86.014 47.6169L85.5658 47.3817C85.2311 48.0195 84.6771 48.4849 83.8549 48.7679L84.0197 49.2465L84.1844 49.7251C85.2161 49.37 85.9916 48.749 86.4622 47.8521L86.014 47.6169ZM84.0197 49.2465L83.8309 49.7162C84.5271 49.996 84.9686 50.3739 85.2177 50.8247L85.6608 50.5799L86.1038 50.3351C85.7147 49.6311 85.0621 49.12 84.2085 48.7769L84.0197 49.2465ZM85.6608 50.5799L85.2216 50.8317C85.4819 51.2856 85.6446 52.0516 85.6446 53.2011H86.1508H86.657C86.657 51.9952 86.493 51.0138 86.0999 50.3282L85.6608 50.5799ZM86.1508 53.2011H85.6446V54.3293H86.1508H86.657V53.2011H86.1508ZM86.1508 54.3293H85.6446C85.6446 55.0909 85.6733 55.6649 85.7479 56.0004L86.242 55.8906L86.7361 55.7808C86.6891 55.5693 86.657 55.1024 86.657 54.3293H86.1508ZM86.242 55.8906L85.7467 55.9949C85.8624 56.5448 86.1468 56.9917 86.6154 57.2793L86.8802 56.8479L87.1449 56.4165C86.9449 56.2937 86.8038 56.1025 86.7373 55.7863L86.242 55.8906ZM86.8802 56.8479H86.374V57.2695H86.8802H87.3863V56.8479H86.8802ZM86.8802 57.2695V56.7634H83.0168V57.2695V57.7757H86.8802V57.2695ZM83.0168 57.2695L83.5035 57.1305C83.3988 56.7639 83.327 56.4786 83.2852 56.27L82.7889 56.3692L82.2926 56.4685C82.342 56.7157 82.4221 57.0306 82.5301 57.4086L83.0168 57.2695ZM82.7889 56.3692L83.2858 56.273C83.2005 55.832 83.154 55.3791 83.1468 54.9141L82.6407 54.9219L82.1346 54.9297C82.1427 55.4523 82.195 55.9644 82.2919 56.4654L82.7889 56.3692ZM82.6407 54.9219L83.1468 54.9145L83.124 53.3532L82.6179 53.3606L82.1118 53.368L82.1346 54.9293L82.6407 54.9219ZM82.6179 53.3606L83.124 53.3534C83.1161 52.792 83.0604 52.2993 82.9462 51.8866C82.8326 51.4759 82.6523 51.1127 82.372 50.8493L82.0253 51.2181L81.6787 51.5869C81.7783 51.6806 81.8866 51.8531 81.9705 52.1565C82.0539 52.458 82.1046 52.858 82.1118 53.3678L82.6179 53.3606ZM82.0253 51.2181L82.3757 50.8528C81.8509 50.3495 80.968 50.1763 79.917 50.1763V50.6825V51.1886C80.9326 51.1886 81.4552 51.3726 81.675 51.5834L82.0253 51.2181ZM82.0481 47.6283L82.2583 48.0887C82.6995 47.8873 83.0464 47.5778 83.2772 47.1614C83.5044 46.7514 83.6027 46.2678 83.6027 45.7365H83.0966H82.5904C82.5904 46.1472 82.514 46.45 82.3918 46.6706C82.2731 46.8848 82.0958 47.0501 81.8379 47.1678L82.0481 47.6283ZM83.0966 45.7365H83.6027C83.6027 44.6033 83.2161 43.7014 82.3147 43.2355L82.0823 43.6852L81.8499 44.1348C82.3009 44.3679 82.5904 44.8335 82.5904 45.7365H83.0966ZM82.0823 43.6852L82.3158 43.2361C81.8277 42.9823 81.16 42.8827 80.3729 42.8827V43.3888V43.895C81.1052 43.895 81.5772 43.993 81.8488 44.1342L82.0823 43.6852ZM80.3729 43.3888V42.8827H76.293V43.3888V43.895H80.3729V43.3888ZM76.293 43.3888H75.7868V47.9018H76.293H76.7992V43.3888H76.293ZM76.293 47.9018V48.4079H80.2703V47.9018V47.3956H76.293V47.9018ZM80.2703 47.9018V48.4079C81.0835 48.4079 81.7646 48.3166 82.2602 48.0878L82.0481 47.6283L81.836 47.1687C81.5415 47.3046 81.0374 47.3956 80.2703 47.3956V47.9018ZM98.5805 54.5686L98.749 55.0459L98.7505 55.0454L98.5805 54.5686ZM99.3213 51.3321L99.5895 50.9028L99.5846 50.8998L99.3213 51.3321ZM97.0306 50.5457L96.9198 51.0396L96.9223 51.0402L97.0306 50.5457ZM95.2528 50.1468L95.1412 50.6405L95.142 50.6407L95.2528 50.1468ZM91.6288 48.8591L91.9171 48.4431L91.9147 48.4414L91.6288 48.8591ZM91.5718 41.4743L91.2312 41.0999L91.5718 41.4743ZM100.917 41.3945L100.611 41.7982L100.614 41.8003L100.917 41.3945ZM102.888 45.4744V45.9805H103.412L103.394 45.4571L102.888 45.4744ZM99.515 45.4744L99.0097 45.5048L99.0384 45.9805H99.515V45.4744ZM98.193 43.3205L98.426 42.8711L98.4244 42.8703L98.193 43.3205ZM93.9878 43.4458L93.7043 43.0265L93.9878 43.4458ZM93.9764 46.3177L94.2296 45.8794L94.2227 45.8755L93.9764 46.3177ZM96.1645 47.0129L96.2827 46.5207L96.2817 46.5205L96.1645 47.0129ZM99.0591 47.708L98.9409 48.2002L98.9412 48.2003L99.0591 47.708ZM101.931 48.9274L101.618 49.325L101.618 49.325L101.931 48.9274ZM101.669 56.1869L102 56.57L102 56.5698L101.669 56.1869ZM91.5376 56.2097L91.2214 56.6049L91.2229 56.6061L91.5376 56.2097ZM89.6572 52.0842V51.5781H89.151V52.0842H89.6572ZM93.0077 52.0842L93.5091 52.0147L93.4486 51.5781H93.0077V52.0842ZM93.6345 53.8051L93.2431 54.126L93.2439 54.127L93.6345 53.8051ZM96.5634 54.8421V55.3483C97.4226 55.3483 98.158 55.2545 98.749 55.0459L98.5805 54.5686L98.412 54.0913C97.9697 54.2474 97.3604 54.336 96.5634 54.336V54.8421ZM98.5805 54.5686L98.7505 55.0454C99.3079 54.8466 99.768 54.5472 100.087 54.1241C100.409 53.6974 100.557 53.1856 100.557 52.6198H100.051H99.5445C99.5445 53.0038 99.4471 53.2916 99.279 53.5145C99.1081 53.741 98.8332 53.9411 98.4105 54.0919L98.5805 54.5686ZM100.051 52.6198H100.557C100.557 51.8836 100.218 51.2954 99.5895 50.9028L99.3213 51.3321L99.053 51.7613C99.3973 51.9765 99.5445 52.2468 99.5445 52.6198H100.051ZM99.3213 51.3321L99.5846 50.8998C99.0254 50.559 98.1955 50.2826 97.1389 50.0513L97.0306 50.5457L96.9223 51.0402C97.9474 51.2646 98.6447 51.5125 99.0579 51.7643L99.3213 51.3321ZM97.0306 50.5457L97.1414 50.0518L95.3636 49.653L95.2528 50.1468L95.142 50.6407L96.9198 51.0396L97.0306 50.5457ZM95.2528 50.1468L95.3644 49.6531C93.6224 49.2593 92.4989 48.8464 91.9171 48.4431L91.6288 48.8591L91.3404 49.2751C92.0958 49.7987 93.3883 50.2443 95.1412 50.6405L95.2528 50.1468ZM91.6288 48.8591L91.9147 48.4414C90.9495 47.7807 90.4369 46.7438 90.4369 45.2237H89.9307H89.4246C89.4246 47.0008 90.044 48.3876 91.3428 49.2767L91.6288 48.8591ZM89.9307 45.2237H90.4369C90.4369 43.8591 90.9258 42.7462 91.9124 41.8487L91.5718 41.4743L91.2312 41.0999C90.0296 42.1929 89.4246 43.5796 89.4246 45.2237H89.9307ZM91.5718 41.4743L91.9124 41.8487C92.8797 40.9687 94.3445 40.4875 96.3924 40.4875V39.9814V39.4752C94.2009 39.4752 92.4519 39.9893 91.2312 41.0999L91.5718 41.4743ZM96.3924 39.9814V40.4875C98.0678 40.4875 99.4649 40.9313 100.611 41.7982L100.917 41.3945L101.222 40.9908C99.8766 39.9735 98.2574 39.4752 96.3924 39.4752V39.9814ZM100.917 41.3945L100.614 41.8003C101.726 42.6291 102.326 43.8352 102.382 45.4916L102.888 45.4744L103.394 45.4571C103.329 43.5427 102.615 42.0289 101.219 40.9887L100.917 41.3945ZM102.888 45.4744V44.9682H99.515V45.4744V45.9805H102.888V45.4744ZM99.515 45.4744L100.02 45.444C99.95 44.2761 99.4221 43.3876 98.426 42.8711L98.193 43.3205L97.96 43.7698C98.605 44.1043 98.9584 44.6517 99.0097 45.5048L99.515 45.4744ZM98.193 43.3205L98.4244 42.8703C97.7865 42.5425 97.0216 42.3926 96.1531 42.3926V42.8988V43.405C96.9104 43.405 97.5055 43.5362 97.9617 43.7707L98.193 43.3205ZM96.1531 42.8988V42.3926C95.1859 42.3926 94.3542 42.5872 93.7043 43.0265L93.9878 43.4458L94.2713 43.8652C94.7003 43.5751 95.312 43.405 96.1531 43.405V42.8988ZM93.9878 43.4458L93.7043 43.0265C93.0251 43.4857 92.6725 44.1522 92.6725 44.9729H93.1787H93.6848C93.6848 44.4869 93.8717 44.1353 94.2713 43.8652L93.9878 43.4458ZM93.1787 44.9729H92.6725C92.6725 45.3499 92.7568 45.704 92.9428 46.0175C93.1285 46.3307 93.3993 46.5756 93.73 46.7599L93.9764 46.3177L94.2227 45.8755C94.0217 45.7635 93.8936 45.6361 93.8134 45.501C93.7335 45.3663 93.6848 45.1962 93.6848 44.9729H93.1787ZM93.9764 46.3177L93.7232 46.756C94.1393 46.9964 94.9414 47.242 96.0472 47.5053L96.1645 47.0129L96.2817 46.5205C95.1539 46.2519 94.4973 46.0341 94.2296 45.8794L93.9764 46.3177ZM96.1645 47.0129L96.0463 47.505L98.9409 48.2002L99.0591 47.708L99.1773 47.2159L96.2827 46.5207L96.1645 47.0129ZM99.0591 47.708L98.9412 48.2003C100.176 48.496 101.053 48.8801 101.618 49.325L101.931 48.9274L102.244 48.5299C101.517 47.9567 100.48 47.5279 99.177 47.2158L99.0591 47.708ZM101.931 48.9274L101.618 49.325C102.477 50.0021 102.929 50.9861 102.929 52.3577H103.435H103.941C103.941 50.7359 103.391 49.4331 102.244 48.5299L101.931 48.9274ZM103.435 52.3577H102.929C102.929 53.743 102.406 54.8805 101.338 55.804L101.669 56.1869L102 56.5698C103.287 55.4572 103.941 54.0418 103.941 52.3577H103.435ZM101.669 56.1869L101.338 55.8038C100.29 56.7089 98.7679 57.1964 96.7001 57.1964V57.7026V58.2088C98.9173 58.2088 100.708 57.6858 102 56.57L101.669 56.1869ZM96.7001 57.7026V57.1964C94.5847 57.1964 92.9885 56.7153 91.8523 55.8133L91.5376 56.2097L91.2229 56.6061C92.5938 57.6946 94.4393 58.2088 96.7001 58.2088V57.7026ZM91.5376 56.2097L91.8538 55.8144C90.7319 54.9169 90.1634 53.6935 90.1634 52.0842H89.6572H89.151C89.151 53.9698 89.8361 55.4967 91.2214 56.6049L91.5376 56.2097ZM89.6572 52.0842V52.5904H93.0077V52.0842V51.5781H89.6572V52.0842ZM93.0077 52.0842L92.5063 52.1537C92.6188 52.9648 92.8476 53.6437 93.2431 54.126L93.6345 53.8051L94.0259 53.4841C93.7984 53.2066 93.6094 52.7383 93.5091 52.0147L93.0077 52.0842ZM93.6345 53.8051L93.2439 54.127C93.9524 54.9866 95.1122 55.3483 96.5634 55.3483V54.8421V54.336C95.249 54.336 94.4563 54.0063 94.0251 53.4831L93.6345 53.8051Z" fill="#1E1E1E" mask="url(#path-11-outside-2_203_137)"/>
<mask id="path-13-outside-3_203_137" maskUnits="userSpaceOnUse" x="20.3438" y="39.457" width="8" height="19" fill="black">
<rect fill="white" x="20.3438" y="39.457" width="8" height="19"/>
<path d="M24.164 56.3665C23.5214 55.8786 23.2001 55.1706 23.2001 54.2424V51.4489C23.2001 50.6993 22.974 50.1251 22.5218 49.7265C22.2481 49.4825 21.8554 49.2891 21.3438 49.1463V48.0664C21.9209 47.8701 22.3285 47.6529 22.5664 47.4149C22.9889 47.0044 23.2001 46.3767 23.2001 45.5318V43.14C23.2001 42.8365 23.2507 42.5182 23.3518 42.185C23.5303 41.6079 23.8338 41.1497 24.2622 40.8106C24.6549 40.5012 25.116 40.2959 25.6455 40.1948C25.9668 40.1293 26.4279 40.0936 27.0289 40.0877V41.5067C26.535 41.6138 26.1988 41.7566 26.0203 41.9351C25.7467 42.2088 25.6098 42.6878 25.6098 43.372V45.4426C25.6098 46.1089 25.5206 46.6385 25.3421 47.0312C25.0386 47.6916 24.4436 48.2271 23.5571 48.6376C24.3603 48.9649 24.8988 49.3457 25.1725 49.78C25.4521 50.2144 25.5979 50.8153 25.6098 51.5828V53.8408C25.6098 54.5012 25.7705 54.9772 26.0917 55.2688C26.2702 55.4413 26.5826 55.593 27.0289 55.7239V57.143L26.3952 57.1251C25.5444 57.1013 24.8006 56.8485 24.164 56.3665Z"/>
</mask>
<path d="M24.164 56.3665C23.5214 55.8786 23.2001 55.1706 23.2001 54.2424V51.4489C23.2001 50.6993 22.974 50.1251 22.5218 49.7265C22.2481 49.4825 21.8554 49.2891 21.3438 49.1463V48.0664C21.9209 47.8701 22.3285 47.6529 22.5664 47.4149C22.9889 47.0044 23.2001 46.3767 23.2001 45.5318V43.14C23.2001 42.8365 23.2507 42.5182 23.3518 42.185C23.5303 41.6079 23.8338 41.1497 24.2622 40.8106C24.6549 40.5012 25.116 40.2959 25.6455 40.1948C25.9668 40.1293 26.4279 40.0936 27.0289 40.0877V41.5067C26.535 41.6138 26.1988 41.7566 26.0203 41.9351C25.7467 42.2088 25.6098 42.6878 25.6098 43.372V45.4426C25.6098 46.1089 25.5206 46.6385 25.3421 47.0312C25.0386 47.6916 24.4436 48.2271 23.5571 48.6376C24.3603 48.9649 24.8988 49.3457 25.1725 49.78C25.4521 50.2144 25.5979 50.8153 25.6098 51.5828V53.8408C25.6098 54.5012 25.7705 54.9772 26.0917 55.2688C26.2702 55.4413 26.5826 55.593 27.0289 55.7239V57.143L26.3952 57.1251C25.5444 57.1013 24.8006 56.8485 24.164 56.3665Z" fill="#FF8000"/>
<path d="M24.164 56.3665L23.8239 56.8144L23.8245 56.8149L24.164 56.3665ZM22.5218 49.7265L22.1476 50.1463L22.1499 50.1483L22.5218 49.7265ZM21.3438 49.1463H20.7813V49.5733L21.1926 49.6881L21.3438 49.1463ZM21.3438 48.0664L21.1626 47.534L20.7813 47.6637V48.0664H21.3438ZM22.5664 47.4149L22.1745 47.0116L22.1688 47.0173L22.5664 47.4149ZM23.3518 42.185L22.8145 42.0188L22.8137 42.0216L23.3518 42.185ZM24.2622 40.8106L23.9141 40.3688L23.9131 40.3696L24.2622 40.8106ZM25.6455 40.1948L25.751 40.7472L25.7578 40.7459L25.6455 40.1948ZM27.0289 40.0877H27.5913V39.5197L27.0233 39.5253L27.0289 40.0877ZM27.0289 41.5067L27.148 42.0563L27.5913 41.9602V41.5067H27.0289ZM25.3421 47.0312L25.8531 47.266L25.8541 47.2639L25.3421 47.0312ZM23.5571 48.6376L23.3208 48.1273L22.1475 48.6706L23.3449 49.1585L23.5571 48.6376ZM25.1725 49.78L24.6967 50.0799L24.6996 50.0845L25.1725 49.78ZM25.6098 51.5828H26.1723L26.1721 51.5741L25.6098 51.5828ZM26.0917 55.2688L26.4826 54.8644L26.4762 54.8582L26.4697 54.8523L26.0917 55.2688ZM27.0289 55.7239H27.5913V55.3028L27.1872 55.1843L27.0289 55.7239ZM27.0289 57.143L27.013 57.7052L27.5913 57.7214V57.143H27.0289ZM26.3952 57.1251L26.411 56.5629L26.4109 56.5629L26.3952 57.1251ZM24.164 56.3665L24.5041 55.9186C24.0239 55.554 23.7625 55.0248 23.7625 54.2424H23.2001H22.6377C22.6377 55.3164 23.0189 56.2033 23.8239 56.8144L24.164 56.3665ZM23.2001 54.2424H23.7625V51.4489H23.2001H22.6377V54.2424H23.2001ZM23.2001 51.4489H23.7625C23.7625 50.5803 23.4956 49.8352 22.8937 49.3046L22.5218 49.7265L22.1499 50.1483C22.4524 50.415 22.6377 50.8182 22.6377 51.4489H23.2001ZM22.5218 49.7265L22.896 49.3066C22.5361 48.9858 22.0549 48.7609 21.4949 48.6046L21.3438 49.1463L21.1926 49.6881C21.656 49.8174 21.9602 49.9792 22.1476 50.1463L22.5218 49.7265ZM21.3438 49.1463H21.9062V48.0664H21.3438H20.7813V49.1463H21.3438ZM21.3438 48.0664L21.5249 48.5989C22.1277 48.3938 22.634 48.1428 22.9641 47.8126L22.5664 47.4149L22.1688 47.0173C22.0229 47.1631 21.7141 47.3464 21.1626 47.534L21.3438 48.0664ZM22.5664 47.4149L22.9584 47.8183C23.5298 47.263 23.7625 46.462 23.7625 45.5318H23.2001H22.6377C22.6377 46.2914 22.448 46.7458 22.1745 47.0116L22.5664 47.4149ZM23.2001 45.5318H23.7625V43.14H23.2001H22.6377V45.5318H23.2001ZM23.2001 43.14H23.7625C23.7625 42.8993 23.8026 42.6362 23.89 42.3484L23.3518 42.185L22.8137 42.0216C22.6988 42.4001 22.6377 42.7737 22.6377 43.14H23.2001ZM23.3518 42.185L23.8891 42.3512C24.0378 41.8706 24.2812 41.5128 24.6112 41.2515L24.2622 40.8106L23.9131 40.3696C23.3863 40.7867 23.0229 41.3452 22.8145 42.0188L23.3518 42.185ZM24.2622 40.8106L24.6102 41.2523C24.9266 41.003 25.3029 40.8328 25.751 40.7472L25.6455 40.1948L25.54 39.6424C24.929 39.7591 24.3831 39.9993 23.9141 40.3688L24.2622 40.8106ZM25.6455 40.1948L25.7578 40.7459C26.0262 40.6912 26.445 40.6559 27.0344 40.65L27.0289 40.0877L27.0233 39.5253C26.4108 39.5314 25.9074 39.5675 25.5332 39.6437L25.6455 40.1948ZM27.0289 40.0877H26.4665V41.5067H27.0289H27.5913V40.0877H27.0289ZM27.0289 41.5067L26.9097 40.9571C26.3973 41.0682 25.9225 41.2376 25.6227 41.5374L26.0203 41.9351L26.418 42.3328C26.4752 42.2756 26.6727 42.1594 27.148 42.0563L27.0289 41.5067ZM26.0203 41.9351L25.6227 41.5374C25.1871 41.973 25.0474 42.6441 25.0474 43.372H25.6098H26.1722C26.1722 42.7315 26.3063 42.4445 26.418 42.3328L26.0203 41.9351ZM25.6098 43.372H25.0474V45.4426H25.6098H26.1722V43.372H25.6098ZM25.6098 45.4426H25.0474C25.0474 46.068 24.9622 46.5077 24.8301 46.7984L25.3421 47.0312L25.8541 47.2639C26.0789 46.7692 26.1722 46.1499 26.1722 45.4426H25.6098ZM25.3421 47.0312L24.831 46.7964C24.6002 47.2988 24.1279 47.7535 23.3208 48.1273L23.5571 48.6376L23.7934 49.148C24.7593 48.7007 25.4771 48.0844 25.8531 47.266L25.3421 47.0312ZM23.5571 48.6376L23.3449 49.1585C24.1069 49.4689 24.5157 49.7926 24.6967 50.0798L25.1725 49.78L25.6483 49.4802C25.2819 48.8988 24.6138 48.4609 23.7693 48.1168L23.5571 48.6376ZM25.1725 49.78L24.6996 50.0845C24.9012 50.3975 25.0365 50.8813 25.0475 51.5915L25.6098 51.5828L26.1721 51.5741C26.1594 50.7493 26.0031 50.0312 25.6454 49.4756L25.1725 49.78ZM25.6098 51.5828H25.0474V53.8408H25.6098H26.1722V51.5828H25.6098ZM25.6098 53.8408H25.0474C25.0474 54.5772 25.2253 55.242 25.7138 55.6853L26.0917 55.2688L26.4697 54.8523C26.3156 54.7125 26.1722 54.4252 26.1722 53.8408H25.6098ZM26.0917 55.2688L25.7009 55.6731C25.98 55.9429 26.4007 56.1258 26.8706 56.2636L27.0289 55.7239L27.1872 55.1843C26.7645 55.0603 26.5605 54.9397 26.4826 54.8644L26.0917 55.2688ZM27.0289 55.7239H26.4665V57.143H27.0289H27.5913V55.7239H27.0289ZM27.0289 57.143L27.0447 56.5808L26.411 56.5629L26.3952 57.1251L26.3794 57.6873L27.013 57.7052L27.0289 57.143ZM26.3952 57.1251L26.4109 56.5629C25.669 56.5422 25.0403 56.3245 24.5034 55.9181L24.164 56.3665L23.8245 56.8149C24.5609 57.3724 25.4197 57.6605 26.3795 57.6873L26.3952 57.1251Z" fill="#FF8000" mask="url(#path-13-outside-3_203_137)"/>
<mask id="path-15-outside-4_203_137" maskUnits="userSpaceOnUse" x="28.4688" y="39.457" width="8" height="19" fill="black">
<rect fill="white" x="28.4688" y="39.457" width="8" height="19"/>
<path d="M32.6485 56.3665C33.2911 55.8786 33.6124 55.1706 33.6124 54.2424V51.4489C33.6124 50.6993 33.8385 50.1251 34.2907 49.7265C34.5644 49.4825 34.9571 49.2891 35.4688 49.1463V48.0664C34.8916 47.8701 34.484 47.6529 34.2461 47.4149C33.8236 47.0044 33.6124 46.3767 33.6124 45.5318V43.14C33.6124 42.8365 33.5618 42.5182 33.4607 42.185C33.2822 41.6079 32.9787 41.1497 32.5503 40.8106C32.1576 40.5012 31.6965 40.2959 31.167 40.1948C30.8457 40.1293 30.3846 40.0936 29.7836 40.0877V41.5067C30.2775 41.6138 30.6137 41.7566 30.7922 41.9351C31.0658 42.2088 31.2027 42.6878 31.2027 43.372V45.4426C31.2027 46.1089 31.2919 46.6385 31.4704 47.0312C31.7739 47.6916 32.3689 48.2271 33.2554 48.6376C32.4522 48.9649 31.9137 49.3457 31.64 49.78C31.3604 50.2144 31.2146 50.8153 31.2027 51.5828V53.8408C31.2027 54.5012 31.042 54.9772 30.7208 55.2688C30.5423 55.4413 30.2299 55.593 29.7836 55.7239V57.143L30.4173 57.1251C31.2681 57.1013 32.0119 56.8485 32.6485 56.3665Z"/>
</mask>
<path d="M32.6485 56.3665C33.2911 55.8786 33.6124 55.1706 33.6124 54.2424V51.4489C33.6124 50.6993 33.8385 50.1251 34.2907 49.7265C34.5644 49.4825 34.9571 49.2891 35.4688 49.1463V48.0664C34.8916 47.8701 34.484 47.6529 34.2461 47.4149C33.8236 47.0044 33.6124 46.3767 33.6124 45.5318V43.14C33.6124 42.8365 33.5618 42.5182 33.4607 42.185C33.2822 41.6079 32.9787 41.1497 32.5503 40.8106C32.1576 40.5012 31.6965 40.2959 31.167 40.1948C30.8457 40.1293 30.3846 40.0936 29.7836 40.0877V41.5067C30.2775 41.6138 30.6137 41.7566 30.7922 41.9351C31.0658 42.2088 31.2027 42.6878 31.2027 43.372V45.4426C31.2027 46.1089 31.2919 46.6385 31.4704 47.0312C31.7739 47.6916 32.3689 48.2271 33.2554 48.6376C32.4522 48.9649 31.9137 49.3457 31.64 49.78C31.3604 50.2144 31.2146 50.8153 31.2027 51.5828V53.8408C31.2027 54.5012 31.042 54.9772 30.7208 55.2688C30.5423 55.4413 30.2299 55.593 29.7836 55.7239V57.143L30.4173 57.1251C31.2681 57.1013 32.0119 56.8485 32.6485 56.3665Z" fill="#FF8000"/>
<path d="M32.6485 56.3665L32.9886 56.8144L32.988 56.8149L32.6485 56.3665ZM34.2907 49.7265L34.6649 50.1463L34.6626 50.1483L34.2907 49.7265ZM35.4688 49.1463H36.0312V49.5733L35.6199 49.6881L35.4688 49.1463ZM35.4688 48.0664L35.6499 47.534L36.0312 47.6637V48.0664H35.4688ZM34.2461 47.4149L34.638 47.0116L34.6437 47.0173L34.2461 47.4149ZM33.4607 42.185L33.998 42.0188L33.9988 42.0216L33.4607 42.185ZM32.5503 40.8106L32.8984 40.3688L32.8994 40.3696L32.5503 40.8106ZM31.167 40.1948L31.0615 40.7472L31.0547 40.7459L31.167 40.1948ZM29.7836 40.0877H29.2212V39.5197L29.7892 39.5253L29.7836 40.0877ZM29.7836 41.5067L29.6645 42.0563L29.2212 41.9602V41.5067H29.7836ZM31.4704 47.0312L30.9594 47.266L30.9584 47.2639L31.4704 47.0312ZM33.2554 48.6376L33.4917 48.1273L34.665 48.6706L33.4676 49.1585L33.2554 48.6376ZM31.64 49.78L32.1158 50.0799L32.1129 50.0845L31.64 49.78ZM31.2027 51.5828H30.6402L30.6404 51.5741L31.2027 51.5828ZM30.7208 55.2688L30.3299 54.8644L30.3363 54.8582L30.3428 54.8523L30.7208 55.2688ZM29.7836 55.7239H29.2212V55.3028L29.6253 55.1843L29.7836 55.7239ZM29.7836 57.143L29.7995 57.7052L29.2212 57.7214V57.143H29.7836ZM30.4173 57.1251L30.4015 56.5629L30.4016 56.5629L30.4173 57.1251ZM32.6485 56.3665L32.3084 55.9186C32.7886 55.554 33.05 55.0248 33.05 54.2424H33.6124H34.1748C34.1748 55.3164 33.7936 56.2033 32.9886 56.8144L32.6485 56.3665ZM33.6124 54.2424H33.05V51.4489H33.6124H34.1748V54.2424H33.6124ZM33.6124 51.4489H33.05C33.05 50.5803 33.3169 49.8352 33.9188 49.3046L34.2907 49.7265L34.6626 50.1483C34.3601 50.415 34.1748 50.8182 34.1748 51.4489H33.6124ZM34.2907 49.7265L33.9165 49.3066C34.2764 48.9858 34.7576 48.7609 35.3176 48.6046L35.4688 49.1463L35.6199 49.6881C35.1565 49.8174 34.8523 49.9792 34.6649 50.1463L34.2907 49.7265ZM35.4688 49.1463H34.9063V48.0664H35.4688H36.0312V49.1463H35.4688ZM35.4688 48.0664L35.2876 48.5989C34.6848 48.3938 34.1785 48.1428 33.8484 47.8126L34.2461 47.4149L34.6437 47.0173C34.7896 47.1631 35.0984 47.3464 35.6499 47.534L35.4688 48.0664ZM34.2461 47.4149L33.8541 47.8183C33.2827 47.263 33.05 46.462 33.05 45.5318H33.6124H34.1748C34.1748 46.2914 34.3645 46.7458 34.638 47.0116L34.2461 47.4149ZM33.6124 45.5318H33.05V43.14H33.6124H34.1748V45.5318H33.6124ZM33.6124 43.14H33.05C33.05 42.8993 33.0099 42.6362 32.9225 42.3484L33.4607 42.185L33.9988 42.0216C34.1137 42.4001 34.1748 42.7737 34.1748 43.14H33.6124ZM33.4607 42.185L32.9234 42.3512C32.7747 41.8706 32.5313 41.5128 32.2013 41.2515L32.5503 40.8106L32.8994 40.3696C33.4262 40.7867 33.7896 41.3452 33.998 42.0188L33.4607 42.185ZM32.5503 40.8106L32.2023 41.2523C31.8859 41.003 31.5096 40.8328 31.0615 40.7472L31.167 40.1948L31.2725 39.6424C31.8835 39.7591 32.4294 39.9993 32.8984 40.3688L32.5503 40.8106ZM31.167 40.1948L31.0547 40.7459C30.7863 40.6912 30.3675 40.6559 29.7781 40.65L29.7836 40.0877L29.7892 39.5253C30.4017 39.5314 30.9051 39.5675 31.2793 39.6437L31.167 40.1948ZM29.7836 40.0877H30.346V41.5067H29.7836H29.2212V40.0877H29.7836ZM29.7836 41.5067L29.9028 40.9571C30.4152 41.0682 30.89 41.2376 31.1898 41.5374L30.7922 41.9351L30.3945 42.3328C30.3373 42.2756 30.1398 42.1594 29.6645 42.0563L29.7836 41.5067ZM30.7922 41.9351L31.1898 41.5374C31.6254 41.973 31.7651 42.6441 31.7651 43.372H31.2027H30.6403C30.6403 42.7315 30.5062 42.4445 30.3945 42.3328L30.7922 41.9351ZM31.2027 43.372H31.7651V45.4426H31.2027H30.6403V43.372H31.2027ZM31.2027 45.4426H31.7651C31.7651 46.068 31.8503 46.5077 31.9824 46.7984L31.4704 47.0312L30.9584 47.2639C30.7336 46.7692 30.6403 46.1499 30.6403 45.4426H31.2027ZM31.4704 47.0312L31.9815 46.7964C32.2123 47.2988 32.6846 47.7535 33.4917 48.1273L33.2554 48.6376L33.0191 49.148C32.0532 48.7007 31.3354 48.0844 30.9594 47.266L31.4704 47.0312ZM33.2554 48.6376L33.4676 49.1585C32.7056 49.4689 32.2968 49.7926 32.1158 50.0798L31.64 49.78L31.1642 49.4802C31.5306 48.8988 32.1987 48.4609 33.0432 48.1168L33.2554 48.6376ZM31.64 49.78L32.1129 50.0845C31.9113 50.3975 31.776 50.8813 31.765 51.5915L31.2027 51.5828L30.6404 51.5741C30.6531 50.7493 30.8094 50.0312 31.1671 49.4756L31.64 49.78ZM31.2027 51.5828H31.7651V53.8408H31.2027H30.6403V51.5828H31.2027ZM31.2027 53.8408H31.7651C31.7651 54.5772 31.5872 55.242 31.0987 55.6853L30.7208 55.2688L30.3428 54.8523C30.4969 54.7125 30.6403 54.4252 30.6403 53.8408H31.2027ZM30.7208 55.2688L31.1116 55.6731C30.8325 55.9429 30.4118 56.1258 29.9419 56.2636L29.7836 55.7239L29.6253 55.1843C30.048 55.0603 30.252 54.9397 30.3299 54.8644L30.7208 55.2688ZM29.7836 55.7239H30.346V57.143H29.7836H29.2212V55.7239H29.7836ZM29.7836 57.143L29.7678 56.5808L30.4015 56.5629L30.4173 57.1251L30.4331 57.6873L29.7995 57.7052L29.7836 57.143ZM30.4173 57.1251L30.4016 56.5629C31.1435 56.5422 31.7722 56.3245 32.3091 55.9181L32.6485 56.3665L32.988 56.8149C32.2516 57.3724 31.3928 57.6605 30.433 57.6873L30.4173 57.1251Z" fill="#FF8000" mask="url(#path-15-outside-4_203_137)"/>
<path d="M6.65605 64.5186C7.00974 64.5186 7.28891 64.4479 7.49355 64.3064C7.70072 64.1649 7.8043 63.9098 7.8043 63.5409C7.8043 63.1443 7.66029 62.8739 7.37228 62.7299C7.21817 62.6541 7.01227 62.6162 6.75458 62.6162H4.91283V64.5186H6.65605ZM4.15869 61.9682H6.73563C7.16006 61.9682 7.50997 62.0301 7.78535 62.1539C8.30832 62.3914 8.5698 62.8297 8.5698 63.4689C8.5698 63.8024 8.50032 64.0752 8.36137 64.2875C8.22494 64.4997 8.03294 64.6702 7.78535 64.7991C8.00262 64.8875 8.16557 65.0037 8.27421 65.1477C8.38537 65.2917 8.44727 65.5254 8.4599 65.8488L8.48643 66.5953C8.49401 66.8076 8.51169 66.9655 8.53948 67.069C8.58496 67.2459 8.6658 67.3596 8.78202 67.4101V67.5352H7.85735C7.83209 67.4872 7.81188 67.4253 7.79672 67.3495C7.78156 67.2737 7.76893 67.1271 7.75882 66.9099L7.71335 65.9814C7.69566 65.6176 7.5605 65.3738 7.30786 65.25C7.16385 65.1818 6.93774 65.1477 6.62952 65.1477H4.91283V67.5352H4.15869V61.9682ZM9.58542 63.4954H10.2789V67.5352H9.58542V63.4954ZM9.58542 61.9682H10.2789V62.7413H9.58542V61.9682ZM12.746 63.4045C13.0643 63.4045 13.3422 63.4828 13.5797 63.6394C13.7085 63.7279 13.8399 63.8567 13.9738 64.026V63.5144H14.6029V67.2055C14.6029 67.7208 14.5271 68.1276 14.3755 68.4257C14.0925 68.9765 13.5582 69.2519 12.7725 69.2519C12.3354 69.2519 11.9678 69.1533 11.6697 68.9563C11.3716 68.7617 11.2048 68.456 11.1695 68.0392H11.863C11.8958 68.2211 11.9615 68.3613 12.06 68.4598C12.2141 68.6114 12.4567 68.6872 12.7876 68.6872C13.3106 68.6872 13.6529 68.5028 13.8146 68.1339C13.9106 67.9166 13.9548 67.5288 13.9473 66.9705C13.8108 67.1777 13.6466 67.3318 13.4546 67.4328C13.2626 67.5339 13.0087 67.5844 12.6929 67.5844C12.2533 67.5844 11.868 67.429 11.5371 67.1183C11.2086 66.805 11.0444 66.2884 11.0444 65.5683C11.0444 64.8887 11.2099 64.3582 11.5409 63.9767C11.8743 63.5952 12.276 63.4045 12.746 63.4045ZM13.9738 65.4888C13.9738 64.986 13.8702 64.6134 13.663 64.3708C13.4559 64.1283 13.1919 64.007 12.871 64.007C12.391 64.007 12.0626 64.2319 11.8857 64.6816C11.7922 64.9216 11.7455 65.2361 11.7455 65.6252C11.7455 66.0825 11.8377 66.4311 12.0221 66.6711C12.2091 66.9086 12.4592 67.0273 12.7725 67.0273C13.2626 67.0273 13.6075 66.8063 13.807 66.3642C13.9182 66.1141 13.9738 65.8223 13.9738 65.4888ZM15.6336 61.9493H16.3158V64.026C16.4775 63.8213 16.6227 63.6773 16.7516 63.594C16.9714 63.45 17.2455 63.378 17.5739 63.378C18.1626 63.378 18.5617 63.5839 18.7714 63.9957C18.8851 64.2205 18.942 64.5325 18.942 64.9317V67.5352H18.2409V64.9772C18.2409 64.6791 18.203 64.4605 18.1272 64.3216C18.0034 64.0992 17.771 63.9881 17.4299 63.9881C17.147 63.9881 16.8905 64.0853 16.6606 64.2799C16.4307 64.4744 16.3158 64.842 16.3158 65.3827V67.5352H15.6336V61.9493ZM20.0902 62.3434H20.7799V63.4765H21.4279V64.0336H20.7799V66.6825C20.7799 66.824 20.8279 66.9187 20.9239 66.9667C20.977 66.9945 21.0654 67.0084 21.1892 67.0084C21.222 67.0084 21.2574 67.0084 21.2953 67.0084C21.3332 67.0059 21.3774 67.0021 21.4279 66.997V67.5352C21.3496 67.5579 21.2675 67.5743 21.1816 67.5844C21.0983 67.5945 21.0073 67.5996 20.9088 67.5996C20.5904 67.5996 20.3744 67.5187 20.2607 67.357C20.1471 67.1928 20.0902 66.9806 20.0902 66.7204V64.0336H19.5407V63.4765H20.0902V62.3434ZM61.4425 64.3216C61.7608 64.3216 62.0084 64.2774 62.1852 64.1889C62.4631 64.05 62.6021 63.7999 62.6021 63.4386C62.6021 63.0748 62.4543 62.8297 62.1587 62.7034C61.9919 62.6327 61.7444 62.5973 61.4159 62.5973H60.0706V64.3216H61.4425ZM61.6964 66.8909C62.1587 66.8909 62.4884 66.757 62.6854 66.4892C62.8092 66.32 62.8711 66.1153 62.8711 65.8753C62.8711 65.4711 62.6905 65.1957 62.3292 65.0492C62.1372 64.9709 61.8833 64.9317 61.5675 64.9317H60.0706V66.8909H61.6964ZM59.3316 61.9682H61.7229C62.3747 61.9682 62.8383 62.1628 63.1137 62.5518C63.2754 62.7817 63.3562 63.047 63.3562 63.3476C63.3562 63.6988 63.2564 63.9868 63.0568 64.2117C62.9532 64.3304 62.8042 64.439 62.6097 64.5376C62.8951 64.6462 63.1086 64.7687 63.2501 64.9052C63.5002 65.1477 63.6253 65.4825 63.6253 65.9094C63.6253 66.2682 63.5128 66.5928 63.288 66.8833C62.952 67.3179 62.4176 67.5352 61.685 67.5352H59.3316V61.9682ZM64.4552 63.4765H65.1032V64.1776C65.1563 64.0411 65.2864 63.8757 65.4935 63.6811C65.7007 63.4841 65.9395 63.3855 66.2098 63.3855C66.2224 63.3855 66.2439 63.3868 66.2742 63.3893C66.3045 63.3918 66.3563 63.3969 66.4296 63.4045V64.1245C66.3892 64.1169 66.3513 64.1119 66.3159 64.1093C66.283 64.1068 66.2464 64.1056 66.206 64.1056C65.8624 64.1056 65.5984 64.2167 65.414 64.439C65.2295 64.6588 65.1373 64.9127 65.1373 65.2008V67.5352H64.4552V63.4765ZM67.0208 63.4954H67.7143V67.5352H67.0208V63.4954ZM67.0208 61.9682H67.7143V62.7413H67.0208V61.9682ZM70.1813 63.4045C70.4996 63.4045 70.7775 63.4828 71.015 63.6394C71.1439 63.7279 71.2752 63.8567 71.4091 64.026V63.5144H72.0382V67.2055C72.0382 67.7208 71.9624 68.1276 71.8108 68.4257C71.5279 68.9765 70.9935 69.2519 70.2078 69.2519C69.7708 69.2519 69.4032 69.1533 69.105 68.9563C68.8069 68.7617 68.6402 68.456 68.6048 68.0392H69.2983C69.3312 68.2211 69.3968 68.3613 69.4954 68.4598C69.6495 68.6114 69.892 68.6872 70.223 68.6872C70.7459 68.6872 71.0883 68.5028 71.25 68.1339C71.346 67.9166 71.3902 67.5288 71.3826 66.9705C71.2462 67.1777 71.082 67.3318 70.89 67.4328C70.6979 67.5339 70.444 67.5844 70.1282 67.5844C69.6886 67.5844 69.3034 67.429 68.9724 67.1183C68.644 66.805 68.4798 66.2884 68.4798 65.5683C68.4798 64.8887 68.6452 64.3582 68.9762 63.9767C69.3097 63.5952 69.7114 63.4045 70.1813 63.4045ZM71.4091 65.4888C71.4091 64.986 71.3055 64.6134 71.0984 64.3708C70.8912 64.1283 70.6272 64.007 70.3064 64.007C69.8263 64.007 69.4979 64.2319 69.3211 64.6816C69.2276 64.9216 69.1808 65.2361 69.1808 65.6252C69.1808 66.0825 69.2731 66.4311 69.4575 66.6711C69.6444 66.9086 69.8946 67.0273 70.2078 67.0273C70.6979 67.0273 71.0428 66.8063 71.2424 66.3642C71.3536 66.1141 71.4091 65.8223 71.4091 65.4888ZM73.069 61.9493H73.7511V64.026C73.9128 63.8213 74.0581 63.6773 74.1869 63.594C74.4067 63.45 74.6808 63.378 75.0093 63.378C75.5979 63.378 75.9971 63.5839 76.2068 63.9957C76.3205 64.2205 76.3773 64.5325 76.3773 64.9317V67.5352H75.6762V64.9772C75.6762 64.6791 75.6383 64.4605 75.5625 64.3216C75.4387 64.0992 75.2063 63.9881 74.8653 63.9881C74.5823 63.9881 74.3259 64.0853 74.096 64.2799C73.8661 64.4744 73.7511 64.842 73.7511 65.3827V67.5352H73.069V61.9493ZM77.5256 62.3434H78.2153V63.4765H78.8633V64.0336H78.2153V66.6825C78.2153 66.824 78.2633 66.9187 78.3593 66.9667C78.4123 66.9945 78.5008 67.0084 78.6246 67.0084C78.6574 67.0084 78.6928 67.0084 78.7307 67.0084C78.7686 67.0059 78.8128 67.0021 78.8633 66.997V67.5352C78.785 67.5579 78.7029 67.5743 78.617 67.5844C78.5336 67.5945 78.4426 67.5996 78.3441 67.5996C78.0258 67.5996 77.8098 67.5187 77.6961 67.357C77.5824 67.1928 77.5256 66.9806 77.5256 66.7204V64.0336H76.9761V63.4765H77.5256V62.3434Z" fill="#FF8000"/>
<path d="M25.9869 67.0766C26.3052 67.0766 26.5692 66.944 26.7789 66.6787C26.9911 66.4109 27.0972 66.0117 27.0972 65.4812C27.0972 65.1578 27.0505 64.8799 26.957 64.6475C26.7801 64.2003 26.4568 63.9767 25.9869 63.9767C25.5144 63.9767 25.191 64.2129 25.0167 64.6854C24.9232 64.938 24.8765 65.2589 24.8765 65.6479C24.8765 65.9612 24.9232 66.2277 25.0167 66.4475C25.1936 66.8669 25.5169 67.0766 25.9869 67.0766ZM24.2209 63.4954H24.8841V64.0336C25.0205 63.8491 25.1696 63.7064 25.3312 63.6053C25.5612 63.4537 25.8315 63.378 26.1422 63.378C26.602 63.378 26.9924 63.5548 27.3132 63.9085C27.6341 64.2597 27.7945 64.7624 27.7945 65.4168C27.7945 66.301 27.5633 66.9326 27.101 67.3116C26.8079 67.5516 26.4669 67.6716 26.0778 67.6716C25.7721 67.6716 25.5157 67.6046 25.3085 67.4707C25.1872 67.3949 25.0521 67.2648 24.903 67.0804V69.1533H24.2209V63.4954ZM29.1171 66.4551C29.1171 66.6522 29.1891 66.8076 29.3331 66.9212C29.4771 67.0349 29.6476 67.0918 29.8447 67.0918C30.0847 67.0918 30.3171 67.0362 30.542 66.925C30.9209 66.7406 31.1104 66.4387 31.1104 66.0193V65.4698C31.027 65.5229 30.9197 65.5671 30.7883 65.6025C30.6569 65.6378 30.5281 65.6631 30.4017 65.6782L29.9887 65.7313C29.7411 65.7641 29.5554 65.8159 29.4316 65.8867C29.2219 66.0054 29.1171 66.1949 29.1171 66.4551ZM30.7693 65.0757C30.926 65.0555 31.0308 64.9898 31.0839 64.8786C31.1142 64.818 31.1294 64.7308 31.1294 64.6172C31.1294 64.3847 31.046 64.2167 30.8792 64.1131C30.715 64.007 30.4788 63.954 30.1706 63.954C29.8144 63.954 29.5617 64.05 29.4127 64.242C29.3293 64.3481 29.275 64.506 29.2497 64.7157H28.6131C28.6257 64.2155 28.7874 63.8681 29.0981 63.6735C29.4114 63.4765 29.7739 63.378 30.1857 63.378C30.6632 63.378 31.051 63.4689 31.3492 63.6508C31.6447 63.8327 31.7925 64.1157 31.7925 64.4997V66.8379C31.7925 66.9086 31.8064 66.9655 31.8342 67.0084C31.8645 67.0513 31.9264 67.0728 32.0199 67.0728C32.0502 67.0728 32.0843 67.0716 32.1222 67.069C32.1601 67.064 32.2006 67.0577 32.2435 67.0501V67.5541C32.1374 67.5844 32.0565 67.6034 32.001 67.6109C31.9454 67.6185 31.8696 67.6223 31.7736 67.6223C31.5386 67.6223 31.3681 67.5389 31.262 67.3722C31.2064 67.2838 31.1673 67.1587 31.1445 66.997C31.0056 67.1789 30.806 67.3368 30.5458 67.4707C30.2855 67.6046 29.9988 67.6716 29.6855 67.6716C29.3091 67.6716 29.0009 67.5579 28.7608 67.3305C28.5234 67.1006 28.4046 66.8139 28.4046 66.4703C28.4046 66.0938 28.5221 65.802 28.7571 65.5949C28.992 65.3877 29.3002 65.2601 29.6817 65.2121L30.7693 65.0757ZM33.0507 62.3434H33.7404V63.4765H34.3884V64.0336H33.7404V66.6825C33.7404 66.824 33.7884 66.9187 33.8844 66.9667C33.9375 66.9945 34.0259 67.0084 34.1497 67.0084C34.1825 67.0084 34.2179 67.0084 34.2558 67.0084C34.2937 67.0059 34.3379 67.0021 34.3884 66.997V67.5352C34.3101 67.5579 34.228 67.5743 34.1421 67.5844C34.0587 67.5945 33.9678 67.5996 33.8692 67.5996C33.5509 67.5996 33.3349 67.5187 33.2212 67.357C33.1075 67.1928 33.0507 66.9806 33.0507 66.7204V64.0336H32.5012V63.4765H33.0507V62.3434ZM35.0743 61.9493H35.7565V64.026C35.9182 63.8213 36.0634 63.6773 36.1923 63.594C36.4121 63.45 36.6862 63.378 37.0146 63.378C37.6033 63.378 38.0024 63.5839 38.2121 63.9957C38.3258 64.2205 38.3827 64.5325 38.3827 64.9317V67.5352H37.6816V64.9772C37.6816 64.6791 37.6437 64.4605 37.5679 64.3216C37.4441 64.0992 37.2117 63.9881 36.8706 63.9881C36.5877 63.9881 36.3312 64.0853 36.1013 64.2799C35.8714 64.4744 35.7565 64.842 35.7565 65.3827V67.5352H35.0743V61.9493ZM41.7251 62.8588C41.7352 62.5758 41.7845 62.3687 41.8729 62.2373C42.0321 62.0049 42.339 61.8886 42.7938 61.8886C42.8367 61.8886 42.8809 61.8899 42.9264 61.8924C42.9719 61.895 43.0237 61.8987 43.0818 61.9038V62.5253C43.011 62.5202 42.9593 62.5177 42.9264 62.5177C42.8961 62.5152 42.867 62.5139 42.8393 62.5139C42.6321 62.5139 42.5083 62.5682 42.4679 62.6769C42.4274 62.783 42.4072 63.0558 42.4072 63.4954H43.0818V64.0336H42.3997V67.5352H41.7251V64.0336H41.1605V63.4954H41.7251V62.8588ZM45.3252 67.0956C45.7775 67.0956 46.0869 66.925 46.2537 66.584C46.423 66.2404 46.5076 65.8589 46.5076 65.4395C46.5076 65.0605 46.447 64.7523 46.3257 64.5148C46.1337 64.1409 45.8027 63.954 45.3328 63.954C44.916 63.954 44.6128 64.1131 44.4233 64.4315C44.2338 64.7498 44.1391 65.1338 44.1391 65.5835C44.1391 66.0155 44.2338 66.3755 44.4233 66.6635C44.6128 66.9516 44.9134 67.0956 45.3252 67.0956ZM45.3518 63.359C45.8747 63.359 46.3169 63.5333 46.6781 63.882C47.0394 64.2306 47.22 64.7435 47.22 65.4206C47.22 66.0749 47.0609 66.6155 46.7426 67.0425C46.4242 67.4695 45.9303 67.683 45.2608 67.683C44.7025 67.683 44.2591 67.4947 43.9307 67.1183C43.6022 66.7393 43.438 66.2315 43.438 65.5949C43.438 64.9127 43.6111 64.3696 43.9572 63.9653C44.3033 63.5611 44.7682 63.359 45.3518 63.359ZM48.0538 63.4765H48.7018V64.1776C48.7548 64.0411 48.8849 63.8757 49.0921 63.6811C49.2993 63.4841 49.538 63.3855 49.8083 63.3855C49.821 63.3855 49.8425 63.3868 49.8728 63.3893C49.9031 63.3918 49.9549 63.3969 50.0281 63.4045V64.1245C49.9877 64.1169 49.9498 64.1119 49.9145 64.1093C49.8816 64.1068 49.845 64.1056 49.8046 64.1056C49.461 64.1056 49.197 64.2167 49.0125 64.439C48.8281 64.6588 48.7359 64.9127 48.7359 65.2008V67.5352H48.0538V63.4765ZM53.3024 66.4551C53.3024 66.6522 53.3744 66.8076 53.5184 66.9212C53.6624 67.0349 53.8329 67.0918 54.03 67.0918C54.27 67.0918 54.5024 67.0362 54.7273 66.925C55.1062 66.7406 55.2957 66.4387 55.2957 66.0193V65.4698C55.2123 65.5229 55.105 65.5671 54.9736 65.6025C54.8422 65.6378 54.7134 65.6631 54.587 65.6782L54.174 65.7313C53.9264 65.7641 53.7407 65.8159 53.6169 65.8867C53.4072 66.0054 53.3024 66.1949 53.3024 66.4551ZM54.9546 65.0757C55.1113 65.0555 55.2161 64.9898 55.2692 64.8786C55.2995 64.818 55.3147 64.7308 55.3147 64.6172C55.3147 64.3847 55.2313 64.2167 55.0645 64.1131C54.9003 64.007 54.6641 63.954 54.3559 63.954C53.9997 63.954 53.747 64.05 53.598 64.242C53.5146 64.3481 53.4603 64.506 53.435 64.7157H52.7984C52.811 64.2155 52.9727 63.8681 53.2834 63.6735C53.5967 63.4765 53.9592 63.378 54.371 63.378C54.8485 63.378 55.2363 63.4689 55.5345 63.6508C55.83 63.8327 55.9778 64.1157 55.9778 64.4997V66.8379C55.9778 66.9086 55.9917 66.9655 56.0195 67.0084C56.0498 67.0513 56.1117 67.0728 56.2052 67.0728C56.2355 67.0728 56.2696 67.0716 56.3075 67.069C56.3454 67.064 56.3858 67.0577 56.4288 67.0501V67.5541C56.3227 67.5844 56.2418 67.6034 56.1863 67.6109C56.1307 67.6185 56.0549 67.6223 55.9589 67.6223C55.7239 67.6223 55.5534 67.5389 55.4473 67.3722C55.3917 67.2838 55.3525 67.1587 55.3298 66.997C55.1909 67.1789 54.9913 67.3368 54.7311 67.4707C54.4708 67.6046 54.1841 67.6716 53.8708 67.6716C53.4944 67.6716 53.1862 67.5579 52.9461 67.3305C52.7087 67.1006 52.5899 66.8139 52.5899 66.4703C52.5899 66.0938 52.7074 65.802 52.9424 65.5949C53.1773 65.3877 53.4855 65.2601 53.867 65.2121L54.9546 65.0757ZM84.146 61.8166C84.8509 61.8166 85.3978 62.0023 85.7869 62.3737C86.176 62.7451 86.392 63.167 86.4349 63.6394H85.6997C85.6164 63.2807 85.4496 62.9965 85.1995 62.7868C84.9519 62.5771 84.6033 62.4722 84.1536 62.4722C83.6054 62.4722 83.162 62.6655 82.8234 63.052C82.4874 63.4361 82.3194 64.026 82.3194 64.8218C82.3194 65.4736 82.471 66.0029 82.7742 66.4096C83.0799 66.8139 83.5346 67.016 84.1384 67.016C84.6942 67.016 85.1174 66.8025 85.4079 66.3755C85.5621 66.1507 85.677 65.8551 85.7528 65.4888H86.488C86.4223 66.0749 86.205 66.5663 85.8362 66.9629C85.3941 67.4404 84.7978 67.6792 84.0475 67.6792C83.4007 67.6792 82.8575 67.4834 82.4179 67.0918C81.8394 66.5739 81.5501 65.7743 81.5501 64.6929C81.5501 63.8719 81.7674 63.1986 82.2019 62.6731C82.6719 62.1021 83.3199 61.8166 84.146 61.8166ZM87.8409 66.4551C87.8409 66.6522 87.9129 66.8076 88.0569 66.9212C88.2009 67.0349 88.3714 67.0918 88.5685 67.0918C88.8085 67.0918 89.0409 67.0362 89.2658 66.925C89.6447 66.7406 89.8342 66.4387 89.8342 66.0193V65.4698C89.7508 65.5229 89.6435 65.5671 89.5121 65.6025C89.3807 65.6378 89.2519 65.6631 89.1256 65.6782L88.7125 65.7313C88.4649 65.7641 88.2792 65.8159 88.1554 65.8867C87.9457 66.0054 87.8409 66.1949 87.8409 66.4551ZM89.4932 65.0757C89.6498 65.0555 89.7546 64.9898 89.8077 64.8786C89.838 64.818 89.8532 64.7308 89.8532 64.6172C89.8532 64.3847 89.7698 64.2167 89.6031 64.1131C89.4388 64.007 89.2026 63.954 88.8944 63.954C88.5382 63.954 88.2855 64.05 88.1365 64.242C88.0531 64.3481 87.9988 64.506 87.9735 64.7157H87.3369C87.3495 64.2155 87.5112 63.8681 87.8219 63.6735C88.1352 63.4765 88.4977 63.378 88.9096 63.378C89.387 63.378 89.7748 63.4689 90.073 63.6508C90.3686 63.8327 90.5163 64.1157 90.5163 64.4997V66.8379C90.5163 66.9086 90.5302 66.9655 90.558 67.0084C90.5884 67.0513 90.6502 67.0728 90.7437 67.0728C90.774 67.0728 90.8081 67.0716 90.846 67.069C90.8839 67.064 90.9244 67.0577 90.9673 67.0501V67.5541C90.8612 67.5844 90.7804 67.6034 90.7248 67.6109C90.6692 67.6185 90.5934 67.6223 90.4974 67.6223C90.2624 67.6223 90.0919 67.5389 89.9858 67.3722C89.9302 67.2838 89.8911 67.1587 89.8683 66.997C89.7294 67.1789 89.5298 67.3368 89.2696 67.4707C89.0093 67.6046 88.7226 67.6716 88.4093 67.6716C88.0329 67.6716 87.7247 67.5579 87.4847 67.3305C87.2472 67.1006 87.1284 66.8139 87.1284 66.4703C87.1284 66.0938 87.2459 65.802 87.4809 65.5949C87.7158 65.3877 88.024 65.2601 88.4055 65.2121L89.4932 65.0757ZM91.657 63.4765H92.305V64.1776C92.3581 64.0411 92.4882 63.8757 92.6954 63.6811C92.9025 63.4841 93.1413 63.3855 93.4116 63.3855C93.4242 63.3855 93.4457 63.3868 93.476 63.3893C93.5063 63.3918 93.5581 63.3969 93.6314 63.4045V64.1245C93.591 64.1169 93.5531 64.1119 93.5177 64.1093C93.4849 64.1068 93.4482 64.1056 93.4078 64.1056C93.0642 64.1056 92.8002 64.2167 92.6158 64.439C92.4314 64.6588 92.3391 64.9127 92.3391 65.2008V67.5352H91.657V63.4765ZM95.9128 63.3855C96.2008 63.3855 96.4799 63.4537 96.7503 63.5902C97.0206 63.7241 97.2265 63.8984 97.368 64.1131C97.5044 64.3178 97.5953 64.5565 97.6408 64.8294C97.6812 65.0163 97.7015 65.3144 97.7015 65.7237H94.7266C94.7392 66.1355 94.8365 66.4665 95.0184 66.7166C95.2003 66.9642 95.482 67.088 95.8635 67.088C96.2197 67.088 96.5039 66.9705 96.7162 66.7355C96.8374 66.5991 96.9233 66.4412 96.9738 66.2618H97.6446C97.6269 66.4109 97.5676 66.5776 97.4665 66.7621C97.368 66.944 97.2568 67.093 97.133 67.2092C96.9258 67.4114 96.6694 67.5478 96.3637 67.6185C96.1995 67.659 96.0138 67.6792 95.8066 67.6792C95.3014 67.6792 94.8731 67.496 94.522 67.1297C94.1708 66.7608 93.9952 66.2454 93.9952 65.5835C93.9952 64.9317 94.1721 64.4024 94.5258 63.9957C94.8795 63.5889 95.3418 63.3855 95.9128 63.3855ZM97.0004 65.1818C96.9726 64.8862 96.9082 64.65 96.8071 64.4732C96.6201 64.1447 96.3081 63.9805 95.8711 63.9805C95.5578 63.9805 95.295 64.0942 95.0828 64.3216C94.8706 64.5464 94.7582 64.8332 94.7456 65.1818H97.0004ZM100.233 63.3855C100.521 63.3855 100.8 63.4537 101.07 63.5902C101.341 63.7241 101.547 63.8984 101.688 64.1131C101.825 64.3178 101.916 64.5565 101.961 64.8294C102.001 65.0163 102.022 65.3144 102.022 65.7237H99.0468C99.0594 66.1355 99.1567 66.4665 99.3386 66.7166C99.5205 66.9642 99.8022 67.088 100.184 67.088C100.54 67.088 100.824 66.9705 101.036 66.7355C101.158 66.5991 101.243 66.4412 101.294 66.2618H101.965C101.947 66.4109 101.888 66.5776 101.787 66.7621C101.688 66.944 101.577 67.093 101.453 67.2092C101.246 67.4114 100.99 67.5478 100.684 67.6185C100.52 67.659 100.334 67.6792 100.127 67.6792C99.6215 67.6792 99.1933 67.496 98.8421 67.1297C98.491 66.7608 98.3154 66.2454 98.3154 65.5835C98.3154 64.9317 98.4922 64.4024 98.8459 63.9957C99.1996 63.5889 99.6619 63.3855 100.233 63.3855ZM101.321 65.1818C101.293 64.8862 101.228 64.65 101.127 64.4732C100.94 64.1447 100.628 63.9805 100.191 63.9805C99.878 63.9805 99.6152 64.0942 99.403 64.3216C99.1908 64.5464 99.0783 64.8332 99.0657 65.1818H101.321ZM102.882 63.4765H103.53V64.1776C103.583 64.0411 103.713 63.8757 103.92 63.6811C104.127 63.4841 104.366 63.3855 104.636 63.3855C104.649 63.3855 104.671 63.3868 104.701 63.3893C104.731 63.3918 104.783 63.3969 104.856 63.4045V64.1245C104.816 64.1169 104.778 64.1119 104.743 64.1093C104.71 64.1068 104.673 64.1056 104.633 64.1056C104.289 64.1056 104.025 64.2167 103.841 64.439C103.656 64.6588 103.564 64.9127 103.564 65.2008V67.5352H102.882V63.4765ZM105.186 66.709H105.978V67.5352H105.186V66.709Z" fill="#1E1E1E"/>
<path d="M110.256 8.21484C112.125 8.21484 113.669 9.84329 113.669 11.8877C113.669 13.932 112.125 15.5605 110.256 15.5605C108.387 15.5603 106.844 13.9319 106.844 11.8877C106.844 9.84345 108.387 8.21509 110.256 8.21484Z" stroke="#1E1E1E" stroke-width="0.48417"/>
<path d="M109.024 13.4844H108.366V11.5892H107.772V11.0517H109.616V11.5892H109.024V13.4844ZM111.024 13.4844L110.526 11.7323H110.511C110.516 11.7777 110.52 11.8393 110.525 11.917C110.53 11.9946 110.535 12.0784 110.539 12.1682C110.544 12.2581 110.546 12.3446 110.546 12.4278V13.4844H109.964V11.0517H110.839L111.346 12.7789H111.36L111.857 11.0517H112.734V13.4844H112.13V12.4178C112.13 12.3413 112.131 12.2592 112.134 12.1715C112.137 12.0828 112.14 11.9996 112.144 11.9219C112.148 11.8432 112.152 11.7811 112.155 11.7356H112.14L111.649 13.4844H111.024Z" fill="#1E1E1E"/>
</g>
<defs>
<clipPath id="clip0_203_137">
<rect width="113.242" height="69.7327" fill="white" transform="translate(0.695312)"/>
</clipPath>
<clipPath id="clip1_203_137">
<rect width="16.5825" height="11.4639" fill="white" transform="matrix(-0.859477 -0.511174 -0.460177 0.887827 104.773 11.0391)"/>
</clipPath>
</defs>
</svg>
