<svg width="64" height="64" viewBox="0 0 64 64" fill="none" xmlns="http://www.w3.org/2000/svg">
<path opacity="0.5" d="M50.6693 16H13.3359C11.2142 16 9.17937 16.8429 7.67908 18.3431C6.17879 19.8434 5.33594 21.8783 5.33594 24V31.2533L23.5679 37.3333H40.4373L58.6693 31.2533V24C58.6692 21.8783 57.8264 19.8434 56.3261 18.3431C54.8258 16.8429 52.791 16 50.6693 16Z" fill="url(#paint0_linear_195_703)"/>
<path d="M26.6693 16V13.3333H37.3359V16H42.6693V13.3333C42.6693 11.9188 42.1073 10.5623 41.1072 9.5621C40.107 8.5619 38.7504 8 37.3359 8H26.6693C25.2548 8 23.8982 8.5619 22.898 9.5621C21.8978 10.5623 21.3359 11.9188 21.3359 13.3333V16H26.6693ZM23.5679 37.3333L5.33594 31.2533V48C5.33806 50.1211 6.18159 52.1547 7.68142 53.6545C9.18125 55.1544 11.2149 55.9979 13.3359 56H50.6693C52.7903 55.9979 54.8239 55.1544 56.3238 53.6545C57.8236 52.1547 58.6671 50.1211 58.6693 48V31.2533L40.4373 37.3333H23.5679Z" fill="url(#paint1_linear_195_703)"/>
<defs>
<linearGradient id="paint0_linear_195_703" x1="32.0026" y1="16" x2="32.0026" y2="37.3333" gradientUnits="userSpaceOnUse">
<stop stop-color="#FF8541"/>
<stop offset="1" stop-color="#E84975"/>
</linearGradient>
<linearGradient id="paint1_linear_195_703" x1="32.0026" y1="8" x2="32.0026" y2="56" gradientUnits="userSpaceOnUse">
<stop stop-color="#FF8541"/>
<stop offset="1" stop-color="#E84975"/>
</linearGradient>
</defs>
</svg>
