<svg width="24" height="46" viewBox="0 0 24 46" fill="none" xmlns="http://www.w3.org/2000/svg">
<path d="M15.2213 13.5839H19.992C20.6535 13.5844 21.3045 13.7489 21.8868 14.0628C22.4691 14.3766 22.9645 14.8299 23.3286 15.3821C23.6927 15.9344 23.9141 16.5683 23.9732 17.2271C24.0322 17.8859 23.9269 18.5491 23.6667 19.1573L13.1067 43.8053C12.8517 44.3955 12.4013 44.8798 11.8312 45.1769C11.261 45.4739 10.6059 45.5655 9.97619 45.4363C9.34643 45.307 8.78041 44.9647 8.37338 44.4671C7.96635 43.9695 7.74315 43.3468 7.74134 42.704V24.2506L3.86667 24.1306C2.82908 24.096 1.84559 23.6594 1.12405 22.9129C0.4025 22.1665 -0.000576294 21.1688 6.18437e-07 20.1306V4.33594C6.18437e-07 3.27507 0.421428 2.25766 1.17157 1.50751C1.92172 0.757365 2.93914 0.335938 4 0.335938L11.2213 0.335938C12.2822 0.335938 13.2996 0.757365 14.0498 1.50751C14.7999 2.25766 15.2213 3.27507 15.2213 4.33594V13.5839Z" fill="url(#paint0_linear_195_685)"/>
<defs>
<linearGradient id="paint0_linear_195_685" x1="11.9945" y1="0.335937" x2="11.9945" y2="45.4934" gradientUnits="userSpaceOnUse">
<stop stop-color="#FF8541"/>
<stop offset="1" stop-color="#E84975"/>
</linearGradient>
</defs>
</svg>
