<svg width="60" height="41" viewBox="0 0 60 41" fill="none" xmlns="http://www.w3.org/2000/svg">
<path d="M30.0017 0.203125L0.8125 11.1494L30.0017 25.744L43.9042 18.7927L30.8621 14.8052C30.5935 14.934 30.2996 15.0012 30.0017 15.0019C29.4713 15.0019 28.9626 14.7912 28.5875 14.4161C28.2125 14.041 28.0017 13.5323 28.0017 13.0019C28.0017 12.4714 28.2125 11.9627 28.5875 11.5877C28.9626 11.2126 29.4713 11.0019 30.0017 11.0019L29.671 12.0771L31.9881 12.79L31.9891 12.797L35.4084 13.8426L54.8767 19.8325V21.3507C54.6075 21.5339 54.387 21.7801 54.2345 22.0679C54.082 22.3557 54.0021 22.6763 54.0017 23.002C54.0021 23.3351 54.0857 23.6629 54.2449 23.9556C54.4041 24.2482 54.6339 24.4964 54.9133 24.6777C54.003 28.1184 54.0017 35.9247 54.0017 39.0019C56.0017 40.3012 56.0017 40.3487 58.0017 39.0019C58.0017 35.9251 58.0007 28.1202 57.0905 24.6789C57.3701 24.4974 57.5999 24.249 57.759 23.9561C57.9182 23.6632 58.0016 23.3352 58.0017 23.0019C58.0017 22.6758 57.9219 22.3547 57.7694 22.0666C57.6169 21.7784 57.3963 21.5319 57.1267 21.3485V18.171L49.7112 15.8894L59.191 11.1494L30.0017 0.203125ZM12.9546 20.1269L11.3142 29.9694C14.5861 30.3972 18.5 32.299 22.098 34.5477C24.1442 35.8267 26.0609 37.2306 27.6175 38.5927C28.569 39.4252 29.3646 40.224 30.0017 41.0099C30.6389 40.2239 31.4345 39.4252 32.386 38.5927C33.9426 37.2306 35.8591 35.8267 37.9055 34.5477C41.5035 32.299 45.4174 30.3972 48.6892 29.9694L47.0486 20.1269H46.2674L30.0017 28.2597L13.7359 20.1269H12.9546Z" fill="url(#paint0_linear_195_672)"/>
<defs>
<linearGradient id="paint0_linear_195_672" x1="30.0017" y1="0.203125" x2="30.0017" y2="41.0099" gradientUnits="userSpaceOnUse">
<stop stop-color="#FF8541"/>
<stop offset="1" stop-color="#E84975"/>
</linearGradient>
</defs>
</svg>
